<svg width="1396" height="966" viewBox="0 0 1396 966" fill="none" xmlns="http://www.w3.org/2000/svg">
<g opacity="0.2">
<path d="M139.631 215.106H102.877C100.191 215.106 98.0073 212.919 98.0073 210.23V140.314C98.0073 137.624 100.191 135.438 102.877 135.438H139.631C142.317 135.438 144.501 137.624 144.501 140.314V210.23C144.501 212.919 142.317 215.106 139.631 215.106ZM102.877 136.324C100.681 136.324 98.8921 138.114 98.8921 140.314V210.23C98.8921 212.429 100.681 214.22 102.877 214.22H139.631C141.828 214.22 143.616 212.429 143.616 210.23V140.314C143.616 138.114 141.828 136.324 139.631 136.324H102.877Z" fill="#232323"/>
<path d="M142.066 205.793H100.442C100.197 205.793 99.9966 205.592 99.9966 205.347V142.086C99.9966 141.841 100.197 141.64 100.442 141.64H142.066C142.311 141.64 142.512 141.841 142.512 142.086V205.347C142.512 205.592 142.311 205.793 142.066 205.793ZM100.881 204.907H141.62V142.532H100.881V204.907Z" fill="#232323"/>
<path d="M121.257 211.933C119.751 211.933 118.527 210.708 118.527 209.199C118.527 207.691 119.751 206.466 121.257 206.466C122.763 206.466 123.987 207.691 123.987 209.199C123.987 210.708 122.763 211.933 121.257 211.933ZM121.257 207.352C120.24 207.352 119.412 208.181 119.412 209.199C119.412 210.217 120.24 211.047 121.257 211.047C122.274 211.047 123.102 210.217 123.102 209.199C123.102 208.181 122.274 207.352 121.257 207.352Z" fill="#232323"/>
<path d="M124.357 139.874H118.157C117.586 139.874 117.122 139.409 117.122 138.837C117.122 138.265 117.586 137.8 118.157 137.8H124.357C124.928 137.8 125.392 138.265 125.392 138.837C125.392 139.409 124.928 139.874 124.357 139.874ZM118.157 138.692C118.075 138.692 118.013 138.761 118.013 138.837C118.013 138.912 118.082 138.981 118.157 138.981H124.357C124.439 138.981 124.508 138.912 124.508 138.837C124.508 138.761 124.439 138.692 124.357 138.692H118.157Z" fill="#232323"/>
<path d="M1358 280H1327.1C1324.84 280 1323 278.161 1323 275.899V217.101C1323 214.839 1324.84 213 1327.1 213H1358C1360.26 213 1362.1 214.839 1362.1 217.101V275.899C1362.1 278.161 1360.26 280 1358 280ZM1327.1 213.745C1325.25 213.745 1323.74 215.251 1323.74 217.101V275.899C1323.74 277.749 1325.25 279.255 1327.1 279.255H1358C1359.85 279.255 1361.36 277.749 1361.36 275.899V217.101C1361.36 215.251 1359.85 213.745 1358 213.745H1327.1Z" fill="#232323"/>
<path d="M1360.05 272.174H1325.05C1324.84 272.174 1324.67 272.005 1324.67 271.798V218.597C1324.67 218.391 1324.84 218.222 1325.05 218.222H1360.05C1360.26 218.222 1360.43 218.391 1360.43 218.597V271.798C1360.43 272.005 1360.26 272.174 1360.05 272.174ZM1325.42 271.429H1359.68V218.972H1325.42V271.429Z" fill="#232323"/>
<path d="M1342.55 277.331C1341.28 277.331 1340.25 276.301 1340.25 275.032C1340.25 273.764 1341.28 272.733 1342.55 272.733C1343.81 272.733 1344.84 273.764 1344.84 275.032C1344.84 276.301 1343.81 277.331 1342.55 277.331ZM1342.55 273.479C1341.69 273.479 1341 274.176 1341 275.032C1341 275.888 1341.69 276.586 1342.55 276.586C1343.4 276.586 1344.1 275.888 1344.1 275.032C1344.1 274.176 1343.4 273.479 1342.55 273.479Z" fill="#232323"/>
<path d="M1345.15 216.73H1339.94C1339.46 216.73 1339.07 216.339 1339.07 215.858C1339.07 215.377 1339.46 214.986 1339.94 214.986H1345.15C1345.63 214.986 1346.03 215.377 1346.03 215.858C1346.03 216.339 1345.63 216.73 1345.15 216.73ZM1339.94 215.737C1339.87 215.737 1339.82 215.795 1339.82 215.858C1339.82 215.922 1339.88 215.98 1339.94 215.98H1345.15C1345.22 215.98 1345.28 215.922 1345.28 215.858C1345.28 215.795 1345.22 215.737 1345.15 215.737H1339.94Z" fill="#232323"/>
<path d="M310.996 264.994V228.189C310.996 225.499 313.18 223.312 315.866 223.312H385.684C388.37 223.312 390.554 225.499 390.554 228.189V264.994C390.554 267.684 388.37 269.871 385.684 269.871H315.866C313.18 269.871 310.996 267.684 310.996 264.994ZM389.669 228.189C389.669 225.989 387.881 224.199 385.684 224.199H315.866C313.669 224.199 311.881 225.989 311.881 228.189V264.994C311.881 267.194 313.669 268.985 315.866 268.985H385.684C387.881 268.985 389.669 267.194 389.669 264.994V228.189Z" fill="#232323"/>
<path d="M320.296 267.433V225.751C320.296 225.506 320.497 225.305 320.742 225.305H383.915C384.16 225.305 384.36 225.506 384.36 225.751V267.433C384.36 267.678 384.16 267.879 383.915 267.879H320.742C320.497 267.879 320.296 267.678 320.296 267.433ZM321.181 226.191V266.986H383.469V226.191H321.181Z" fill="#232323"/>
<path d="M314.171 246.595C314.171 245.087 315.395 243.861 316.901 243.861C318.407 243.861 319.631 245.087 319.631 246.595C319.631 248.103 318.407 249.328 316.901 249.328C315.395 249.328 314.171 248.103 314.171 246.595ZM318.746 246.595C318.746 245.577 317.918 244.747 316.901 244.747C315.885 244.747 315.056 245.577 315.056 246.595C315.056 247.613 315.885 248.442 316.901 248.442C317.918 248.442 318.746 247.613 318.746 246.595Z" fill="#232323"/>
<path d="M386.13 249.699V243.49C386.13 242.918 386.594 242.453 387.165 242.453C387.736 242.453 388.201 242.918 388.201 243.49V249.699C388.201 250.27 387.736 250.735 387.165 250.735C386.594 250.735 386.13 250.27 386.13 249.699ZM387.31 243.49C387.31 243.408 387.241 243.345 387.165 243.345C387.09 243.345 387.021 243.415 387.021 243.49V249.699C387.021 249.78 387.09 249.849 387.165 249.849C387.241 249.849 387.31 249.78 387.31 249.699V243.49Z" fill="#232323"/>
<path d="M627.502 74.6959H611.562C608.877 74.6959 606.693 72.5091 606.693 69.8195V33.1147C606.693 30.4251 608.877 28.2383 611.562 28.2383H627.502C630.187 28.2383 632.371 30.4251 632.371 33.1147V69.8195C632.371 72.5091 630.187 74.6959 627.502 74.6959ZM611.562 29.1243C609.366 29.1243 607.578 30.9153 607.578 33.1147V69.8195C607.578 72.0189 609.366 73.8099 611.562 73.8099H627.502C629.698 73.8099 631.486 72.0189 631.486 69.8195V33.1147C631.486 30.9153 629.698 29.1243 627.502 29.1243H611.562Z" fill="#232323"/>
<path d="M630.847 69.3102H608.218C607.973 69.3102 607.772 69.1092 607.772 68.8641V32.2723C607.772 32.0273 607.973 31.8262 608.218 31.8262H630.847C631.091 31.8262 631.292 32.0273 631.292 32.2723V68.8641C631.292 69.1092 631.091 69.3102 630.847 69.3102ZM608.657 68.4242H630.401V32.7185H608.657V68.4242Z" fill="#232323"/>
<path d="M621.139 31.5308H617.926C617.461 31.5308 617.085 31.1538 617.085 30.6887C617.085 30.2237 617.461 29.8467 617.926 29.8467H621.139C621.603 29.8467 621.98 30.2237 621.98 30.6887C621.98 31.1538 621.603 31.5308 621.139 31.5308Z" fill="#232323"/>
<path d="M309.157 56.7238C309.088 56.7238 309.013 56.7049 308.944 56.6735C308.8 56.5981 308.712 56.4473 308.712 56.2839V31.3804C308.712 31.2359 308.787 31.0976 308.906 31.016C309.026 30.9343 309.183 30.9154 309.321 30.972L319.505 34.9623C319.675 35.0314 319.788 35.1948 319.788 35.377V49.5663C319.788 49.7171 319.712 49.8554 319.587 49.9371L309.402 56.661C309.327 56.7112 309.245 56.7364 309.157 56.7364V56.7238ZM309.603 32.0214V55.4544L318.903 49.315V35.6661L309.603 32.0214Z" fill="#232323"/>
<path d="M386.651 61.6818C380.068 61.6818 373.561 61.4179 367.304 60.89C336.191 58.2884 319.311 50.0375 319.141 49.9558C318.991 49.8804 318.897 49.7296 318.897 49.5599V35.3707C318.897 35.1947 319.003 35.0376 319.16 34.9685C344.073 23.9338 374.935 20 395.505 20C406.895 20 414.783 29.1621 416.421 37.7837C418.197 47.1406 413.415 55.0333 403.625 58.9105C398.994 60.7517 393.284 61.6818 386.651 61.6818ZM319.788 49.2772C321.965 50.2889 338.482 57.5909 367.386 60.004C373.611 60.5255 380.099 60.7895 386.657 60.7895C393.215 60.7895 398.781 59.8783 403.305 58.081C412.668 54.3735 417.249 46.8515 415.561 37.9471C413.986 29.6774 406.43 20.8798 395.518 20.8798C375.104 20.8798 344.531 24.7633 319.794 35.6534V49.2709L319.788 49.2772Z" fill="#232323"/>
<path d="M370.379 128.047C370.053 128.047 369.77 127.915 369.557 127.664C368.609 126.551 369.086 123.12 370.178 116.07C371.201 109.446 372.475 101.202 372.475 92.8502C372.475 89.2181 372.243 85.4351 371.785 81.6144C371.032 75.3681 369.814 70.2027 368.929 66.9664C368.089 63.9061 367.423 62.0963 367.417 62.0775C367.198 61.4931 367.034 61.0092 366.909 60.563C366.871 60.4248 366.903 60.274 366.997 60.1608C367.091 60.0477 367.223 59.9912 367.373 60.0037C373.598 60.5253 380.087 60.7892 386.645 60.7892C393.202 60.7892 398.768 59.8781 403.293 58.0808C403.45 58.018 403.638 58.0557 403.763 58.1751C403.889 58.2945 403.933 58.4767 403.876 58.6401L381.756 121.581C381.725 121.662 381.675 121.731 381.612 121.782C381.279 122.039 373.485 128.041 370.385 128.041L370.379 128.047ZM367.957 60.9463C368.038 61.1977 368.139 61.4742 368.252 61.7758C368.258 61.7947 368.936 63.6359 369.789 66.7402C370.687 70.0079 371.91 75.2173 372.67 81.5202C373.128 85.3785 373.366 89.1992 373.366 92.8628C373.366 101.277 372.029 109.911 371.057 116.214C370.222 121.6 369.507 126.243 370.235 127.092C370.279 127.142 370.316 127.161 370.385 127.161C372.676 127.161 378.7 122.913 380.965 121.172L402.728 59.2559C398.266 60.8709 392.863 61.6879 386.651 61.6879C380.438 61.6879 374.012 61.4428 367.957 60.9526V60.9463Z" fill="#232323"/>
<path d="M370.354 82.0297C367.825 82.0297 366.237 81.8412 365.264 80.886C364.267 79.8994 364.06 78.1776 364.06 75.7143C364.06 68.5631 364.06 66.4014 367.404 66.4014H369.356C369.557 66.4014 369.732 66.5333 369.783 66.7281C370.68 69.9958 371.904 75.2053 372.663 81.5081C372.675 81.6338 372.638 81.7595 372.556 81.8537C372.475 81.948 372.355 82.0045 372.23 82.0045C371.552 82.0171 370.925 82.0297 370.347 82.0297H370.354ZM367.411 67.2937C365.02 67.2937 364.951 68.4939 364.951 75.7205C364.951 78.3535 365.208 79.5852 365.886 80.2576C366.733 81.0871 368.421 81.1813 371.728 81.1311C371 75.3121 369.877 70.4608 369.017 67.2937H367.404H367.411Z" fill="#232323"/>
<path d="M1292.41 81.6708C1292.35 81.6708 1292.28 81.653 1292.22 81.6233C1292.08 81.5521 1292 81.4098 1292 81.2555V57.7444C1292 57.608 1292.07 57.4775 1292.18 57.4003C1292.3 57.3232 1292.44 57.3054 1292.57 57.3588L1302.19 61.126C1302.35 61.1913 1302.46 61.3455 1302.46 61.5176V74.9135C1302.46 75.0559 1302.39 75.1864 1302.27 75.2635L1292.65 81.6115C1292.58 81.6589 1292.5 81.6827 1292.42 81.6827L1292.41 81.6708ZM1292.84 58.3496V80.4724L1301.62 74.6762V61.7905L1292.84 58.3496Z" fill="#232323"/>
<path d="M1365.58 86.3453C1359.36 86.3453 1353.22 86.0961 1347.31 85.5978C1317.94 83.1417 1302 75.3521 1301.84 75.275C1301.7 75.2038 1301.61 75.0614 1301.61 74.9012V61.5053C1301.61 61.3392 1301.71 61.1909 1301.86 61.1256C1325.37 50.7079 1354.51 47 1373.93 47C1384.69 47 1392.13 55.6498 1393.68 63.7894C1395.36 72.6231 1390.84 80.0745 1381.59 83.735C1377.22 85.4732 1371.83 86.3512 1365.58 86.3512V86.3453ZM1302.45 74.6343C1304.51 75.5894 1320.1 82.4832 1347.39 84.7613C1353.26 85.2537 1359.39 85.5029 1365.58 85.5029C1371.77 85.5029 1377.03 84.6426 1381.3 82.9459C1390.14 79.4456 1394.46 72.3383 1392.87 63.9377C1391.38 56.1304 1384.25 47.8246 1373.95 47.8246C1354.67 47.8246 1325.81 51.491 1302.46 61.7723V74.6283L1302.45 74.6343Z" fill="#232323"/>
<path d="M1350.21 149C1349.9 149 1349.64 148.876 1349.44 148.639C1348.54 147.588 1348.99 144.349 1350.02 137.693C1350.99 131.44 1352.19 123.656 1352.19 115.772C1352.19 112.343 1351.97 108.771 1351.54 105.164C1350.83 99.2671 1349.68 94.3904 1348.84 91.3351C1348.05 88.4459 1347.42 86.7373 1347.42 86.7195C1347.21 86.1678 1347.06 85.711 1346.94 85.2897C1346.9 85.1592 1346.93 85.0168 1347.02 84.91C1347.11 84.8033 1347.23 84.7499 1347.37 84.7617C1353.25 85.2541 1359.38 85.5033 1365.57 85.5033C1371.76 85.5033 1377.01 84.6431 1381.29 82.9463C1381.43 82.887 1381.61 82.9226 1381.73 83.0353C1381.85 83.1481 1381.89 83.3201 1381.84 83.4744L1360.95 142.896C1360.92 142.973 1360.88 143.038 1360.82 143.086C1360.5 143.329 1353.15 148.995 1350.22 148.995L1350.21 149ZM1347.93 85.6516C1348 85.8889 1348.1 86.15 1348.2 86.4347C1348.21 86.4525 1348.85 88.1908 1349.66 91.1215C1350.5 94.2065 1351.66 99.1247 1352.38 105.075C1352.81 108.718 1353.03 112.325 1353.03 115.784C1353.03 123.727 1351.77 131.879 1350.85 137.829C1350.06 142.914 1349.39 147.298 1350.08 148.099C1350.12 148.146 1350.15 148.164 1350.22 148.164C1352.38 148.164 1358.07 144.153 1360.21 142.51L1380.75 84.0558C1376.54 85.5805 1371.44 86.3517 1365.57 86.3517C1359.71 86.3517 1353.64 86.1203 1347.93 85.6576V85.6516Z" fill="#232323"/>
<path d="M1350.19 105.561C1347.8 105.561 1346.3 105.383 1345.39 104.481C1344.44 103.55 1344.25 101.924 1344.25 99.5988C1344.25 92.8475 1344.25 90.8066 1347.41 90.8066H1349.25C1349.44 90.8066 1349.6 90.9312 1349.65 91.1151C1350.5 94.2001 1351.65 99.1183 1352.37 105.069C1352.38 105.187 1352.35 105.306 1352.27 105.395C1352.19 105.484 1352.08 105.537 1351.96 105.537C1351.32 105.549 1350.73 105.561 1350.18 105.561H1350.19ZM1347.41 91.6491C1345.15 91.6491 1345.09 92.7822 1345.09 99.6048C1345.09 102.091 1345.33 103.253 1345.97 103.888C1346.77 104.671 1348.36 104.76 1351.49 104.713C1350.8 99.2191 1349.74 94.6391 1348.93 91.6491H1347.41H1347.41Z" fill="#232323"/>
<path d="M257.725 32.5492V45.5571C257.725 45.6765 257.681 45.7896 257.593 45.8713L251.249 52.2245C251.168 52.3061 251.055 52.3564 250.935 52.3564H236.615C236.37 52.3564 236.17 52.1553 236.17 51.9103V25.951C236.17 25.706 236.37 25.5049 236.615 25.5049H250.785C250.904 25.5049 251.017 25.5552 251.099 25.6368L257.593 32.235C257.675 32.3167 257.719 32.4299 257.719 32.543L257.725 32.5492ZM256.84 45.3749V32.7315L250.603 26.3972H237.061V51.4704H250.753L256.84 45.3749Z" fill="#232323"/>
<path d="M271.01 32.4296V45.4374C271.01 45.6825 270.809 45.8836 270.564 45.8836H257.28C257.035 45.8836 256.834 45.6825 256.834 45.4374V32.4296C256.834 32.1845 257.035 31.9834 257.28 31.9834H270.564C270.809 31.9834 271.01 32.1845 271.01 32.4296ZM270.125 44.9913V32.8694H257.725V44.9913H270.125Z" fill="#232323"/>
<path d="M274.995 35.949V41.5543C274.995 41.6737 274.945 41.7869 274.863 41.8748L270.878 45.7583C270.747 45.884 270.558 45.9217 270.389 45.8463C270.226 45.7709 270.125 45.6327 270.125 45.4253L270.495 32.4174C270.495 32.2415 270.608 32.0844 270.772 32.0215C270.935 31.9524 271.123 31.9901 271.249 32.1158L274.863 35.6348C274.951 35.7165 274.995 35.8359 274.995 35.9553V35.949ZM274.11 41.3658V36.1375L271.349 33.448L271.041 44.3507L274.11 41.3658Z" fill="#232323"/>
<path d="M237.061 29.3637V48.5048C237.061 48.7499 236.86 48.9509 236.615 48.9509H197.351C184.217 48.9509 184.217 41.9694 184.217 38.6138C184.217 35.4718 184.217 28.9238 197.351 28.9238H236.615C236.86 28.9238 237.061 29.1249 237.061 29.37V29.3637ZM236.176 48.0586V29.8036H197.357C185.108 29.8036 185.108 35.5283 185.108 38.6075C185.108 42.1454 185.108 48.0586 197.357 48.0586H236.176Z" fill="#232323"/>
<path d="M237.061 35.6284V42.2454C237.061 42.4905 236.86 42.6916 236.615 42.6916H202.704C192.18 42.6916 191.295 40.6995 191.295 38.8269C191.295 37.0674 192.174 35.1885 202.704 35.1885H236.615C236.86 35.1885 237.061 35.3896 237.061 35.6346V35.6284ZM236.176 41.7992V36.0745H202.71C192.193 36.0745 192.193 38.0037 192.193 38.8269C192.193 39.7946 192.193 41.8055 202.71 41.8055H236.176V41.7992Z" fill="#232323"/>
<path d="M161.029 237.558V250.566C161.029 250.685 160.985 250.798 160.898 250.88L154.553 257.233C154.472 257.315 154.359 257.365 154.24 257.365H139.919C139.675 257.365 139.474 257.164 139.474 256.919V230.96C139.474 230.715 139.675 230.514 139.919 230.514H154.089C154.208 230.514 154.321 230.564 154.403 230.646L160.898 237.244C160.979 237.326 161.023 237.439 161.023 237.552L161.029 237.558ZM160.145 250.384V237.74L153.907 231.406H140.365V256.479H154.058L160.145 250.384Z" fill="#232323"/>
<path d="M174.314 237.438V250.446C174.314 250.691 174.113 250.892 173.868 250.892H160.584C160.339 250.892 160.138 250.691 160.138 250.446V237.438C160.138 237.193 160.339 236.992 160.584 236.992H173.868C174.113 236.992 174.314 237.193 174.314 237.438ZM173.429 250V237.878H161.029V250H173.429Z" fill="#232323"/>
<path d="M178.299 240.958V246.563C178.299 246.683 178.249 246.796 178.167 246.884L174.182 250.767C174.051 250.893 173.862 250.931 173.693 250.855C173.53 250.78 173.429 250.641 173.429 250.434L173.8 237.426C173.8 237.25 173.913 237.093 174.076 237.03C174.239 236.961 174.427 236.999 174.553 237.125L178.167 240.644C178.255 240.725 178.299 240.845 178.299 240.964V240.958ZM177.414 246.375V241.146L174.653 238.457L174.346 249.36L177.414 246.375Z" fill="#232323"/>
<path d="M140.365 234.373V253.514C140.365 253.759 140.164 253.96 139.919 253.96H100.655C87.521 253.96 87.521 246.978 87.521 243.623C87.521 240.481 87.521 233.933 100.655 233.933H139.919C140.164 233.933 140.365 234.134 140.365 234.379V234.373ZM139.48 253.067V234.812H100.661C88.4121 234.812 88.4121 240.537 88.4121 243.616C88.4121 247.154 88.4121 253.067 100.661 253.067H139.48Z" fill="#232323"/>
<path d="M140.365 240.637V247.254C140.365 247.499 140.164 247.7 139.92 247.7H106.008C95.4844 247.7 94.5996 245.708 94.5996 243.836C94.5996 242.076 95.4781 240.197 106.008 240.197H139.92C140.164 240.197 140.365 240.398 140.365 240.643V240.637ZM139.48 246.808V241.083H106.014C95.497 241.083 95.497 243.013 95.497 243.836C95.497 244.803 95.497 246.814 106.014 246.814H139.48V246.808Z" fill="#232323"/>
<path d="M737.563 33.5445V20.5366C737.563 20.4172 737.607 20.3041 737.695 20.2224L744.04 13.8693C744.121 13.7876 744.234 13.7373 744.353 13.7373H758.673C758.918 13.7373 759.119 13.9384 759.119 14.1835V40.1427C759.119 40.3878 758.918 40.5888 758.673 40.5888H744.504C744.385 40.5888 744.272 40.5386 744.19 40.4569L737.695 33.8587C737.614 33.777 737.57 33.6639 737.57 33.5508L737.563 33.5445ZM738.448 20.7188V33.3622L744.686 39.6965H758.228V14.6296H744.535L738.448 20.7251V20.7188Z" fill="#232323"/>
<path d="M724.279 33.6699V20.662C724.279 20.4169 724.48 20.2158 724.724 20.2158H738.009C738.254 20.2158 738.455 20.4169 738.455 20.662V33.6699C738.455 33.9149 738.254 34.116 738.009 34.116H724.724C724.48 34.116 724.279 33.9149 724.279 33.6699ZM725.164 21.1081V33.23H737.563V21.1081H725.164Z" fill="#232323"/>
<path d="M720.294 30.145V24.5396C720.294 24.4203 720.344 24.3071 720.426 24.2192L724.411 20.3357C724.542 20.21 724.731 20.1723 724.9 20.2477C725.063 20.3231 725.164 20.4613 725.164 20.6687L724.793 33.6766C724.793 33.8525 724.68 34.0096 724.517 34.0725C724.354 34.1416 724.166 34.1039 724.04 33.9782L720.426 30.4592C720.338 30.3775 720.294 30.2581 720.294 30.1387V30.145ZM721.179 24.7282V29.9565L723.94 32.646L724.247 21.7433L721.179 24.7282Z" fill="#232323"/>
<path d="M758.228 36.7366V17.5956C758.228 17.3505 758.429 17.1494 758.674 17.1494H797.938C811.072 17.1494 811.072 24.1309 811.072 27.4866C811.072 30.6286 811.072 37.1765 797.938 37.1765H758.674C758.429 37.1765 758.228 36.9754 758.228 36.7304V36.7366ZM759.113 18.0417V36.2968H797.932C810.181 36.2968 810.181 30.572 810.181 27.4929C810.181 23.955 810.181 18.0417 797.932 18.0417H759.113Z" fill="#232323"/>
<path d="M758.228 30.4714V23.8544C758.228 23.6093 758.429 23.4082 758.674 23.4082H792.585C803.109 23.4082 803.994 25.4002 803.994 27.2729C803.994 29.0324 803.115 30.9113 792.585 30.9113H758.674C758.429 30.9113 758.228 30.7102 758.228 30.4651V30.4714ZM759.113 24.3005V30.0253H792.579C803.096 30.0253 803.096 28.0961 803.096 27.2729C803.096 26.3051 803.096 24.2942 792.579 24.2942H759.113V24.3005Z" fill="#232323"/>
<path d="M625.362 134.325H614.574C614.33 134.325 614.129 134.124 614.129 133.878V125.125C614.129 124.88 614.33 124.679 614.574 124.679H625.362C625.606 124.679 625.807 124.88 625.807 125.125V133.878C625.807 134.124 625.606 134.325 625.362 134.325ZM615.014 133.439H624.916V125.571H615.014V133.439Z" fill="#232323"/>
<path d="M622.438 136.951H617.788C617.687 136.951 617.587 136.914 617.505 136.851L614.286 134.224C614.142 134.105 614.085 133.903 614.148 133.728C614.211 133.552 614.374 133.451 614.575 133.438L625.362 133.684C625.544 133.684 625.713 133.809 625.77 133.985C625.832 134.161 625.77 134.356 625.632 134.475L622.714 136.857C622.632 136.92 622.538 136.958 622.431 136.958L622.438 136.951ZM617.944 136.065H622.281L624.144 134.544L615.849 134.356L617.944 136.065Z" fill="#232323"/>
<path d="M625.362 125.571H614.575C614.411 125.571 614.254 125.477 614.179 125.332C614.135 125.245 609.705 116.591 608.048 113.833C606.304 110.917 606.304 107.197 606.304 102.038C606.304 96.8785 610.91 89.0801 619.243 89.0801C627.577 89.0801 632.754 93.969 632.754 102.49C632.754 110.251 631.593 112.852 630.57 115.152C630.426 115.479 630.282 115.8 630.143 116.139C629.026 118.816 625.788 125.276 625.757 125.339C625.682 125.49 625.531 125.584 625.362 125.584V125.571ZM614.844 124.685H625.092C625.694 123.479 628.349 118.144 629.328 115.787C629.472 115.448 629.616 115.115 629.767 114.782C630.802 112.457 631.875 110.05 631.875 102.484C631.875 94.4089 627.389 89.9598 619.25 89.9598C611.782 89.9598 607.195 96.9916 607.195 102.031C607.195 107.071 607.195 110.666 608.814 113.368C610.326 115.894 614.116 123.252 614.851 124.679L614.844 124.685Z" fill="#232323"/>
<path d="M618.371 125.571C618.126 125.571 617.925 125.37 617.925 125.125V115.85L615.07 107.938C614.989 107.705 615.108 107.454 615.334 107.372C615.566 107.291 615.817 107.41 615.898 107.636L618.779 115.617C618.798 115.667 618.804 115.718 618.804 115.768V125.118C618.804 125.364 618.603 125.565 618.358 125.565L618.371 125.571Z" fill="#232323"/>
<path d="M621.622 125.572C621.377 125.572 621.176 125.371 621.176 125.126V115.775C621.176 115.725 621.183 115.674 621.201 115.624L624.082 107.643C624.163 107.411 624.414 107.292 624.646 107.38C624.879 107.461 624.998 107.719 624.91 107.945L622.055 115.857V125.132C622.055 125.377 621.854 125.578 621.609 125.578L621.622 125.572Z" fill="#232323"/>
<path d="M205.383 250.227H194.596C194.351 250.227 194.15 250.026 194.15 249.781V241.027C194.15 240.782 194.351 240.581 194.596 240.581H205.383C205.628 240.581 205.829 240.782 205.829 241.027V249.781C205.829 250.026 205.628 250.227 205.383 250.227ZM195.035 249.341H204.938V241.473H195.035V249.341Z" fill="#232323"/>
<path d="M202.459 252.854H197.809C197.708 252.854 197.608 252.816 197.526 252.753L194.307 250.126C194.163 250.007 194.106 249.806 194.169 249.63C194.232 249.454 194.395 249.353 194.596 249.341L205.383 249.586C205.571 249.586 205.734 249.712 205.791 249.888C205.854 250.063 205.791 250.258 205.653 250.378L202.735 252.759C202.653 252.822 202.559 252.86 202.453 252.86L202.459 252.854ZM197.966 251.968H202.302L204.166 250.447L195.87 250.258L197.966 251.968Z" fill="#232323"/>
<path d="M205.383 241.473H194.596C194.433 241.473 194.276 241.379 194.201 241.234C194.157 241.146 189.726 232.493 188.07 229.728C186.325 226.812 186.325 223.092 186.325 217.933C186.325 212.774 190.931 204.976 199.265 204.976C207.598 204.976 212.775 209.865 212.775 218.386C212.775 226.146 211.615 228.748 210.592 231.048C210.447 231.375 210.303 231.695 210.165 232.035C209.048 234.711 205.81 241.171 205.779 241.234C205.703 241.385 205.553 241.479 205.383 241.479V241.473ZM194.866 240.587H205.113C205.716 239.381 208.37 234.045 209.349 231.689C209.493 231.35 209.638 231.016 209.788 230.683C210.824 228.358 211.897 225.952 211.897 218.379C211.897 210.304 207.41 205.855 199.271 205.855C191.803 205.855 187.216 212.887 187.216 217.927C187.216 222.967 187.216 226.561 188.835 229.263C190.348 231.789 194.138 239.148 194.872 240.574L194.866 240.587Z" fill="#232323"/>
<path d="M198.386 241.473C198.142 241.473 197.941 241.272 197.941 241.027V231.752L195.086 223.84C195.004 223.608 195.123 223.356 195.349 223.275C195.581 223.193 195.832 223.312 195.914 223.539L198.794 231.519C198.813 231.57 198.819 231.62 198.819 231.67V241.021C198.819 241.266 198.618 241.467 198.374 241.467L198.386 241.473Z" fill="#232323"/>
<path d="M201.643 241.473C201.398 241.473 201.198 241.272 201.198 241.027V231.676C201.198 231.626 201.204 231.576 201.223 231.526L204.103 223.545C204.185 223.312 204.436 223.193 204.668 223.281C204.9 223.363 205.019 223.62 204.931 223.846L202.076 231.758V241.033C202.076 241.278 201.875 241.479 201.631 241.479L201.643 241.473Z" fill="#232323"/>
<path d="M718.135 92.5171V81.9286C718.135 81.6835 718.336 81.4824 718.581 81.4824H747.14C747.384 81.4824 747.585 81.6835 747.585 81.9286V92.5171C747.585 92.7622 747.384 92.9633 747.14 92.9633H718.581C718.336 92.9633 718.135 92.7622 718.135 92.5171ZM719.02 82.3748V92.0772H746.694V82.3748H719.02Z" fill="#232323"/>
<path d="M756.433 90.5183V84.1464C756.433 83.9013 756.634 83.7002 756.879 83.7002H758.316C758.56 83.7002 758.761 83.9013 758.761 84.1464V90.5183C758.761 90.7634 758.56 90.9645 758.316 90.9645H756.879C756.634 90.9645 756.433 90.7634 756.433 90.5183ZM757.318 84.5862V90.0722H757.87V84.5862H757.318Z" fill="#232323"/>
<path d="M746.694 92.5171V81.9286C746.694 81.6835 746.895 81.4824 747.14 81.4824H756.879C757.124 81.4824 757.324 81.6835 757.324 81.9286V92.5171C757.324 92.7622 757.124 92.9633 756.879 92.9633H747.14C746.895 92.9633 746.694 92.7622 746.694 92.5171ZM747.579 82.3748V92.0772H756.433V82.3748H747.579Z" fill="#232323"/>
<path d="M339.536 121.28H318.301C318.056 121.28 317.855 121.079 317.855 120.834V92.2352C317.855 91.9901 318.056 91.7891 318.301 91.7891H339.536C339.781 91.7891 339.982 91.9901 339.982 92.2352V120.834C339.982 121.079 339.781 121.28 339.536 121.28ZM318.74 120.394H339.09V92.6814H318.74V120.394Z" fill="#232323"/>
<path d="M325.931 82.9222H321.193C320.949 82.9222 320.748 82.7211 320.748 82.476V81.037C320.748 80.7919 320.949 80.5908 321.193 80.5908H325.931C326.176 80.5908 326.377 80.7919 326.377 81.037V82.476C326.377 82.7211 326.176 82.9222 325.931 82.9222ZM321.633 82.0361H325.486V81.4831H321.633V82.0361Z" fill="#232323"/>
<path d="M336.813 82.9222H332.075C331.83 82.9222 331.629 82.7211 331.629 82.476V81.037C331.629 80.7919 331.83 80.5908 332.075 80.5908H336.813C337.057 80.5908 337.258 80.7919 337.258 81.037V82.476C337.258 82.7211 337.057 82.9222 336.813 82.9222ZM332.514 82.0361H336.367V81.4831H332.514V82.0361Z" fill="#232323"/>
<path d="M339.536 92.6754H318.301C318.056 92.6754 317.855 92.4743 317.855 92.2292V82.4764C317.855 82.2314 318.056 82.0303 318.301 82.0303H339.536C339.781 82.0303 339.982 82.2314 339.982 82.4764V92.2292C339.982 92.4743 339.781 92.6754 339.536 92.6754ZM318.74 91.7893H339.09V82.9226H318.74V91.7893Z" fill="#232323"/>
<path d="M74.9768 257.868H15.9328C15.6881 257.868 15.4873 257.667 15.4873 257.422V139.766C15.4873 139.521 15.6881 139.32 15.9328 139.32H74.9768C75.2216 139.32 75.4224 139.521 75.4224 139.766V257.422C75.4224 257.667 75.2216 257.868 74.9768 257.868ZM16.3784 256.982H74.5376V140.213H16.3784V256.982Z" fill="#232323"/>
<path d="M45.4516 192.835C34.1373 192.835 24.9377 183.616 24.9377 172.286C24.9377 160.956 34.1436 151.737 45.4516 151.737C56.7596 151.737 65.9717 160.956 65.9717 172.286C65.9717 183.616 56.7659 192.835 45.4516 192.835ZM45.4516 152.63C34.6268 152.63 25.8226 161.446 25.8226 172.286C25.8226 183.126 34.6268 191.942 45.4516 191.942C56.2764 191.942 65.0806 183.126 65.0806 172.286C65.0806 161.446 56.2764 152.63 45.4516 152.63Z" fill="#232323"/>
<path d="M45.4517 185.03C38.4359 185.03 32.7317 179.318 32.7317 172.292C32.7317 165.267 38.4359 159.555 45.4517 159.555C52.4674 159.555 58.1716 165.267 58.1716 172.292C58.1716 179.318 52.4674 185.03 45.4517 185.03ZM45.4517 160.441C38.9254 160.441 33.6165 165.757 33.6165 172.292C33.6165 178.828 38.9254 184.144 45.4517 184.144C51.9779 184.144 57.2868 178.828 57.2868 172.292C57.2868 165.757 51.9779 160.441 45.4517 160.441Z" fill="#232323"/>
<path d="M45.4516 240.87C34.1373 240.87 24.9377 231.651 24.9377 220.321C24.9377 208.991 34.1436 199.772 45.4516 199.772C56.7596 199.772 65.9717 208.991 65.9717 220.321C65.9717 231.651 56.7659 240.87 45.4516 240.87ZM45.4516 200.665C34.6268 200.665 25.8226 209.481 25.8226 220.321C25.8226 231.161 34.6268 239.978 45.4516 239.978C56.2764 239.978 65.0806 231.161 65.0806 220.321C65.0806 209.481 56.2764 200.665 45.4516 200.665Z" fill="#232323"/>
<path d="M45.4517 233.065C38.4359 233.065 32.7317 227.353 32.7317 220.328C32.7317 213.302 38.4359 207.59 45.4517 207.59C52.4674 207.59 58.1716 213.302 58.1716 220.328C58.1716 227.353 52.4674 233.065 45.4517 233.065ZM45.4517 208.476C38.9254 208.476 33.6165 213.792 33.6165 220.328C33.6165 226.863 38.9254 232.179 45.4517 232.179C51.9779 232.179 57.2868 226.863 57.2868 220.328C57.2868 213.792 51.9779 208.476 45.4517 208.476Z" fill="#232323"/>
<path d="M583.568 120.405H447.182C444.496 120.405 442.312 118.218 442.312 115.529V35.7094C442.312 33.0198 444.496 30.833 447.182 30.833H583.568C586.254 30.833 588.438 33.0198 588.438 35.7094V115.529C588.438 118.218 586.254 120.405 583.568 120.405ZM447.175 31.7191C444.979 31.7191 443.191 33.51 443.191 35.7094V115.529C443.191 117.728 444.979 119.519 447.175 119.519H583.562C585.758 119.519 587.547 117.728 587.547 115.529V35.7094C587.547 33.51 585.758 31.7191 583.562 31.7191H447.175Z" fill="#232323"/>
<path d="M588.287 128.091H442.457C439.771 128.091 437.587 125.904 437.587 123.215V28.6215C437.587 25.9319 439.771 23.7451 442.457 23.7451H588.287C590.973 23.7451 593.157 25.9319 593.157 28.6215V123.215C593.157 125.904 590.973 128.091 588.287 128.091ZM442.457 24.6312C440.26 24.6312 438.472 26.4221 438.472 28.6215V123.215C438.472 125.414 440.26 127.205 442.457 127.205H588.287C590.484 127.205 592.272 125.414 592.272 123.215V28.6215C592.272 26.4221 590.484 24.6312 588.287 24.6312H442.457Z" fill="#232323"/>
<path d="M546.664 140.319H484.005C483.823 140.319 483.666 140.212 483.597 140.043C483.528 139.879 483.566 139.685 483.691 139.559L495.903 127.33C495.985 127.249 496.097 127.198 496.217 127.198H535.054C535.174 127.198 535.293 127.249 535.374 127.336L546.984 139.565C547.103 139.691 547.14 139.886 547.071 140.043C547.002 140.206 546.839 140.313 546.664 140.313V140.319ZM485.072 139.433H545.628L534.86 128.091H496.399L485.072 139.433Z" fill="#232323"/>
<path d="M525.114 89.4753C525.001 89.4753 524.888 89.4313 524.8 89.3434C524.65 89.1925 524.625 88.9537 524.75 88.7778L544.737 60.2421L515.275 53.7696C515.061 53.7256 514.917 53.5308 514.929 53.3109C514.942 53.0909 515.105 52.915 515.319 52.8961L549.895 48.9498L549.462 34.8359C549.462 34.6474 549.569 34.4777 549.745 34.4086C549.92 34.3395 550.121 34.3898 550.24 34.5343L559.214 45.192L566.399 37.1799C566.512 37.0605 566.675 37.0039 566.832 37.0479C566.989 37.0856 567.115 37.205 567.159 37.3684L569.104 44.7521L577.419 31.0467C577.5 30.9147 577.644 30.833 577.795 30.833H583.549C583.688 30.833 583.819 30.9021 583.907 31.009C583.989 31.1221 584.014 31.2666 583.976 31.3986L578.724 48.8241L584.359 57.075C584.453 57.2132 584.459 57.3892 584.384 57.5337C584.309 57.6783 584.158 57.7725 583.995 57.7725H578.297L580.45 74.4377C580.475 74.6262 580.38 74.8085 580.211 74.8901C580.048 74.9781 579.841 74.9467 579.703 74.8147L569.562 65.1185L563.124 82.7577C563.048 82.9588 562.847 83.0782 562.628 83.0405C562.414 83.0028 562.264 82.8206 562.264 82.6069V63.5035L525.346 89.3999C525.271 89.4565 525.183 89.4816 525.089 89.4816L525.114 89.4753ZM518.067 53.4743L545.578 59.5195C545.722 59.5509 545.841 59.6514 545.898 59.7897C545.954 59.9279 545.936 60.085 545.848 60.2044L526.928 87.2194L562.477 62.2844C562.615 62.1902 562.791 62.1776 562.935 62.253C563.08 62.3284 563.174 62.4792 563.174 62.6489V80.0996L568.985 64.1759C569.035 64.0377 569.154 63.9308 569.298 63.8994C569.443 63.868 569.593 63.9057 569.706 64.0125L579.427 73.3129L577.375 57.3892C577.356 57.2635 577.4 57.1378 577.481 57.0373C577.563 56.943 577.688 56.8865 577.814 56.8865H583.173L577.889 49.1572C577.814 49.044 577.795 48.9058 577.833 48.7801L582.972 31.7253H578.059L569.33 46.1094C569.236 46.2602 569.06 46.3482 568.89 46.3168C568.715 46.2917 568.57 46.166 568.527 45.99L566.525 38.3927L559.547 46.1723C559.459 46.2665 559.333 46.3231 559.208 46.3168C559.082 46.3168 558.957 46.254 558.875 46.1597L550.397 36.0864L550.799 49.3331C550.805 49.5656 550.636 49.7604 550.404 49.7856L518.067 53.4743Z" fill="#232323"/>
<path d="M1146.98 139.66H1010.59C1007.9 139.66 1005.72 137.473 1005.72 134.784V54.9643C1005.72 52.2747 1007.9 50.0879 1010.59 50.0879H1146.98C1149.66 50.0879 1151.85 52.2747 1151.85 54.9643V134.784C1151.85 137.473 1149.66 139.66 1146.98 139.66H1146.98ZM1010.59 50.9739C1008.39 50.9739 1006.6 52.7649 1006.6 54.9643V134.784C1006.6 136.983 1008.39 138.774 1010.59 138.774H1146.98C1149.17 138.774 1150.96 136.983 1150.96 134.784V54.9643C1150.96 52.7649 1149.17 50.9739 1146.98 50.9739H1010.59Z" fill="#232323"/>
<path d="M1151.7 147.346H1005.87C1003.18 147.346 1001 145.159 1001 142.469V47.8764C1001 45.1868 1003.18 43 1005.87 43H1151.7C1154.39 43 1156.57 45.1868 1156.57 47.8764V142.469C1156.57 145.159 1154.39 147.346 1151.7 147.346ZM1005.87 43.8798C1003.67 43.8798 1001.88 45.6707 1001.88 47.8701V142.463C1001.88 144.663 1003.67 146.453 1005.87 146.453H1151.7C1153.9 146.453 1155.69 144.663 1155.69 142.463V47.8701C1155.69 45.6707 1153.9 43.8798 1151.7 43.8798H1005.87Z" fill="#232323"/>
<path d="M1110.08 159.574H1047.42C1047.24 159.574 1047.08 159.467 1047.01 159.298C1046.94 159.134 1046.98 158.939 1047.1 158.814L1059.32 146.585C1059.4 146.503 1059.51 146.453 1059.63 146.453H1098.47C1098.59 146.453 1098.71 146.503 1098.79 146.591L1110.4 158.82C1110.52 158.946 1110.55 159.141 1110.48 159.298C1110.42 159.461 1110.25 159.568 1110.08 159.568V159.574ZM1048.48 158.688H1109.04L1098.27 147.345H1059.81L1048.48 158.688Z" fill="#232323"/>
<path d="M1088.53 108.731C1088.41 108.731 1088.3 108.687 1088.21 108.599C1088.06 108.448 1088.04 108.209 1088.16 108.033L1108.15 79.4976L1078.69 73.025C1078.47 72.9811 1078.33 72.7862 1078.34 72.5726C1078.36 72.3527 1078.52 72.1767 1078.73 72.1578L1113.31 68.2115L1112.88 54.0976C1112.88 53.9091 1112.98 53.7394 1113.16 53.6703C1113.33 53.6012 1113.53 53.6515 1113.65 53.796L1122.63 64.4537L1129.81 56.4416C1129.93 56.3222 1130.09 56.2656 1130.25 56.3096C1130.4 56.3473 1130.53 56.4667 1130.57 56.6301L1132.52 64.0138L1140.83 50.3084C1140.91 50.1764 1141.06 50.0947 1141.21 50.0947H1146.96C1147.1 50.0947 1147.23 50.1638 1147.32 50.2707C1147.4 50.3838 1147.43 50.5283 1147.39 50.6603L1142.14 68.0858L1147.77 76.3367C1147.87 76.475 1147.87 76.6509 1147.8 76.7954C1147.72 76.94 1147.57 77.0342 1147.41 77.0342H1141.71L1143.86 93.6994C1143.89 93.8879 1143.79 94.0702 1143.62 94.1519C1143.46 94.2398 1143.25 94.2084 1143.12 94.0764L1132.98 84.3802L1126.54 102.019C1126.46 102.221 1126.26 102.34 1126.04 102.302C1125.83 102.265 1125.68 102.082 1125.68 101.869V82.7652L1088.76 108.662C1088.68 108.718 1088.6 108.743 1088.5 108.743L1088.53 108.731ZM1081.48 72.7297L1108.99 78.7749C1109.14 78.8063 1109.25 78.9069 1109.31 79.0451C1109.37 79.1834 1109.35 79.3405 1109.26 79.4599L1090.34 106.475L1125.89 81.5399C1126.03 81.4456 1126.2 81.433 1126.35 81.5084C1126.49 81.5839 1126.59 81.7347 1126.59 81.9043V99.355L1132.4 83.4313C1132.45 83.2931 1132.57 83.1863 1132.71 83.1549C1132.86 83.1234 1133.01 83.1611 1133.12 83.268L1142.84 92.5683L1140.79 76.6446C1140.77 76.519 1140.81 76.3933 1140.89 76.2927C1140.98 76.1985 1141.1 76.1419 1141.23 76.1419H1146.59L1141.3 68.4126C1141.23 68.2995 1141.21 68.1612 1141.25 68.0355L1146.39 50.9808H1141.47L1132.74 65.3648C1132.65 65.5157 1132.47 65.6036 1132.3 65.5722C1132.13 65.5471 1131.98 65.4214 1131.94 65.2454L1129.94 57.6481L1122.96 65.4277C1122.87 65.5219 1122.75 65.5785 1122.62 65.5722C1122.5 65.5722 1122.37 65.5094 1122.29 65.4151L1113.81 55.3419L1114.21 68.5885C1114.22 68.821 1114.05 69.0159 1113.82 69.041L1081.48 72.7297Z" fill="#232323"/>
<path d="M275.183 130.246H188.841C186.155 130.246 183.972 128.06 183.972 125.37V76.1098C183.972 73.4202 186.155 71.2334 188.841 71.2334H275.183C277.868 71.2334 280.052 73.4202 280.052 76.1098V125.37C280.052 128.06 277.868 130.246 275.183 130.246ZM188.841 72.1194C186.645 72.1194 184.856 73.9104 184.856 76.1098V125.37C184.856 127.569 186.645 129.36 188.841 129.36H275.183C277.379 129.36 279.167 127.569 279.167 125.37V76.1098C279.167 73.9104 277.379 72.1194 275.183 72.1194H188.841Z" fill="#232323"/>
<path d="M279.801 135.28H184.223C182.378 135.28 180.878 133.778 180.878 131.93V69.9324C180.878 68.0849 182.378 66.583 184.223 66.583H279.801C281.646 66.583 283.146 68.0849 283.146 69.9324V131.93C283.146 133.778 281.646 135.28 279.801 135.28ZM184.223 67.4691C182.867 67.4691 181.763 68.575 181.763 69.9324V131.93C181.763 133.288 182.867 134.394 184.223 134.394H279.801C281.157 134.394 282.261 133.288 282.261 131.93V69.9324C282.261 68.575 281.157 67.4691 279.801 67.4691H184.223Z" fill="#232323"/>
<path d="M238.397 109.974C238.284 109.974 238.171 109.93 238.083 109.842C237.933 109.691 237.908 109.452 238.033 109.276L251.004 90.7636L231.921 86.5722C231.708 86.5282 231.563 86.3334 231.576 86.1198C231.589 85.8998 231.752 85.7239 231.965 85.705L254.487 83.1349L254.211 74.0231C254.211 73.8346 254.318 73.6649 254.493 73.5958C254.669 73.5266 254.87 73.5769 254.989 73.7214L260.756 80.571L265.349 75.4495C265.462 75.3301 265.626 75.2736 265.782 75.3176C265.939 75.3553 266.065 75.4747 266.109 75.6381L267.295 80.1311L272.56 71.4529C272.641 71.3209 272.786 71.2393 272.936 71.2393H276.708C276.846 71.2393 276.978 71.3084 277.065 71.4152C277.147 71.5283 277.172 71.6729 277.134 71.8048L273.714 83.1537L277.367 88.5014C277.461 88.6397 277.467 88.8156 277.392 88.9601C277.316 89.1047 277.166 89.1989 277.003 89.1989H273.445L274.831 99.9509C274.856 100.139 274.762 100.322 274.593 100.403C274.43 100.485 274.223 100.46 274.085 100.328L267.609 94.1319L263.473 105.474C263.398 105.676 263.191 105.801 262.977 105.757C262.764 105.72 262.613 105.537 262.613 105.324V93.095L238.661 109.898C238.585 109.955 238.498 109.98 238.403 109.98L238.397 109.974ZM234.707 86.2706L251.839 90.0347C251.983 90.0661 252.102 90.1667 252.159 90.3049C252.215 90.4432 252.196 90.6003 252.109 90.7197L240.204 107.718L262.795 91.8696C262.933 91.7754 263.109 91.7628 263.254 91.8382C263.398 91.9136 263.492 92.0644 263.492 92.2341V102.81L267.006 93.183C267.056 93.0447 267.176 92.9379 267.32 92.9002C267.464 92.8625 267.615 92.9065 267.728 93.0133L273.79 98.8072L272.497 88.803C272.478 88.6774 272.522 88.5517 272.604 88.4511C272.692 88.3569 272.811 88.3003 272.936 88.3003H276.162L272.861 83.4742C272.786 83.3611 272.767 83.2228 272.804 83.0972L276.118 72.1127H273.187L267.514 81.4696C267.42 81.6204 267.245 81.7084 267.075 81.677C266.899 81.6518 266.755 81.5262 266.711 81.3502L265.469 76.6435L261.082 81.5324C260.994 81.6267 260.869 81.6896 260.743 81.677C260.618 81.677 260.492 81.6141 260.411 81.5199L255.14 75.2547L255.391 83.4993C255.397 83.7319 255.227 83.9267 254.995 83.9518L234.714 86.2643L234.707 86.2706Z" fill="#232323"/>
<path d="M300.824 157.305H167.537C167.38 157.305 167.229 157.217 167.154 157.079C167.072 156.941 167.079 156.771 167.154 156.633L180.219 134.613C180.301 134.482 180.445 134.394 180.602 134.394H283.554C283.692 134.394 283.818 134.456 283.905 134.563L301.175 156.582C301.282 156.714 301.3 156.897 301.225 157.047C301.15 157.198 300.999 157.299 300.83 157.299L300.824 157.305ZM168.315 156.419H299.914L283.341 135.286H180.853L168.315 156.419Z" fill="#232323"/>
<path d="M296.832 161H171.07C170.951 161 170.831 160.95 170.75 160.862L167.204 157.167C167.079 157.041 167.047 156.846 167.116 156.689C167.185 156.526 167.349 156.419 167.524 156.419H300.811C300.993 156.419 301.156 156.532 301.225 156.702C301.294 156.871 301.244 157.066 301.112 157.192L297.127 160.887C297.046 160.962 296.939 161.006 296.826 161.006L296.832 161ZM171.258 160.114H296.657L299.688 157.305H168.566L171.258 160.114Z" fill="#232323"/>
<path d="M289.158 148.432H176.68C176.523 148.432 176.379 148.351 176.297 148.219C176.216 148.087 176.216 147.917 176.285 147.779L182.409 136.399C182.485 136.254 182.635 136.166 182.798 136.166H281.546C281.697 136.166 281.835 136.241 281.916 136.361L289.516 147.741C289.603 147.879 289.616 148.049 289.541 148.194C289.465 148.338 289.315 148.426 289.152 148.426L289.158 148.432ZM177.427 147.546H288.33L281.32 137.052H183.075L177.427 147.546Z" fill="#232323"/>
<path d="M243.104 155.527H222.734C222.596 155.527 222.464 155.458 222.376 155.351C222.289 155.244 222.27 155.094 222.307 154.962L224.021 149.268C224.077 149.08 224.247 148.954 224.447 148.954H241.02C241.209 148.954 241.372 149.067 241.434 149.243L243.518 154.936C243.568 155.075 243.549 155.226 243.468 155.345C243.386 155.464 243.248 155.533 243.104 155.533V155.527ZM223.33 154.641H242.47L240.713 149.84H224.78L223.337 154.641H223.33Z" fill="#232323"/>
<path d="M1123.1 257.663H1036.75C1034.07 257.663 1031.88 255.477 1031.88 252.787V203.527C1031.88 200.837 1034.07 198.65 1036.75 198.65H1123.1C1125.78 198.65 1127.97 200.837 1127.97 203.527V252.787C1127.97 255.477 1125.78 257.663 1123.1 257.663ZM1036.75 199.536C1034.56 199.536 1032.77 201.327 1032.77 203.527V252.787C1032.77 254.986 1034.56 256.777 1036.75 256.777H1123.1C1125.29 256.777 1127.08 254.986 1127.08 252.787V203.527C1127.08 201.327 1125.29 199.536 1123.1 199.536H1036.75Z" fill="#232323"/>
<path d="M1127.72 262.697H1032.14C1030.3 262.697 1028.8 261.195 1028.8 259.347V197.349C1028.8 195.502 1030.3 194 1032.14 194H1127.72C1129.57 194 1131.07 195.502 1131.07 197.349V259.347C1131.07 261.195 1129.57 262.697 1127.72 262.697ZM1032.14 194.886C1030.79 194.886 1029.68 195.992 1029.68 197.349V259.347C1029.68 260.705 1030.79 261.811 1032.14 261.811H1127.72C1129.08 261.811 1130.18 260.705 1130.18 259.347V197.349C1130.18 195.992 1129.08 194.886 1127.72 194.886H1032.14Z" fill="#232323"/>
<path d="M1086.32 237.391C1086.2 237.391 1086.09 237.347 1086 237.259C1085.85 237.108 1085.83 236.87 1085.95 236.694L1098.92 218.181L1079.84 213.99C1079.63 213.946 1079.48 213.751 1079.5 213.531C1079.51 213.311 1079.67 213.135 1079.88 213.116L1102.41 210.546L1102.13 201.434C1102.13 201.246 1102.24 201.076 1102.41 201.007C1102.59 200.938 1102.79 200.988 1102.91 201.133L1108.68 207.982L1113.27 202.861C1113.38 202.741 1113.54 202.685 1113.7 202.729C1113.86 202.766 1113.98 202.892 1114.03 203.049L1115.21 207.542L1120.48 198.864C1120.56 198.732 1120.71 198.65 1120.86 198.65H1124.63C1124.77 198.65 1124.9 198.72 1124.98 198.826C1125.07 198.939 1125.09 199.084 1125.05 199.222L1121.63 210.571L1125.29 215.919C1125.38 216.057 1125.39 216.233 1125.31 216.378C1125.24 216.522 1125.09 216.616 1124.92 216.616H1121.36L1122.75 227.368C1122.78 227.557 1122.68 227.739 1122.51 227.821C1122.35 227.902 1122.14 227.877 1122 227.745L1115.53 221.549L1111.39 232.892C1111.32 233.093 1111.11 233.219 1110.9 233.175C1110.68 233.137 1110.53 232.955 1110.53 232.741V220.512L1086.58 237.316C1086.5 237.372 1086.42 237.398 1086.32 237.398L1086.32 237.391ZM1082.63 213.688L1099.76 217.452C1099.9 217.484 1100.02 217.584 1100.08 217.722C1100.13 217.861 1100.12 218.018 1100.03 218.137L1088.12 235.135L1110.71 219.287C1110.85 219.193 1111.03 219.18 1111.17 219.256C1111.32 219.331 1111.41 219.482 1111.41 219.652V230.227L1114.93 220.6C1114.98 220.462 1115.09 220.355 1115.24 220.318C1115.38 220.28 1115.53 220.324 1115.65 220.431L1121.71 226.225L1120.42 216.22C1120.4 216.095 1120.44 215.969 1120.52 215.869C1120.61 215.774 1120.73 215.718 1120.86 215.718H1124.08L1120.78 210.892C1120.71 210.779 1120.69 210.64 1120.72 210.515L1124.04 199.53H1121.11L1115.43 208.887C1115.34 209.038 1115.16 209.126 1114.99 209.094C1114.82 209.069 1114.67 208.944 1114.63 208.768L1113.39 204.061L1109 208.95C1108.91 209.044 1108.79 209.107 1108.66 209.094C1108.54 209.094 1108.41 209.032 1108.33 208.937L1103.06 202.672L1103.31 210.917C1103.32 211.149 1103.15 211.344 1102.91 211.369L1082.63 213.682L1082.63 213.688Z" fill="#232323"/>
<path d="M1148.74 284.716H1015.45C1015.29 284.716 1015.14 284.628 1015.07 284.49C1014.99 284.352 1014.99 284.182 1015.07 284.044L1028.13 262.025C1028.21 261.893 1028.36 261.805 1028.52 261.805H1131.47C1131.61 261.805 1131.73 261.868 1131.82 261.974L1149.09 283.993C1149.19 284.125 1149.21 284.308 1149.14 284.459C1149.06 284.609 1148.91 284.71 1148.74 284.71L1148.74 284.716ZM1016.23 283.83H1147.83L1131.25 262.697H1028.77L1016.23 283.83Z" fill="#232323"/>
<path d="M1144.75 288.411H1018.99C1018.87 288.411 1018.75 288.361 1018.67 288.273L1015.12 284.578C1015 284.452 1014.97 284.257 1015.04 284.1C1015.1 283.937 1015.27 283.83 1015.44 283.83H1148.73C1148.91 283.83 1149.08 283.943 1149.14 284.113C1149.21 284.283 1149.16 284.477 1149.03 284.603L1145.05 288.298C1144.97 288.373 1144.86 288.417 1144.75 288.417L1144.75 288.411ZM1019.18 287.525H1144.58L1147.61 284.716H1016.49L1019.18 287.525Z" fill="#232323"/>
<path d="M1137.08 275.849H1024.6C1024.44 275.849 1024.3 275.768 1024.22 275.636C1024.14 275.504 1024.14 275.334 1024.2 275.196L1030.33 263.816C1030.4 263.671 1030.55 263.583 1030.72 263.583H1129.47C1129.62 263.583 1129.75 263.658 1129.84 263.778L1137.44 275.158C1137.52 275.296 1137.54 275.466 1137.46 275.611C1137.38 275.755 1137.23 275.843 1137.07 275.843L1137.08 275.849ZM1025.35 274.963H1136.25L1129.24 264.469H1030.99L1025.35 274.963Z" fill="#232323"/>
<path d="M1091.02 282.944H1070.65C1070.52 282.944 1070.38 282.875 1070.3 282.768C1070.21 282.655 1070.19 282.511 1070.23 282.379L1071.94 276.685C1072 276.497 1072.17 276.371 1072.37 276.371H1088.94C1089.13 276.371 1089.29 276.484 1089.35 276.66L1091.44 282.353C1091.49 282.492 1091.47 282.643 1091.39 282.762C1091.31 282.881 1091.17 282.95 1091.02 282.95V282.944ZM1071.25 282.058H1090.39L1088.63 277.257H1072.7L1071.26 282.058H1071.25Z" fill="#232323"/>
<path d="M694.898 103.81H658.144C655.458 103.81 653.274 101.623 653.274 98.9338V29.018C653.274 26.3284 655.458 24.1416 658.144 24.1416H694.898C697.584 24.1416 699.768 26.3284 699.768 29.018V98.9338C699.768 101.623 697.584 103.81 694.898 103.81ZM658.144 25.0276C655.948 25.0276 654.159 26.8186 654.159 29.018V98.9338C654.159 101.133 655.948 102.924 658.144 102.924H694.898C697.095 102.924 698.883 101.133 698.883 98.9338V29.018C698.883 26.8186 697.095 25.0276 694.898 25.0276H658.144Z" fill="#232323"/>
<path d="M665.806 52.5449H659.067C658.822 52.5449 658.621 52.3438 658.621 52.0987V46.7196C658.621 46.4745 658.822 46.2734 659.067 46.2734H665.806C666.051 46.2734 666.252 46.4745 666.252 46.7196V52.0987C666.252 52.3438 666.051 52.5449 665.806 52.5449ZM659.512 51.6588H665.367V47.1658H659.512V51.6588Z" fill="#232323"/>
<path d="M675.075 52.5449H668.335C668.091 52.5449 667.89 52.3438 667.89 52.0987V46.7196C667.89 46.4745 668.091 46.2734 668.335 46.2734H675.075C675.32 46.2734 675.52 46.4745 675.52 46.7196V52.0987C675.52 52.3438 675.32 52.5449 675.075 52.5449ZM668.781 51.6588H674.636V47.1658H668.781V51.6588Z" fill="#232323"/>
<path d="M684.343 52.5449H677.604C677.359 52.5449 677.158 52.3438 677.158 52.0987V46.7196C677.158 46.4745 677.359 46.2734 677.604 46.2734H684.343C684.588 46.2734 684.789 46.4745 684.789 46.7196V52.0987C684.789 52.3438 684.588 52.5449 684.343 52.5449ZM678.049 51.6588H683.904V47.1658H678.049V51.6588Z" fill="#232323"/>
<path d="M693.606 52.5449H686.866C686.621 52.5449 686.42 52.3438 686.42 52.0987V46.7196C686.42 46.4745 686.621 46.2734 686.866 46.2734H693.606C693.85 46.2734 694.051 46.4745 694.051 46.7196V52.0987C694.051 52.3438 693.85 52.5449 693.606 52.5449ZM687.312 51.6588H693.166V47.1658H687.312V51.6588Z" fill="#232323"/>
<path d="M665.806 59.7529H659.066C658.822 59.7529 658.621 59.5518 658.621 59.3067V53.9276C658.621 53.6825 658.822 53.4814 659.066 53.4814H665.806C666.051 53.4814 666.252 53.6825 666.252 53.9276V59.3067C666.252 59.5518 666.051 59.7529 665.806 59.7529ZM659.512 58.8668H665.367V54.3738H659.512V58.8668Z" fill="#232323"/>
<path d="M675.075 59.7529H668.335C668.09 59.7529 667.889 59.5518 667.889 59.3067V53.9276C667.889 53.6825 668.09 53.4814 668.335 53.4814H675.075C675.319 53.4814 675.52 53.6825 675.52 53.9276V59.3067C675.52 59.5518 675.319 59.7529 675.075 59.7529ZM668.781 58.8668H674.635V54.3738H668.781V58.8668Z" fill="#232323"/>
<path d="M684.343 59.7529H677.604C677.359 59.7529 677.158 59.5518 677.158 59.3067V53.9276C677.158 53.6825 677.359 53.4814 677.604 53.4814H684.343C684.588 53.4814 684.789 53.6825 684.789 53.9276V59.3067C684.789 59.5518 684.588 59.7529 684.343 59.7529ZM678.049 58.8668H683.904V54.3738H678.049V58.8668Z" fill="#232323"/>
<path d="M693.606 59.7529H686.866C686.621 59.7529 686.42 59.5518 686.42 59.3067V53.9276C686.42 53.6825 686.621 53.4814 686.866 53.4814H693.606C693.85 53.4814 694.051 53.6825 694.051 53.9276V59.3067C694.051 59.5518 693.85 59.7529 693.606 59.7529ZM687.312 58.8668H693.166V54.3738H687.312V58.8668Z" fill="#232323"/>
<path d="M665.806 66.9541H659.067C658.822 66.9541 658.621 66.753 658.621 66.5079V61.1288C658.621 60.8837 658.822 60.6826 659.067 60.6826H665.806C666.051 60.6826 666.252 60.8837 666.252 61.1288V66.5079C666.252 66.753 666.051 66.9541 665.806 66.9541ZM659.512 66.068H665.367V61.5749H659.512V66.068Z" fill="#232323"/>
<path d="M675.075 66.9541H668.335C668.091 66.9541 667.89 66.753 667.89 66.5079V61.1288C667.89 60.8837 668.091 60.6826 668.335 60.6826H675.075C675.32 60.6826 675.52 60.8837 675.52 61.1288V66.5079C675.52 66.753 675.32 66.9541 675.075 66.9541ZM668.781 66.068H674.636V61.5749H668.781V66.068Z" fill="#232323"/>
<path d="M684.343 66.9541H677.604C677.359 66.9541 677.158 66.753 677.158 66.5079V61.1288C677.158 60.8837 677.359 60.6826 677.604 60.6826H684.343C684.588 60.6826 684.789 60.8837 684.789 61.1288V66.5079C684.789 66.753 684.588 66.9541 684.343 66.9541ZM678.049 66.068H683.904V61.5749H678.049V66.068Z" fill="#232323"/>
<path d="M693.606 66.9541H686.866C686.621 66.9541 686.42 66.753 686.42 66.5079V61.1288C686.42 60.8837 686.621 60.6826 686.866 60.6826H693.606C693.85 60.6826 694.051 60.8837 694.051 61.1288V66.5079C694.051 66.753 693.85 66.9541 693.606 66.9541ZM687.312 66.068H693.166V61.5749H687.312V66.068Z" fill="#232323"/>
<path d="M665.806 74.1621H659.066C658.822 74.1621 658.621 73.961 658.621 73.7159V68.3368C658.621 68.0917 658.822 67.8906 659.066 67.8906H665.806C666.051 67.8906 666.252 68.0917 666.252 68.3368V73.7159C666.252 73.961 666.051 74.1621 665.806 74.1621ZM659.512 73.276H665.367V68.783H659.512V73.276Z" fill="#232323"/>
<path d="M675.075 74.1621H668.335C668.09 74.1621 667.889 73.961 667.889 73.7159V68.3368C667.889 68.0917 668.09 67.8906 668.335 67.8906H675.075C675.319 67.8906 675.52 68.0917 675.52 68.3368V73.7159C675.52 73.961 675.319 74.1621 675.075 74.1621ZM668.781 73.276H674.635V68.783H668.781V73.276Z" fill="#232323"/>
<path d="M684.343 74.1621H677.604C677.359 74.1621 677.158 73.961 677.158 73.7159V68.3368C677.158 68.0917 677.359 67.8906 677.604 67.8906H684.343C684.588 67.8906 684.789 68.0917 684.789 68.3368V73.7159C684.789 73.961 684.588 74.1621 684.343 74.1621ZM678.049 73.276H683.904V68.783H678.049V73.276Z" fill="#232323"/>
<path d="M693.606 74.1621H686.866C686.621 74.1621 686.42 73.961 686.42 73.7159V68.3368C686.42 68.0917 686.621 67.8906 686.866 67.8906H693.606C693.85 67.8906 694.051 68.0917 694.051 68.3368V73.7159C694.051 73.961 693.85 74.1621 693.606 74.1621ZM687.312 73.276H693.166V68.783H687.312V73.276Z" fill="#232323"/>
<path d="M665.806 81.3701H659.066C658.822 81.3701 658.621 81.169 658.621 80.9239V75.5448C658.621 75.2997 658.822 75.0986 659.066 75.0986H665.806C666.051 75.0986 666.252 75.2997 666.252 75.5448V80.9239C666.252 81.169 666.051 81.3701 665.806 81.3701ZM659.512 80.484H665.367V75.991H659.512V80.484Z" fill="#232323"/>
<path d="M675.075 81.3701H668.335C668.09 81.3701 667.889 81.169 667.889 80.9239V75.5448C667.889 75.2997 668.09 75.0986 668.335 75.0986H675.075C675.319 75.0986 675.52 75.2997 675.52 75.5448V80.9239C675.52 81.169 675.319 81.3701 675.075 81.3701ZM668.781 80.484H674.635V75.991H668.781V80.484Z" fill="#232323"/>
<path d="M684.343 81.3701H677.604C677.359 81.3701 677.158 81.169 677.158 80.9239V75.5448C677.158 75.2997 677.359 75.0986 677.604 75.0986H684.343C684.588 75.0986 684.789 75.2997 684.789 75.5448V80.9239C684.789 81.169 684.588 81.3701 684.343 81.3701ZM678.049 80.484H683.904V75.991H678.049V80.484Z" fill="#232323"/>
<path d="M693.606 81.3701H686.866C686.621 81.3701 686.42 81.169 686.42 80.9239V75.5448C686.42 75.2997 686.621 75.0986 686.866 75.0986H693.606C693.85 75.0986 694.051 75.2997 694.051 75.5448V80.9239C694.051 81.169 693.85 81.3701 693.606 81.3701ZM687.312 80.484H693.166V75.991H687.312V80.484Z" fill="#232323"/>
<path d="M665.806 88.5712H659.066C658.822 88.5712 658.621 88.3702 658.621 88.1251V82.746C658.621 82.5009 658.822 82.2998 659.066 82.2998H665.806C666.051 82.2998 666.252 82.5009 666.252 82.746V88.1251C666.252 88.3702 666.051 88.5712 665.806 88.5712ZM659.512 87.6852H665.367V83.1921H659.512V87.6852Z" fill="#232323"/>
<path d="M675.075 88.5712H668.335C668.09 88.5712 667.889 88.3702 667.889 88.1251V82.746C667.889 82.5009 668.09 82.2998 668.335 82.2998H675.075C675.319 82.2998 675.52 82.5009 675.52 82.746V88.1251C675.52 88.3702 675.319 88.5712 675.075 88.5712ZM668.781 87.6852H674.635V83.1921H668.781V87.6852Z" fill="#232323"/>
<path d="M684.343 88.5712H677.604C677.359 88.5712 677.158 88.3702 677.158 88.1251V82.746C677.158 82.5009 677.359 82.2998 677.604 82.2998H684.343C684.588 82.2998 684.789 82.5009 684.789 82.746V88.1251C684.789 88.3702 684.588 88.5712 684.343 88.5712ZM678.049 87.6852H683.904V83.1921H678.049V87.6852Z" fill="#232323"/>
<path d="M693.606 88.5712H686.866C686.621 88.5712 686.42 88.3702 686.42 88.1251V82.746C686.42 82.5009 686.621 82.2998 686.866 82.2998H693.606C693.85 82.2998 694.051 82.5009 694.051 82.746V88.1251C694.051 88.3702 693.85 88.5712 693.606 88.5712ZM687.312 87.6852H693.166V83.1921H687.312V87.6852Z" fill="#232323"/>
<path d="M665.806 95.7792H659.066C658.822 95.7792 658.621 95.5782 658.621 95.3331V89.954C658.621 89.7089 658.822 89.5078 659.066 89.5078H665.806C666.051 89.5078 666.252 89.7089 666.252 89.954V95.3331C666.252 95.5782 666.051 95.7792 665.806 95.7792ZM659.512 94.8932H665.367V90.4001H659.512V94.8932Z" fill="#232323"/>
<path d="M675.075 95.7792H668.335C668.09 95.7792 667.889 95.5782 667.889 95.3331V89.954C667.889 89.7089 668.09 89.5078 668.335 89.5078H675.075C675.319 89.5078 675.52 89.7089 675.52 89.954V95.3331C675.52 95.5782 675.319 95.7792 675.075 95.7792ZM668.781 94.8932H674.635V90.4001H668.781V94.8932Z" fill="#232323"/>
<path d="M684.343 95.7792H677.604C677.359 95.7792 677.158 95.5782 677.158 95.3331V89.954C677.158 89.7089 677.359 89.5078 677.604 89.5078H684.343C684.588 89.5078 684.789 89.7089 684.789 89.954V95.3331C684.789 95.5782 684.588 95.7792 684.343 95.7792ZM678.049 94.8932H683.904V90.4001H678.049V94.8932Z" fill="#232323"/>
<path d="M693.606 95.7792H686.866C686.621 95.7792 686.42 95.5782 686.42 95.3331V89.954C686.42 89.7089 686.621 89.5078 686.866 89.5078H693.606C693.85 89.5078 694.051 89.7089 694.051 89.954V95.3331C694.051 95.5782 693.85 95.7792 693.606 95.7792ZM687.312 94.8932H693.166V90.4001H687.312V94.8932Z" fill="#232323"/>
<path d="M693.605 42.3148H659.066C658.822 42.3148 658.621 42.1137 658.621 41.8686V30.0673C658.621 29.8222 658.822 29.6211 659.066 29.6211H693.605C693.85 29.6211 694.051 29.8222 694.051 30.0673V41.8686C694.051 42.1137 693.85 42.3148 693.605 42.3148ZM659.506 41.4287H693.16V30.5134H659.506V41.4287Z" fill="#232323"/>
<path d="M276.105 257.077H239.351C236.665 257.077 234.481 254.89 234.481 252.2V182.285C234.481 179.595 236.665 177.408 239.351 177.408H276.105C278.791 177.408 280.975 179.595 280.975 182.285V252.2C280.975 254.89 278.791 257.077 276.105 257.077ZM239.351 178.294C237.155 178.294 235.366 180.085 235.366 182.285V252.2C235.366 254.4 237.155 256.191 239.351 256.191H276.105C278.302 256.191 280.09 254.4 280.09 252.2V182.285C280.09 180.085 278.302 178.294 276.105 178.294H239.351Z" fill="#232323"/>
<path d="M247.007 205.811H240.267C240.023 205.811 239.822 205.61 239.822 205.365V199.986C239.822 199.741 240.023 199.54 240.267 199.54H247.007C247.252 199.54 247.452 199.741 247.452 199.986V205.365C247.452 205.61 247.252 205.811 247.007 205.811ZM240.713 204.925H246.568V200.432H240.713V204.925Z" fill="#232323"/>
<path d="M256.276 205.811H249.536C249.291 205.811 249.09 205.61 249.09 205.365V199.986C249.09 199.741 249.291 199.54 249.536 199.54H256.276C256.52 199.54 256.721 199.741 256.721 199.986V205.365C256.721 205.61 256.52 205.811 256.276 205.811ZM249.981 204.925H255.836V200.432H249.981V204.925Z" fill="#232323"/>
<path d="M265.544 205.811H258.804C258.56 205.811 258.359 205.61 258.359 205.365V199.986C258.359 199.741 258.56 199.54 258.804 199.54H265.544C265.789 199.54 265.99 199.741 265.99 199.986V205.365C265.99 205.61 265.789 205.811 265.544 205.811ZM259.25 204.925H265.105V200.432H259.25V204.925Z" fill="#232323"/>
<path d="M274.806 205.811H268.067C267.822 205.811 267.621 205.61 267.621 205.365V199.986C267.621 199.741 267.822 199.54 268.067 199.54H274.806C275.051 199.54 275.252 199.741 275.252 199.986V205.365C275.252 205.61 275.051 205.811 274.806 205.811ZM268.512 204.925H274.367V200.432H268.512V204.925Z" fill="#232323"/>
<path d="M247.007 213.014H240.267C240.023 213.014 239.822 212.813 239.822 212.567V207.188C239.822 206.943 240.023 206.742 240.267 206.742H247.007C247.252 206.742 247.452 206.943 247.452 207.188V212.567C247.452 212.813 247.252 213.014 247.007 213.014ZM240.713 212.128H246.568V207.635H240.713V212.128Z" fill="#232323"/>
<path d="M256.276 213.014H249.536C249.291 213.014 249.09 212.813 249.09 212.567V207.188C249.09 206.943 249.291 206.742 249.536 206.742H256.276C256.52 206.742 256.721 206.943 256.721 207.188V212.567C256.721 212.813 256.52 213.014 256.276 213.014ZM249.981 212.128H255.836V207.635H249.981V212.128Z" fill="#232323"/>
<path d="M265.544 213.014H258.804C258.56 213.014 258.359 212.813 258.359 212.567V207.188C258.359 206.943 258.56 206.742 258.804 206.742H265.544C265.789 206.742 265.99 206.943 265.99 207.188V212.567C265.99 212.813 265.789 213.014 265.544 213.014ZM259.25 212.128H265.105V207.635H259.25V212.128Z" fill="#232323"/>
<path d="M274.806 213.014H268.067C267.822 213.014 267.621 212.813 267.621 212.567V207.188C267.621 206.943 267.822 206.742 268.067 206.742H274.806C275.051 206.742 275.252 206.943 275.252 207.188V212.567C275.252 212.813 275.051 213.014 274.806 213.014ZM268.512 212.128H274.367V207.635H268.512V212.128Z" fill="#232323"/>
<path d="M247.007 220.221H240.267C240.023 220.221 239.822 220.02 239.822 219.774V214.395C239.822 214.15 240.023 213.949 240.267 213.949H247.007C247.252 213.949 247.452 214.15 247.452 214.395V219.774C247.452 220.02 247.252 220.221 247.007 220.221ZM240.713 219.335H246.568V214.842H240.713V219.335Z" fill="#232323"/>
<path d="M256.276 220.221H249.536C249.291 220.221 249.09 220.02 249.09 219.774V214.395C249.09 214.15 249.291 213.949 249.536 213.949H256.276C256.52 213.949 256.721 214.15 256.721 214.395V219.774C256.721 220.02 256.52 220.221 256.276 220.221ZM249.981 219.335H255.836V214.842H249.981V219.335Z" fill="#232323"/>
<path d="M265.544 220.221H258.804C258.56 220.221 258.359 220.02 258.359 219.774V214.395C258.359 214.15 258.56 213.949 258.804 213.949H265.544C265.789 213.949 265.99 214.15 265.99 214.395V219.774C265.99 220.02 265.789 220.221 265.544 220.221ZM259.25 219.335H265.105V214.842H259.25V219.335Z" fill="#232323"/>
<path d="M274.806 220.221H268.067C267.822 220.221 267.621 220.02 267.621 219.774V214.395C267.621 214.15 267.822 213.949 268.067 213.949H274.806C275.051 213.949 275.252 214.15 275.252 214.395V219.774C275.252 220.02 275.051 220.221 274.806 220.221ZM268.512 219.335H274.367V214.842H268.512V219.335Z" fill="#232323"/>
<path d="M247.007 227.429H240.267C240.023 227.429 239.822 227.228 239.822 226.983V221.603C239.822 221.358 240.023 221.157 240.267 221.157H247.007C247.252 221.157 247.452 221.358 247.452 221.603V226.983C247.452 227.228 247.252 227.429 247.007 227.429ZM240.713 226.543H246.568V222.05H240.713V226.543Z" fill="#232323"/>
<path d="M256.276 227.429H249.536C249.291 227.429 249.09 227.228 249.09 226.983V221.603C249.09 221.358 249.291 221.157 249.536 221.157H256.276C256.52 221.157 256.721 221.358 256.721 221.603V226.983C256.721 227.228 256.52 227.429 256.276 227.429ZM249.981 226.543H255.836V222.05H249.981V226.543Z" fill="#232323"/>
<path d="M265.544 227.429H258.804C258.56 227.429 258.359 227.228 258.359 226.983V221.603C258.359 221.358 258.56 221.157 258.804 221.157H265.544C265.789 221.157 265.99 221.358 265.99 221.603V226.983C265.99 227.228 265.789 227.429 265.544 227.429ZM259.25 226.543H265.105V222.05H259.25V226.543Z" fill="#232323"/>
<path d="M274.806 227.429H268.067C267.822 227.429 267.621 227.228 267.621 226.983V221.603C267.621 221.358 267.822 221.157 268.067 221.157H274.806C275.051 221.157 275.252 221.358 275.252 221.603V226.983C275.252 227.228 275.051 227.429 274.806 227.429ZM268.512 226.543H274.367V222.05H268.512V226.543Z" fill="#232323"/>
<path d="M247.007 234.63H240.267C240.023 234.63 239.822 234.429 239.822 234.184V228.805C239.822 228.559 240.023 228.358 240.267 228.358H247.007C247.252 228.358 247.452 228.559 247.452 228.805V234.184C247.452 234.429 247.252 234.63 247.007 234.63ZM240.713 233.744H246.568V229.251H240.713V233.744Z" fill="#232323"/>
<path d="M256.276 234.63H249.536C249.291 234.63 249.09 234.429 249.09 234.184V228.805C249.09 228.559 249.291 228.358 249.536 228.358H256.276C256.52 228.358 256.721 228.559 256.721 228.805V234.184C256.721 234.429 256.52 234.63 256.276 234.63ZM249.981 233.744H255.836V229.251H249.981V233.744Z" fill="#232323"/>
<path d="M265.544 234.63H258.804C258.56 234.63 258.359 234.429 258.359 234.184V228.805C258.359 228.559 258.56 228.358 258.804 228.358H265.544C265.789 228.358 265.99 228.559 265.99 228.805V234.184C265.99 234.429 265.789 234.63 265.544 234.63ZM259.25 233.744H265.105V229.251H259.25V233.744Z" fill="#232323"/>
<path d="M274.806 234.63H268.067C267.822 234.63 267.621 234.429 267.621 234.184V228.805C267.621 228.559 267.822 228.358 268.067 228.358H274.806C275.051 228.358 275.252 228.559 275.252 228.805V234.184C275.252 234.429 275.051 234.63 274.806 234.63ZM268.512 233.744H274.367V229.251H268.512V233.744Z" fill="#232323"/>
<path d="M247.007 241.838H240.267C240.023 241.838 239.822 241.637 239.822 241.392V236.013C239.822 235.767 240.023 235.566 240.267 235.566H247.007C247.252 235.566 247.452 235.767 247.452 236.013V241.392C247.452 241.637 247.252 241.838 247.007 241.838ZM240.713 240.952H246.568V236.459H240.713V240.952Z" fill="#232323"/>
<path d="M256.276 241.838H249.536C249.291 241.838 249.09 241.637 249.09 241.392V236.013C249.09 235.767 249.291 235.566 249.536 235.566H256.276C256.52 235.566 256.721 235.767 256.721 236.013V241.392C256.721 241.637 256.52 241.838 256.276 241.838ZM249.981 240.952H255.836V236.459H249.981V240.952Z" fill="#232323"/>
<path d="M265.544 241.838H258.804C258.56 241.838 258.359 241.637 258.359 241.392V236.013C258.359 235.767 258.56 235.566 258.804 235.566H265.544C265.789 235.566 265.99 235.767 265.99 236.013V241.392C265.99 241.637 265.789 241.838 265.544 241.838ZM259.25 240.952H265.105V236.459H259.25V240.952Z" fill="#232323"/>
<path d="M274.806 241.838H268.067C267.822 241.838 267.621 241.637 267.621 241.392V236.013C267.621 235.767 267.822 235.566 268.067 235.566H274.806C275.051 235.566 275.252 235.767 275.252 236.013V241.392C275.252 241.637 275.051 241.838 274.806 241.838ZM268.512 240.952H274.367V236.459H268.512V240.952Z" fill="#232323"/>
<path d="M247.007 249.046H240.267C240.023 249.046 239.822 248.845 239.822 248.6V243.221C239.822 242.975 240.023 242.774 240.267 242.774H247.007C247.252 242.774 247.452 242.975 247.452 243.221V248.6C247.452 248.845 247.252 249.046 247.007 249.046ZM240.713 248.16H246.568V243.667H240.713V248.16Z" fill="#232323"/>
<path d="M256.276 249.046H249.536C249.291 249.046 249.09 248.845 249.09 248.6V243.221C249.09 242.975 249.291 242.774 249.536 242.774H256.276C256.52 242.774 256.721 242.975 256.721 243.221V248.6C256.721 248.845 256.52 249.046 256.276 249.046ZM249.981 248.16H255.836V243.667H249.981V248.16Z" fill="#232323"/>
<path d="M265.544 249.046H258.804C258.56 249.046 258.359 248.845 258.359 248.6V243.221C258.359 242.975 258.56 242.774 258.804 242.774H265.544C265.789 242.774 265.99 242.975 265.99 243.221V248.6C265.99 248.845 265.789 249.046 265.544 249.046ZM259.25 248.16H265.105V243.667H259.25V248.16Z" fill="#232323"/>
<path d="M274.806 249.046H268.067C267.822 249.046 267.621 248.845 267.621 248.6V243.221C267.621 242.975 267.822 242.774 268.067 242.774H274.806C275.051 242.774 275.252 242.975 275.252 243.221V248.6C275.252 248.845 275.051 249.046 274.806 249.046ZM268.512 248.16H274.367V243.667H268.512V248.16Z" fill="#232323"/>
<path d="M274.806 195.581H240.267C240.023 195.581 239.822 195.38 239.822 195.135V183.334C239.822 183.089 240.023 182.888 240.267 182.888H274.806C275.051 182.888 275.252 183.089 275.252 183.334V195.135C275.252 195.38 275.051 195.581 274.806 195.581ZM240.707 194.695H274.361V183.78H240.707V194.695Z" fill="#232323"/>
<path d="M409.606 201.721H315.483C315.345 201.721 315.207 201.652 315.125 201.539C315.044 201.425 315.019 201.281 315.056 201.143C315.119 200.948 321.313 181.461 336.185 167.065C340.509 162.873 345.203 159.467 350.129 156.941C350.204 156.903 350.267 156.872 350.323 156.84C373.14 145.29 409.618 143.952 418.611 148.137C419.928 148.753 420.7 149.494 420.901 150.343C422.388 156.639 428.344 185.741 428.406 186.036C428.45 186.256 428.325 186.482 428.105 186.545C427.973 186.589 414.739 190.875 410.001 201.451C409.932 201.608 409.769 201.715 409.599 201.715L409.606 201.721ZM316.098 200.835H409.317C413.841 191.101 425.237 186.633 427.465 185.835C426.756 182.366 421.435 156.438 420.048 150.55C419.916 149.985 419.288 149.432 418.247 148.941C409.386 144.813 373.341 146.189 350.744 157.626C350.681 157.664 350.593 157.708 350.518 157.739C345.686 160.215 341.067 163.571 336.806 167.699C323.528 180.556 317.24 197.511 316.098 200.828V200.835Z" fill="#232323"/>
<path d="M412.982 176.157H344.362C344.211 176.157 344.079 176.082 343.991 175.962C343.91 175.837 343.891 175.686 343.948 175.548C346.715 168.755 356.203 162.383 369.977 158.053C385.051 153.315 400.582 152.448 406.098 156.023C413.823 161.032 416.289 169.917 415.04 174.14C414.525 175.893 413.528 176.151 412.982 176.151V176.157ZM345.039 175.271H412.982C413.678 175.271 414.036 174.41 414.193 173.895C415.159 170.621 413.603 161.955 405.621 156.771C400.387 153.378 384.856 154.314 370.247 158.901C357.151 163.017 348.026 168.956 345.039 175.271Z" fill="#232323"/>
<path d="M336.499 167.825C336.442 167.825 336.38 167.813 336.323 167.787C336.16 167.718 336.053 167.555 336.053 167.379V161.145C336.053 155.49 336.486 153.504 341.356 153.504C341.977 153.504 342.605 153.479 343.22 153.454C346.495 153.322 349.89 153.183 350.769 157.23C350.813 157.425 350.718 157.626 350.537 157.721C345.686 160.209 341.067 163.565 336.806 167.693C336.725 167.775 336.612 167.819 336.499 167.819V167.825ZM344.939 154.302C344.412 154.302 343.853 154.321 343.251 154.346C342.623 154.371 341.99 154.396 341.356 154.396C337.296 154.396 336.938 155.502 336.938 161.145V166.342C340.96 162.565 345.29 159.455 349.821 157.092C349.181 154.736 347.518 154.296 344.939 154.296V154.302Z" fill="#232323"/>
<path d="M878.688 115.228H784.565C784.427 115.228 784.289 115.159 784.208 115.045C784.126 114.932 784.101 114.788 784.139 114.65C784.201 114.455 790.395 94.968 805.268 80.5714C809.591 76.38 814.285 72.974 819.211 70.4479C819.286 70.4102 819.349 70.3787 819.406 70.3473C842.223 58.7973 878.701 57.4588 887.693 61.644C889.011 62.2598 889.783 63.0013 889.984 63.8497C891.471 70.1462 897.426 99.2474 897.489 99.5428C897.533 99.7627 897.401 99.9889 897.188 100.052C897.056 100.096 883.821 104.381 879.084 114.957C879.014 115.121 878.851 115.221 878.682 115.221L878.688 115.228ZM785.18 114.342H878.4C882.924 104.608 894.32 100.14 896.548 99.3417C895.838 95.8729 890.517 69.9451 889.13 64.057C888.998 63.4915 888.371 62.9385 887.329 62.4483C878.469 58.3197 842.423 59.6959 819.826 71.1328C819.763 71.1705 819.676 71.2145 819.6 71.2459C814.768 73.7218 810.15 77.0775 805.889 81.2061C792.61 94.0631 786.322 111.017 785.18 114.335V114.342Z" fill="#232323"/>
<path d="M882.058 89.6708H813.438C813.287 89.6708 813.155 89.5954 813.068 89.476C812.986 89.3566 812.967 89.1995 813.024 89.0613C815.791 82.2683 825.279 75.8963 839.053 71.5666C854.127 66.8285 869.658 65.9613 875.174 69.5369C882.899 74.5452 885.365 83.4308 884.116 87.6537C883.602 89.4069 882.604 89.6645 882.058 89.6645V89.6708ZM814.116 88.7848H882.058C882.754 88.7848 883.112 87.9239 883.269 87.4086C884.235 84.1346 882.679 75.469 874.697 70.2847C869.463 66.8913 853.932 67.8276 839.323 72.415C826.227 76.531 817.103 82.4694 814.116 88.7848Z" fill="#232323"/>
<path d="M805.581 81.3379C805.525 81.3379 805.462 81.3253 805.406 81.3002C805.242 81.2311 805.136 81.0677 805.136 80.8917V74.658C805.136 69.0024 805.569 67.0166 810.438 67.0166C811.06 67.0166 811.687 66.9915 812.302 66.9664C815.578 66.8344 818.973 66.6962 819.851 70.7431C819.895 70.9379 819.801 71.139 819.619 71.2332C814.768 73.7217 810.15 77.0773 805.889 81.2059C805.807 81.2876 805.694 81.3316 805.581 81.3316V81.3379ZM814.021 67.8147C813.494 67.8147 812.936 67.8336 812.333 67.8587C811.706 67.8838 811.072 67.909 810.438 67.909C806.378 67.909 806.02 69.015 806.02 74.658V79.8549C810.043 76.0782 814.373 72.9676 818.904 70.6048C818.264 68.2483 816.601 67.8084 814.021 67.8084V67.8147Z" fill="#232323"/>
<path d="M1203.2 103.458H1187.26C1184.57 103.458 1182.39 101.271 1182.39 98.5812V61.8764C1182.39 59.1868 1184.57 57 1187.26 57H1203.2C1205.88 57 1208.07 59.1868 1208.07 61.8764V98.5812C1208.07 101.271 1205.88 103.458 1203.2 103.458ZM1187.26 57.886C1185.06 57.886 1183.27 59.677 1183.27 61.8764V98.5812C1183.27 100.781 1185.06 102.572 1187.26 102.572H1203.2C1205.39 102.572 1207.18 100.781 1207.18 98.5812V61.8764C1207.18 59.677 1205.39 57.886 1203.2 57.886H1187.26Z" fill="#232323"/>
<path d="M1206.54 98.072H1183.91C1183.67 98.072 1183.47 97.8709 1183.47 97.6258V61.0341C1183.47 60.789 1183.67 60.5879 1183.91 60.5879H1206.54C1206.79 60.5879 1206.99 60.789 1206.99 61.0341V97.6258C1206.99 97.8709 1206.79 98.072 1206.54 98.072ZM1184.35 97.1859H1206.1V61.4802H1184.35V97.1859Z" fill="#232323"/>
<path d="M1196.83 60.2925H1193.62C1193.16 60.2925 1192.78 59.9154 1192.78 59.4504C1192.78 58.9854 1193.16 58.6084 1193.62 58.6084H1196.83C1197.3 58.6084 1197.68 58.9854 1197.68 59.4504C1197.68 59.9154 1197.3 60.2925 1196.83 60.2925Z" fill="#232323"/>
<path d="M1269.27 181.807V168.799C1269.27 168.68 1269.31 168.567 1269.4 168.485L1275.75 162.132C1275.83 162.05 1275.94 162 1276.06 162H1290.38C1290.62 162 1290.83 162.201 1290.83 162.446V188.405C1290.83 188.65 1290.62 188.852 1290.38 188.852H1276.21C1276.09 188.852 1275.98 188.801 1275.9 188.72L1269.4 182.121C1269.32 182.04 1269.28 181.927 1269.28 181.813L1269.27 181.807ZM1270.15 168.982V181.625L1276.39 187.959H1289.93V162.886H1276.24L1270.15 168.982Z" fill="#232323"/>
<path d="M1255.98 181.927V168.919C1255.98 168.674 1256.19 168.473 1256.43 168.473H1269.72C1269.96 168.473 1270.16 168.674 1270.16 168.919V181.927C1270.16 182.172 1269.96 182.373 1269.72 182.373H1256.43C1256.19 182.373 1255.98 182.172 1255.98 181.927ZM1256.87 169.365V181.487H1269.27V169.365H1256.87Z" fill="#232323"/>
<path d="M1252 178.408V172.802C1252 172.683 1252.05 172.57 1252.13 172.482L1256.12 168.598C1256.25 168.473 1256.44 168.435 1256.61 168.51C1256.77 168.586 1256.87 168.724 1256.87 168.931L1256.5 181.939C1256.5 182.115 1256.39 182.272 1256.22 182.335C1256.06 182.404 1255.87 182.367 1255.75 182.241L1252.13 178.722C1252.04 178.64 1252 178.521 1252 178.401V178.408ZM1252.88 172.991V178.219L1255.65 180.909L1255.95 170.006L1252.88 172.991Z" fill="#232323"/>
<path d="M1289.93 184.993V165.852C1289.93 165.607 1290.13 165.406 1290.38 165.406H1329.64C1342.78 165.406 1342.78 172.388 1342.78 175.743C1342.78 178.885 1342.78 185.433 1329.64 185.433H1290.38C1290.13 185.433 1289.93 185.232 1289.93 184.987V184.993ZM1290.82 166.299V184.554H1329.64C1341.89 184.554 1341.89 178.829 1341.89 175.75C1341.89 172.212 1341.89 166.299 1329.64 166.299H1290.82Z" fill="#232323"/>
<path d="M1289.93 178.734V172.117C1289.93 171.872 1290.13 171.671 1290.38 171.671H1324.29C1334.81 171.671 1335.7 173.663 1335.7 175.536C1335.7 177.295 1334.82 179.174 1324.29 179.174H1290.38C1290.13 179.174 1289.93 178.973 1289.93 178.728V178.734ZM1290.82 172.563V178.288H1324.28C1334.8 178.288 1334.8 176.359 1334.8 175.536C1334.8 174.568 1334.8 172.557 1324.28 172.557H1290.82V172.563Z" fill="#232323"/>
<path d="M1201.06 163.085H1190.27C1190.03 163.085 1189.83 162.884 1189.83 162.639V153.886C1189.83 153.641 1190.03 153.439 1190.27 153.439H1201.06C1201.3 153.439 1201.5 153.641 1201.5 153.886V162.639C1201.5 162.884 1201.3 163.085 1201.06 163.085ZM1190.71 162.199H1200.61V154.332H1190.71V162.199Z" fill="#232323"/>
<path d="M1198.13 165.706H1193.48C1193.38 165.706 1193.28 165.668 1193.2 165.606L1189.98 162.979C1189.84 162.859 1189.78 162.658 1189.84 162.482C1189.91 162.306 1190.07 162.206 1190.27 162.193L1201.06 162.438C1201.24 162.438 1201.41 162.564 1201.47 162.74C1201.53 162.916 1201.47 163.111 1201.33 163.23L1198.41 165.612C1198.33 165.675 1198.23 165.712 1198.13 165.712L1198.13 165.706ZM1193.64 164.82H1197.98L1199.84 163.299L1191.54 163.111L1193.64 164.82Z" fill="#232323"/>
<path d="M1201.06 154.332H1190.27C1190.11 154.332 1189.95 154.238 1189.88 154.093C1189.83 154.005 1185.4 145.352 1183.74 142.593C1182 139.678 1182 135.958 1182 130.798C1182 125.639 1186.61 117.841 1194.94 117.841C1203.27 117.841 1208.45 122.73 1208.45 131.251C1208.45 139.012 1207.29 141.613 1206.27 143.913C1206.12 144.24 1205.98 144.56 1205.84 144.9C1204.72 147.577 1201.48 154.037 1201.45 154.099C1201.38 154.25 1201.23 154.345 1201.06 154.345V154.332ZM1190.54 153.446H1200.79C1201.39 152.239 1204.05 146.904 1205.02 144.548C1205.17 144.208 1205.31 143.875 1205.46 143.542C1206.5 141.217 1207.57 138.811 1207.57 131.238C1207.57 123.163 1203.08 118.714 1194.95 118.714C1187.48 118.714 1182.89 125.746 1182.89 130.786C1182.89 135.826 1182.89 139.42 1184.51 142.122C1186.02 144.648 1189.81 152.007 1190.55 153.433L1190.54 153.446Z" fill="#232323"/>
<path d="M1194.07 154.332C1193.82 154.332 1193.62 154.131 1193.62 153.885V144.61L1190.77 136.699C1190.68 136.466 1190.8 136.215 1191.03 136.133C1191.26 136.051 1191.51 136.171 1191.59 136.397L1194.48 144.378C1194.49 144.428 1194.5 144.478 1194.5 144.529V153.879C1194.5 154.124 1194.3 154.325 1194.05 154.325L1194.07 154.332Z" fill="#232323"/>
<path d="M1197.32 154.332C1197.07 154.332 1196.87 154.131 1196.87 153.886V144.536C1196.87 144.485 1196.88 144.435 1196.9 144.385L1199.78 136.404C1199.86 136.172 1200.11 136.052 1200.34 136.14C1200.57 136.222 1200.69 136.48 1200.61 136.706L1197.75 144.617V153.893C1197.75 154.138 1197.55 154.339 1197.31 154.339L1197.32 154.332Z" fill="#232323"/>
<path d="M1246.06 98.2387H1235.27C1235.03 98.2387 1234.83 98.0376 1234.83 97.7926V89.039C1234.83 88.7939 1235.03 88.5928 1235.27 88.5928H1246.06C1246.3 88.5928 1246.5 88.7939 1246.5 89.039V97.7926C1246.5 98.0376 1246.3 98.2387 1246.06 98.2387ZM1235.71 97.3527H1245.61V89.4851H1235.71V97.3527Z" fill="#232323"/>
<path d="M1243.13 100.865H1238.48C1238.38 100.865 1238.28 100.828 1238.2 100.765L1234.98 98.138C1234.84 98.0186 1234.78 97.8176 1234.84 97.6416C1234.91 97.4657 1235.07 97.3651 1235.27 97.3525L1246.06 97.5976C1246.24 97.5976 1246.41 97.7233 1246.47 97.8992C1246.53 98.0752 1246.47 98.27 1246.33 98.3894L1243.41 100.771C1243.33 100.834 1243.23 100.872 1243.13 100.872L1243.13 100.865ZM1238.64 99.9792H1242.98L1244.84 98.4585L1236.54 98.27L1238.64 99.9792Z" fill="#232323"/>
<path d="M1246.06 89.4912H1235.27C1235.11 89.4912 1234.95 89.3969 1234.88 89.2524C1234.83 89.1644 1230.4 80.5114 1228.74 77.7527C1227 74.8369 1227 71.1168 1227 65.9576C1227 60.7984 1231.61 53 1239.94 53C1248.27 53 1253.45 57.889 1253.45 66.4101C1253.45 74.1708 1252.29 76.7724 1251.27 79.0723C1251.12 79.3991 1250.98 79.7196 1250.84 80.0589C1249.72 82.7359 1246.48 89.1959 1246.45 89.2587C1246.38 89.4095 1246.23 89.5038 1246.06 89.5038V89.4912ZM1235.54 88.6052H1245.79C1246.39 87.3986 1249.05 82.0635 1250.02 79.707C1250.17 79.3677 1250.31 79.0346 1250.46 78.7016C1251.5 76.3765 1252.57 73.9697 1252.57 66.3975C1252.57 58.3226 1248.08 53.8735 1239.95 53.8735C1232.48 53.8735 1227.89 60.9053 1227.89 65.9451C1227.89 70.9848 1227.89 74.5793 1229.51 77.2814C1231.02 79.8076 1234.81 87.1661 1235.55 88.5926L1235.54 88.6052Z" fill="#232323"/>
<path d="M1239.06 89.4908C1238.82 89.4908 1238.62 89.2897 1238.62 89.0446V79.7695L1235.76 71.8579C1235.68 71.6254 1235.8 71.374 1236.02 71.2923C1236.26 71.2106 1236.51 71.3301 1236.59 71.5563L1239.47 79.537C1239.49 79.5873 1239.49 79.6375 1239.49 79.6878V89.0384C1239.49 89.2835 1239.29 89.4845 1239.05 89.4845L1239.06 89.4908Z" fill="#232323"/>
<path d="M1242.32 89.4917C1242.07 89.4917 1241.87 89.2906 1241.87 89.0455V79.6949C1241.87 79.6447 1241.88 79.5943 1241.9 79.5441L1244.78 71.5634C1244.86 71.3309 1245.11 71.2115 1245.34 71.2995C1245.57 71.3812 1245.69 71.6388 1245.61 71.865L1242.75 79.7766V89.0518C1242.75 89.2969 1242.55 89.498 1242.31 89.498L1242.32 89.4917Z" fill="#232323"/>
<path d="M1264.7 218L1281.3 218C1281.68 218 1282 218.201 1282 218.446L1282 247.004C1282 247.249 1281.68 247.45 1281.3 247.45L1264.7 247.45C1264.32 247.45 1264 247.249 1264 247.004L1264 218.446C1264 218.201 1264.32 218 1264.7 218ZM1280.6 218.885L1265.39 218.885L1265.39 246.559L1280.6 246.559L1280.6 218.885Z" fill="#232323"/>
<path d="M1267.83 256.298L1277.82 256.298C1278.21 256.298 1278.52 256.499 1278.52 256.743L1278.52 258.18C1278.52 258.425 1278.21 258.626 1277.82 258.626L1267.83 258.626C1267.45 258.626 1267.13 258.425 1267.13 258.18L1267.13 256.743C1267.13 256.499 1267.45 256.298 1267.83 256.298ZM1277.13 257.183L1268.53 257.183L1268.53 257.735L1277.13 257.735L1277.13 257.183Z" fill="#232323"/>
<path d="M1264.7 246.559L1281.3 246.559C1281.68 246.559 1282 246.759 1282 247.004L1282 256.743C1282 256.988 1281.68 257.189 1281.3 257.189L1264.7 257.189C1264.32 257.189 1264 256.988 1264 256.743L1264 247.004C1264 246.759 1264.32 246.559 1264.7 246.559ZM1280.6 247.443L1265.39 247.443L1265.39 256.298L1280.6 256.298L1280.6 247.443Z" fill="#232323"/>
<path d="M1231.62 280.669H1194.87C1192.18 280.669 1190 278.482 1190 275.792V205.876C1190 203.187 1192.18 201 1194.87 201H1231.62C1234.31 201 1236.49 203.187 1236.49 205.876V275.792C1236.49 278.482 1234.31 280.669 1231.62 280.669ZM1194.87 201.886C1192.67 201.886 1190.88 203.677 1190.88 205.876V275.792C1190.88 277.992 1192.67 279.783 1194.87 279.783H1231.62C1233.82 279.783 1235.61 277.992 1235.61 275.792V205.876C1235.61 203.677 1233.82 201.886 1231.62 201.886H1194.87Z" fill="#232323"/>
<path d="M1202.53 229.403H1195.79C1195.55 229.403 1195.35 229.202 1195.35 228.957V223.578C1195.35 223.333 1195.55 223.132 1195.79 223.132H1202.53C1202.78 223.132 1202.98 223.333 1202.98 223.578V228.957C1202.98 229.202 1202.78 229.403 1202.53 229.403ZM1196.24 228.517H1202.09V224.024H1196.24V228.517Z" fill="#232323"/>
<path d="M1211.8 229.403H1205.06C1204.82 229.403 1204.62 229.202 1204.62 228.957V223.578C1204.62 223.333 1204.82 223.132 1205.06 223.132H1211.8C1212.05 223.132 1212.25 223.333 1212.25 223.578V228.957C1212.25 229.202 1212.05 229.403 1211.8 229.403ZM1205.51 228.517H1211.36V224.024H1205.51V228.517Z" fill="#232323"/>
<path d="M1221.07 229.403H1214.33C1214.08 229.403 1213.88 229.202 1213.88 228.957V223.578C1213.88 223.333 1214.08 223.132 1214.33 223.132H1221.07C1221.31 223.132 1221.51 223.333 1221.51 223.578V228.957C1221.51 229.202 1221.31 229.403 1221.07 229.403ZM1214.77 228.517H1220.63V224.024H1214.77V228.517Z" fill="#232323"/>
<path d="M1230.33 229.403H1223.59C1223.35 229.403 1223.15 229.202 1223.15 228.957V223.578C1223.15 223.333 1223.35 223.132 1223.59 223.132H1230.33C1230.58 223.132 1230.78 223.333 1230.78 223.578V228.957C1230.78 229.202 1230.58 229.403 1230.33 229.403ZM1224.04 228.517H1229.89V224.024H1224.04V228.517Z" fill="#232323"/>
<path d="M1202.53 236.605H1195.79C1195.55 236.605 1195.35 236.404 1195.35 236.159V230.78C1195.35 230.535 1195.55 230.334 1195.79 230.334H1202.53C1202.78 230.334 1202.98 230.535 1202.98 230.78V236.159C1202.98 236.404 1202.78 236.605 1202.53 236.605ZM1196.24 235.719H1202.09V231.226H1196.24V235.719Z" fill="#232323"/>
<path d="M1211.8 236.605H1205.06C1204.82 236.605 1204.62 236.404 1204.62 236.159V230.78C1204.62 230.535 1204.82 230.334 1205.06 230.334H1211.8C1212.05 230.334 1212.25 230.535 1212.25 230.78V236.159C1212.25 236.404 1212.05 236.605 1211.8 236.605ZM1205.51 235.719H1211.36V231.226H1205.51V235.719Z" fill="#232323"/>
<path d="M1221.07 236.605H1214.33C1214.08 236.605 1213.88 236.404 1213.88 236.159V230.78C1213.88 230.535 1214.08 230.334 1214.33 230.334H1221.07C1221.31 230.334 1221.51 230.535 1221.51 230.78V236.159C1221.51 236.404 1221.31 236.605 1221.07 236.605ZM1214.77 235.719H1220.63V231.226H1214.77V235.719Z" fill="#232323"/>
<path d="M1230.33 236.605H1223.59C1223.35 236.605 1223.15 236.404 1223.15 236.159V230.78C1223.15 230.535 1223.35 230.334 1223.59 230.334H1230.33C1230.58 230.334 1230.78 230.535 1230.78 230.78V236.159C1230.78 236.404 1230.58 236.605 1230.33 236.605ZM1224.04 235.719H1229.89V231.226H1224.04V235.719Z" fill="#232323"/>
<path d="M1202.53 243.812H1195.79C1195.55 243.812 1195.35 243.611 1195.35 243.366V237.987C1195.35 237.742 1195.55 237.541 1195.79 237.541H1202.53C1202.78 237.541 1202.98 237.742 1202.98 237.987V243.366C1202.98 243.611 1202.78 243.812 1202.53 243.812ZM1196.24 242.926H1202.09V238.433H1196.24V242.926Z" fill="#232323"/>
<path d="M1211.8 243.812H1205.06C1204.82 243.812 1204.62 243.611 1204.62 243.366V237.987C1204.62 237.742 1204.82 237.541 1205.06 237.541H1211.8C1212.05 237.541 1212.25 237.742 1212.25 237.987V243.366C1212.25 243.611 1212.05 243.812 1211.8 243.812ZM1205.51 242.926H1211.36V238.433H1205.51V242.926Z" fill="#232323"/>
<path d="M1221.07 243.812H1214.33C1214.08 243.812 1213.88 243.611 1213.88 243.366V237.987C1213.88 237.742 1214.08 237.541 1214.33 237.541H1221.07C1221.31 237.541 1221.51 237.742 1221.51 237.987V243.366C1221.51 243.611 1221.31 243.812 1221.07 243.812ZM1214.77 242.926H1220.63V238.433H1214.77V242.926Z" fill="#232323"/>
<path d="M1230.33 243.812H1223.59C1223.35 243.812 1223.15 243.611 1223.15 243.366V237.987C1223.15 237.742 1223.35 237.541 1223.59 237.541H1230.33C1230.58 237.541 1230.78 237.742 1230.78 237.987V243.366C1230.78 243.611 1230.58 243.812 1230.33 243.812ZM1224.04 242.926H1229.89V238.433H1224.04V242.926Z" fill="#232323"/>
<path d="M1202.53 251.02H1195.79C1195.55 251.02 1195.35 250.819 1195.35 250.574V245.195C1195.35 244.95 1195.55 244.749 1195.79 244.749H1202.53C1202.78 244.749 1202.98 244.95 1202.98 245.195V250.574C1202.98 250.819 1202.78 251.02 1202.53 251.02ZM1196.24 250.134H1202.09V245.641H1196.24V250.134Z" fill="#232323"/>
<path d="M1211.8 251.02H1205.06C1204.82 251.02 1204.62 250.819 1204.62 250.574V245.195C1204.62 244.95 1204.82 244.749 1205.06 244.749H1211.8C1212.05 244.749 1212.25 244.95 1212.25 245.195V250.574C1212.25 250.819 1212.05 251.02 1211.8 251.02ZM1205.51 250.134H1211.36V245.641H1205.51V250.134Z" fill="#232323"/>
<path d="M1221.07 251.02H1214.33C1214.08 251.02 1213.88 250.819 1213.88 250.574V245.195C1213.88 244.95 1214.08 244.749 1214.33 244.749H1221.07C1221.31 244.749 1221.51 244.95 1221.51 245.195V250.574C1221.51 250.819 1221.31 251.02 1221.07 251.02ZM1214.77 250.134H1220.63V245.641H1214.77V250.134Z" fill="#232323"/>
<path d="M1230.33 251.02H1223.59C1223.35 251.02 1223.15 250.819 1223.15 250.574V245.195C1223.15 244.95 1223.35 244.749 1223.59 244.749H1230.33C1230.58 244.749 1230.78 244.95 1230.78 245.195V250.574C1230.78 250.819 1230.58 251.02 1230.33 251.02ZM1224.04 250.134H1229.89V245.641H1224.04V250.134Z" fill="#232323"/>
<path d="M1202.53 258.222H1195.79C1195.55 258.222 1195.35 258.021 1195.35 257.775V252.396C1195.35 252.151 1195.55 251.95 1195.79 251.95H1202.53C1202.78 251.95 1202.98 252.151 1202.98 252.396V257.775C1202.98 258.021 1202.78 258.222 1202.53 258.222ZM1196.24 257.336H1202.09V252.843H1196.24V257.336Z" fill="#232323"/>
<path d="M1211.8 258.222H1205.06C1204.82 258.222 1204.62 258.021 1204.62 257.775V252.396C1204.62 252.151 1204.82 251.95 1205.06 251.95H1211.8C1212.05 251.95 1212.25 252.151 1212.25 252.396V257.775C1212.25 258.021 1212.05 258.222 1211.8 258.222ZM1205.51 257.336H1211.36V252.843H1205.51V257.336Z" fill="#232323"/>
<path d="M1221.07 258.222H1214.33C1214.08 258.222 1213.88 258.021 1213.88 257.775V252.396C1213.88 252.151 1214.08 251.95 1214.33 251.95H1221.07C1221.31 251.95 1221.51 252.151 1221.51 252.396V257.775C1221.51 258.021 1221.31 258.222 1221.07 258.222ZM1214.77 257.336H1220.63V252.843H1214.77V257.336Z" fill="#232323"/>
<path d="M1230.33 258.222H1223.59C1223.35 258.222 1223.15 258.021 1223.15 257.775V252.396C1223.15 252.151 1223.35 251.95 1223.59 251.95H1230.33C1230.58 251.95 1230.78 252.151 1230.78 252.396V257.775C1230.78 258.021 1230.58 258.222 1230.33 258.222ZM1224.04 257.336H1229.89V252.843H1224.04V257.336Z" fill="#232323"/>
<path d="M1202.53 265.43H1195.79C1195.55 265.43 1195.35 265.229 1195.35 264.983V259.604C1195.35 259.359 1195.55 259.158 1195.79 259.158H1202.53C1202.78 259.158 1202.98 259.359 1202.98 259.604V264.983C1202.98 265.229 1202.78 265.43 1202.53 265.43ZM1196.24 264.544H1202.09V260.051H1196.24V264.544Z" fill="#232323"/>
<path d="M1211.8 265.43H1205.06C1204.82 265.43 1204.62 265.229 1204.62 264.983V259.604C1204.62 259.359 1204.82 259.158 1205.06 259.158H1211.8C1212.05 259.158 1212.25 259.359 1212.25 259.604V264.983C1212.25 265.229 1212.05 265.43 1211.8 265.43ZM1205.51 264.544H1211.36V260.051H1205.51V264.544Z" fill="#232323"/>
<path d="M1221.07 265.43H1214.33C1214.08 265.43 1213.88 265.229 1213.88 264.983V259.604C1213.88 259.359 1214.08 259.158 1214.33 259.158H1221.07C1221.31 259.158 1221.51 259.359 1221.51 259.604V264.983C1221.51 265.229 1221.31 265.43 1221.07 265.43ZM1214.77 264.544H1220.63V260.051H1214.77V264.544Z" fill="#232323"/>
<path d="M1230.33 265.43H1223.59C1223.35 265.43 1223.15 265.229 1223.15 264.983V259.604C1223.15 259.359 1223.35 259.158 1223.59 259.158H1230.33C1230.58 259.158 1230.78 259.359 1230.78 259.604V264.983C1230.78 265.229 1230.58 265.43 1230.33 265.43ZM1224.04 264.544H1229.89V260.051H1224.04V264.544Z" fill="#232323"/>
<path d="M1202.53 272.638H1195.79C1195.55 272.638 1195.35 272.437 1195.35 272.191V266.812C1195.35 266.567 1195.55 266.366 1195.79 266.366H1202.53C1202.78 266.366 1202.98 266.567 1202.98 266.812V272.191C1202.98 272.437 1202.78 272.638 1202.53 272.638ZM1196.24 271.752H1202.09V267.259H1196.24V271.752Z" fill="#232323"/>
<path d="M1211.8 272.638H1205.06C1204.82 272.638 1204.62 272.437 1204.62 272.191V266.812C1204.62 266.567 1204.82 266.366 1205.06 266.366H1211.8C1212.05 266.366 1212.25 266.567 1212.25 266.812V272.191C1212.25 272.437 1212.05 272.638 1211.8 272.638ZM1205.51 271.752H1211.36V267.259H1205.51V271.752Z" fill="#232323"/>
<path d="M1221.07 272.638H1214.33C1214.08 272.638 1213.88 272.437 1213.88 272.191V266.812C1213.88 266.567 1214.08 266.366 1214.33 266.366H1221.07C1221.31 266.366 1221.51 266.567 1221.51 266.812V272.191C1221.51 272.437 1221.31 272.638 1221.07 272.638ZM1214.77 271.752H1220.63V267.259H1214.77V271.752Z" fill="#232323"/>
<path d="M1230.33 272.638H1223.59C1223.35 272.638 1223.15 272.437 1223.15 272.191V266.812C1223.15 266.567 1223.35 266.366 1223.59 266.366H1230.33C1230.58 266.366 1230.78 266.567 1230.78 266.812V272.191C1230.78 272.437 1230.58 272.638 1230.33 272.638ZM1224.04 271.752H1229.89V267.259H1224.04V271.752Z" fill="#232323"/>
<path d="M1230.33 219.173H1195.79C1195.55 219.173 1195.35 218.972 1195.35 218.727V206.926C1195.35 206.681 1195.55 206.479 1195.79 206.479H1230.33C1230.58 206.479 1230.78 206.681 1230.78 206.926V218.727C1230.78 218.972 1230.58 219.173 1230.33 219.173ZM1196.23 218.287H1229.89V207.372H1196.23V218.287Z" fill="#232323"/>
<path d="M116.381 108.032H31.8218C29.1359 108.032 26.9521 105.846 26.9521 103.156V35.4584C26.9521 32.7689 29.1359 30.582 31.8218 30.582H116.381C119.067 30.582 121.251 32.7689 121.251 35.4584V103.156C121.251 105.846 119.067 108.032 116.381 108.032ZM31.8218 31.4618C29.6254 31.4618 27.837 33.2527 27.837 35.4521V103.15C27.837 105.349 29.6254 107.14 31.8218 107.14H116.381C118.577 107.14 120.366 105.349 120.366 103.15V35.4584C120.366 33.259 118.577 31.4681 116.381 31.4681H31.8218V31.4618Z" fill="#232323"/>
<path d="M80.3673 81.3322C80.2731 81.3322 80.179 81.3008 80.0974 81.2442C79.928 81.1122 79.8715 80.8797 79.9719 80.6849L92.8237 56.0579L73.9728 50.4966C73.772 50.44 73.6402 50.2515 73.659 50.0441C73.6716 49.8368 73.8284 49.6671 74.0355 49.6357L96.1496 46.2486L95.8735 34.1016C95.8735 33.9005 95.999 33.7246 96.1872 33.668C96.3755 33.6115 96.5826 33.6869 96.6892 33.8565L102.306 42.8175L106.767 36.1439C106.868 35.9931 107.043 35.9177 107.219 35.9554C107.395 35.9931 107.533 36.1314 107.564 36.3073L108.719 42.1891L113.846 30.8465C113.915 30.6894 114.078 30.5889 114.247 30.5889H117.95C118.082 30.5889 118.213 30.6517 118.295 30.7523C118.377 30.8591 118.408 30.9973 118.383 31.1293L115 46.192L118.628 53.3244C118.697 53.4626 118.69 53.626 118.609 53.758C118.527 53.8899 118.383 53.9716 118.232 53.9716H114.731L116.105 68.3055C116.124 68.5003 116.011 68.6888 115.829 68.7579C115.647 68.827 115.433 68.7767 115.314 68.6197L109.02 60.5447L104.96 75.4692C104.904 75.6829 104.703 75.8211 104.477 75.7897C104.257 75.7583 104.094 75.5698 104.094 75.3498V59.1497L80.6497 81.2254C80.5618 81.307 80.4551 81.3448 80.3484 81.3448L80.3673 81.3322ZM76.1377 50.2075L93.5955 55.3541C93.721 55.3918 93.8277 55.4861 93.8779 55.6055C93.9281 55.7249 93.9219 55.8694 93.8654 55.9825L81.98 78.762L104.263 57.7797C104.395 57.6603 104.584 57.6289 104.74 57.6981C104.904 57.7672 105.01 57.9306 105.01 58.1065V72.0193L108.43 59.445C108.474 59.2816 108.606 59.1622 108.769 59.1245C108.939 59.0931 109.102 59.1559 109.208 59.2879L115.107 66.8601L113.827 53.5569C113.814 53.4312 113.858 53.3118 113.94 53.2176C114.022 53.1233 114.141 53.073 114.266 53.073H117.529L114.153 46.4434C114.109 46.3491 114.091 46.2486 114.116 46.1418L117.41 31.4623H114.549L108.97 43.8041C108.888 43.9801 108.713 44.0869 108.518 44.0618C108.33 44.0366 108.173 43.8984 108.135 43.7099L106.918 37.5201L102.67 43.8732C102.588 43.9989 102.437 44.0743 102.293 44.0681C102.142 44.0681 102.004 43.9864 101.923 43.8607L96.7959 35.6852L97.0469 46.6131C97.0469 46.833 96.8901 47.0278 96.6704 47.0592L76.1377 50.2012V50.2075Z" fill="#232323"/>
<path d="M145.624 120.028H25.7724C23.0866 120.028 20.9028 117.841 20.9028 115.152V28.6274C20.9028 25.9378 23.0866 23.751 25.7724 23.751H145.624C148.31 23.751 150.493 25.9378 150.493 28.6274V115.152C150.493 117.841 148.31 120.028 145.624 120.028ZM25.7724 24.637C23.5761 24.637 21.7876 26.428 21.7876 28.6274V115.152C21.7876 117.351 23.5761 119.142 25.7724 119.142H145.624C147.82 119.142 149.609 117.351 149.609 115.152V28.6274C149.609 26.428 147.82 24.637 145.624 24.637H25.7724Z" fill="#232323"/>
<path d="M137.817 64.861C134.623 64.861 132.025 62.2594 132.025 59.0609C132.025 55.8623 134.623 53.2607 137.817 53.2607C141.012 53.2607 143.61 55.8623 143.61 59.0609C143.61 62.2594 141.012 64.861 137.817 64.861ZM137.817 54.1468C135.113 54.1468 132.91 56.3525 132.91 59.0609C132.91 61.7693 135.113 63.975 137.817 63.975C140.522 63.975 142.725 61.7693 142.725 59.0609C142.725 56.3525 140.522 54.1468 137.817 54.1468Z" fill="#232323"/>
<path d="M137.817 47.1344C134.623 47.1344 132.025 44.5329 132.025 41.3343C132.025 38.1358 134.623 35.5342 137.817 35.5342C141.012 35.5342 143.61 38.1358 143.61 41.3343C143.61 44.5329 141.012 47.1344 137.817 47.1344ZM137.817 36.4202C135.113 36.4202 132.91 38.6259 132.91 41.3343C132.91 44.0427 135.113 46.2484 137.817 46.2484C140.522 46.2484 142.725 44.0427 142.725 41.3343C142.725 38.6259 140.522 36.4202 137.817 36.4202Z" fill="#232323"/>
<path d="M118.251 115.774H102.651C102.406 115.774 102.205 115.573 102.205 115.328V110.684C102.205 110.439 102.406 110.238 102.651 110.238H118.251C118.496 110.238 118.696 110.439 118.696 110.684V115.328C118.696 115.573 118.496 115.774 118.251 115.774ZM103.096 114.888H117.812V111.131H103.096V114.888Z" fill="#232323"/>
<path d="M126.346 119.677C126.101 119.677 125.901 119.476 125.901 119.231V24.1913C125.901 23.9462 126.101 23.7451 126.346 23.7451C126.591 23.7451 126.792 23.9462 126.792 24.1913V119.231C126.792 119.476 126.591 119.677 126.346 119.677Z" fill="#232323"/>
</g>
</svg>
