<svg width="59" height="59" viewBox="0 0 59 59" fill="none" xmlns="http://www.w3.org/2000/svg">
<g id="noun-challenge-5427261 1">
<path id="Vector" fill-rule="evenodd" clip-rule="evenodd" d="M27.3232 36.1111H23.8736V39.0445H27.3232C28.0288 39.0445 28.4768 38.6778 28.6672 38.2111C28.7456 38.0222 28.7904 37.8 28.7904 37.5778C28.7904 37.3556 28.7456 37.1445 28.6672 36.9445C28.4768 36.4778 28.0288 36.1111 27.3232 36.1111ZM23.8736 43.5778H27.3008H27.7376C28.4432 43.5778 28.8912 43.2111 29.0816 42.7445C29.16 42.5556 29.2048 42.3334 29.2048 42.1111C29.2048 41.8889 29.16 41.6778 29.0816 41.4778C28.8912 41.0111 28.4432 40.6445 27.7376 40.6445H27.3344H23.8848V43.5778H23.8736ZM19.976 52.6556H25.4416C26.1472 52.6556 26.5952 52.2889 26.7856 51.8222C26.864 51.6334 26.9088 51.4111 26.9088 51.1889C26.9088 50.9667 26.864 50.7556 26.7856 50.5556C26.5952 50.0889 26.1472 49.7222 25.4416 49.7222H19.976C19.2704 49.7222 18.8224 50.0889 18.632 50.5556C18.5536 50.7445 18.5088 50.9667 18.5088 51.1889C18.5088 51.4111 18.5536 51.6222 18.632 51.8222C18.8224 52.2889 19.2704 52.6556 19.976 52.6556ZM5.9536 38.6445H2.0784C2.056 38.6445 2.0448 38.6556 2.0224 38.6667C2.0112 38.6778 2 38.7 2 38.7222V51.8334C2 51.8556 2.0112 51.8667 2.0224 51.8889C2.0336 51.9 2.056 51.9111 2.0784 51.9111H5.9648C5.9872 51.9111 5.9984 51.9 6.0208 51.8889C6.032 51.8778 6.0432 51.8556 6.0432 51.8334V38.7222C6.0432 38.7 6.032 38.6889 6.0208 38.6667C5.9984 38.6445 5.976 38.6445 5.9536 38.6445ZM23.8512 45.1778C23.7616 46.1556 23.2912 46.8111 22.6304 47.1778C21.6896 47.7222 20.5024 47.5889 19.5504 47.1556C18.8112 46.8222 18.128 46.2889 17.6352 45.5778C17.4896 45.7334 17.3888 45.9111 17.3216 46.1111C17.2432 46.3556 17.2208 46.6222 17.2544 46.8778C17.288 47.1334 17.3776 47.3667 17.5232 47.5667C17.7472 47.8889 18.1392 48.1 18.6992 48.1H19.9536H25.4192H27.2784C27.984 48.1 28.432 47.7334 28.6224 47.2667C28.7008 47.0778 28.7456 46.8556 28.7456 46.6334C28.7456 46.4111 28.7008 46.2 28.6224 46C28.432 45.5334 27.984 45.1667 27.2784 45.1667H23.8512V45.1778ZM15.1488 43.4445C15.2608 43.6778 15.3952 43.9111 15.5632 44.1111C15.7648 44.3556 16 44.5667 16.2688 44.7334C16.056 45.0111 15.8992 45.3222 15.7984 45.6445C15.6416 46.1222 15.608 46.6222 15.6752 47.1111C15.7424 47.6111 15.9328 48.0889 16.2352 48.5111C16.5264 48.9111 16.9184 49.2445 17.4 49.4556C17.2992 49.6111 17.2096 49.7889 17.1424 49.9556C16.9856 50.3445 16.9072 50.7667 16.9072 51.1778C16.9072 51.5889 16.9856 52.0111 17.1424 52.4C17.176 52.4778 17.2096 52.5667 17.2544 52.6445H14.3872C13.1664 52.6445 12.1024 52.4889 10.9824 52.1556C9.9632 51.8556 8.8992 51.4 7.656 50.7889V39.8111C10.8032 39.3445 12.1136 37.6445 13.3792 36.0111C14.488 34.5778 15.5408 33.2111 18.1616 33.2111C19.8976 33.2111 20.9728 33.3778 21.5664 33.8334C22.0816 34.2222 22.272 34.9445 22.272 36.0889C22.272 36.1778 22.272 36.0556 22.272 36.1667V39.8445V44.3778C22.272 44.8667 22.328 45.5111 21.8352 45.8C21.3648 46.0556 20.6704 45.9 20.2336 45.7C19.3488 45.3111 18.576 44.4556 18.576 43.3334V37.2222C18.576 36.7778 18.2176 36.4222 17.7696 36.4222C17.3216 36.4222 16.9632 36.7778 16.9632 37.2222V38.1556C15.888 40.4778 14.264 42.3889 12.1136 43.8889C11.7552 44.1445 11.6656 44.6334 11.912 45C12.1696 45.3556 12.6624 45.4445 13.032 45.2C13.7824 44.6667 14.4992 44.0778 15.1488 43.4445ZM16.9408 41.3556C16.7952 41.5667 16.6384 41.7667 16.4816 41.9667C16.4816 41.9778 16.4816 41.9889 16.4816 42C16.4816 42.0556 16.4704 42.0889 16.4704 42.1111C16.4704 42.4778 16.5824 42.8445 16.8064 43.1222C16.8512 43.1667 16.8848 43.2111 16.9408 43.2556V41.3556ZM36.1264 36.1111H32.6768C31.9712 36.1111 31.5232 36.4778 31.3328 36.9445C31.2544 37.1334 31.2096 37.3556 31.2096 37.5778C31.2096 37.8 31.2544 38.0111 31.3328 38.2111C31.5232 38.6778 31.9712 39.0445 32.6768 39.0445H36.1264V36.1111ZM32.2736 43.5778H32.7104H36.1376V40.6445H32.688H32.2848C31.5792 40.6445 31.1312 41.0111 30.9408 41.4778C30.8624 41.6667 30.8176 41.8889 30.8176 42.1111C30.8176 42.3334 30.8624 42.5445 30.9408 42.7445C31.12 43.2111 31.5568 43.5778 32.2736 43.5778ZM30 39.9778C30.112 39.8556 30.224 39.7556 30.3584 39.6556C30.224 39.5 30.1008 39.3222 30 39.1445C29.8992 39.3222 29.776 39.5 29.6416 39.6556C29.776 39.7445 29.888 39.8556 30 39.9778ZM30 45.1334C30.1008 44.9334 30.224 44.7556 30.3696 44.5889C30.2352 44.4889 30.112 44.3778 30 44.2556C29.888 44.3778 29.7648 44.4889 29.6304 44.5889C29.776 44.7556 29.8992 44.9334 30 45.1334ZM34.5584 52.6556H40.024C40.7296 52.6556 41.1776 52.2889 41.368 51.8222C41.4464 51.6334 41.4912 51.4111 41.4912 51.1889C41.4912 50.9667 41.4464 50.7556 41.368 50.5556C41.1776 50.0889 40.7296 49.7222 40.024 49.7222H34.5584C33.8528 49.7222 33.4048 50.0889 33.2144 50.5556C33.136 50.7445 33.0912 50.9667 33.0912 51.1889C33.0912 51.4111 33.136 51.6222 33.2144 51.8222C33.4048 52.2889 33.8528 52.6556 34.5584 52.6556ZM57.9216 38.6445H54.0352C54.0128 38.6445 54.0016 38.6556 53.9792 38.6667C53.968 38.6778 53.9568 38.7 53.9568 38.7222V51.8334C53.9568 51.8556 53.968 51.8667 53.9792 51.8889C53.9904 51.9 54.0128 51.9111 54.0352 51.9111H57.9216C57.944 51.9111 57.9552 51.9 57.9776 51.8889C57.9888 51.8778 58 51.8556 58 51.8334V38.7222C58 38.7 57.9888 38.6889 57.9776 38.6667C57.9664 38.6445 57.944 38.6445 57.9216 38.6445ZM42.3536 45.5889C41.872 46.3 41.1776 46.8334 40.4384 47.1667C39.4864 47.5889 38.2992 47.7222 37.3584 47.1889C36.6976 46.8111 36.2384 46.1667 36.1376 45.1889H32.688C31.9824 45.1889 31.5344 45.5556 31.344 46.0222C31.2656 46.2111 31.2208 46.4334 31.2208 46.6556C31.2208 46.8778 31.2656 47.0889 31.344 47.2889C31.5344 47.7556 31.9824 48.1222 32.688 48.1222H34.5472H40.0128H41.2672C41.8272 48.1222 42.2192 47.9 42.4432 47.5889C42.5888 47.3889 42.6784 47.1556 42.712 46.9C42.7456 46.6445 42.7232 46.3778 42.6448 46.1334C42.6 45.9222 42.4992 45.7445 42.3536 45.5889ZM43.5184 41.9556C43.3616 41.7556 43.2048 41.5556 43.0592 41.3445V43.2334C43.104 43.1889 43.1488 43.1445 43.1936 43.1C43.4176 42.8222 43.5296 42.4667 43.5296 42.0889C43.5296 42.0778 43.5296 42.0334 43.5184 41.9778C43.5184 41.9778 43.5184 41.9667 43.5184 41.9556ZM43.0592 38.1667V37.2334C43.0592 36.7889 42.7008 36.4334 42.2528 36.4334C41.8048 36.4334 41.4464 36.7889 41.4464 37.2334V43.3445C41.4464 44.4667 40.6624 45.3111 39.7888 45.7111C39.352 45.9111 38.6464 46.0667 38.1872 45.8111C37.6944 45.5222 37.7504 44.8778 37.7504 44.3889V39.8556V36.1778C37.7504 36.0667 37.7504 36.1889 37.7504 36.1C37.7504 34.9556 37.9408 34.2334 38.456 33.8445C39.0496 33.4 40.1248 33.2222 41.8608 33.2222C44.4816 33.2222 45.5344 34.5889 46.6432 36.0222C47.9088 37.6556 49.2192 39.3556 52.3664 39.8222V50.8C51.1232 51.4111 50.0592 51.8556 49.04 52.1667C47.9312 52.5 46.856 52.6556 45.6352 52.6556H42.768C42.8128 52.5778 42.8464 52.5 42.88 52.4111C43.0368 52.0222 43.1152 51.6 43.1152 51.1889C43.1152 50.7778 43.0368 50.3556 42.88 49.9667C42.8128 49.7889 42.7232 49.6222 42.6224 49.4667C43.1152 49.2556 43.496 48.9222 43.7872 48.5222C44.0896 48.1111 44.2688 47.6222 44.3472 47.1222C44.4144 46.6334 44.3696 46.1222 44.224 45.6556C44.1232 45.3334 43.9664 45.0222 43.7536 44.7445C44.0224 44.5778 44.2688 44.3667 44.4592 44.1222C44.6272 43.9222 44.7616 43.6889 44.8736 43.4556C45.5232 44.0889 46.24 44.6778 47.0128 45.2222C47.3712 45.4778 47.8752 45.3889 48.1328 45.0222C48.3904 44.6667 48.3008 44.1667 47.9312 43.9111C45.7584 42.4 44.1344 40.4889 43.0592 38.1667ZM31.8816 5.23336L30.4256 3.13336C30.3696 3.05558 30.3136 3.00002 30.2352 2.96669C30.168 2.93336 30.0784 2.91113 29.9888 2.91113C29.8992 2.91113 29.8096 2.93336 29.7424 2.96669C29.6752 3.00002 29.608 3.05558 29.552 3.13336L28.096 5.23336C27.8384 5.61113 27.4688 5.8778 27.0656 6.03335C26.6624 6.1778 26.2032 6.20002 25.7664 6.0778L23.2912 5.40002C23.2016 5.3778 23.112 5.3778 23.0336 5.38891C22.9552 5.41113 22.8768 5.44447 22.8096 5.50002C22.7312 5.56669 22.6864 5.63336 22.6528 5.70002C22.6192 5.7778 22.608 5.85558 22.6192 5.95558L22.8656 8.48891C22.9104 8.94447 22.8096 9.3778 22.5968 9.75558C22.384 10.1111 22.0704 10.4111 21.6784 10.6C21.656 10.6111 21.6448 10.6222 21.6224 10.6222L19.2816 11.6778C19.192 11.7111 19.1248 11.7667 19.08 11.8222C19.0352 11.8778 19.0016 11.9667 18.9792 12.0556C18.9568 12.1556 18.968 12.2334 18.9904 12.3111C19.0128 12.3889 19.0576 12.4556 19.1248 12.5222L20.9616 14.3111C21.2864 14.6334 21.4992 15.0334 21.5776 15.4556C21.656 15.8778 21.5888 16.3222 21.3984 16.7334L20.2896 19.0334C20.2448 19.1111 20.2336 19.2 20.2336 19.2778C20.2336 19.3556 20.2672 19.4334 20.312 19.5222C20.3568 19.6 20.4128 19.6667 20.48 19.7C20.5472 19.7445 20.6256 19.7667 20.7152 19.7778L23.28 19.9778C23.7392 20.0111 24.1536 20.1889 24.4896 20.4667C24.8256 20.7445 25.0608 21.1222 25.184 21.5667L25.8224 24.0334C25.8448 24.1222 25.8896 24.1889 25.9344 24.2556C25.9904 24.3111 26.0576 24.3667 26.1472 24.3889C26.2368 24.4222 26.3264 24.4334 26.4048 24.4222C26.4832 24.4111 26.5616 24.3778 26.64 24.3222L28.7344 22.8445C29.1152 22.5778 29.5408 22.4445 29.9776 22.4445C30.4144 22.4445 30.84 22.5778 31.2208 22.8445L33.3152 24.3222C33.3936 24.3778 33.472 24.4111 33.5504 24.4222C33.6288 24.4334 33.7184 24.4222 33.808 24.3889C33.8976 24.3556 33.9648 24.3111 34.0208 24.2556C34.0768 24.2 34.1104 24.1222 34.1328 24.0334L34.7712 21.5667C34.8832 21.1222 35.1296 20.7445 35.4656 20.4667C35.8016 20.1889 36.216 20.0111 36.6752 19.9778L39.24 19.7778C39.3296 19.7667 39.4192 19.7445 39.4752 19.7C39.5424 19.6556 39.5984 19.6 39.6432 19.5222C39.688 19.4445 39.7104 19.3556 39.7216 19.2778C39.7216 19.2 39.7104 19.1111 39.6656 19.0334L38.5568 16.7334C38.3552 16.3222 38.2992 15.8778 38.3776 15.4556C38.456 15.0334 38.6576 14.6334 38.9936 14.3111L40.8304 12.5222C40.8976 12.4556 40.9424 12.3889 40.9648 12.3111C40.9872 12.2334 40.9872 12.1556 40.976 12.0556C40.9648 11.9667 40.9312 11.8889 40.8752 11.8222C40.8304 11.7667 40.7744 11.7222 40.7072 11.6889L40.6736 11.6778L38.3328 10.6222C37.9408 10.4445 37.616 10.1556 37.4032 9.81113C37.392 9.78891 37.3808 9.7778 37.3696 9.75558C37.1568 9.3778 37.056 8.94447 37.1008 8.48891L37.3472 5.95558C37.3584 5.85558 37.3472 5.7778 37.3136 5.70002C37.28 5.63336 37.2352 5.56669 37.1568 5.50002C37.0896 5.44447 37.0112 5.40002 36.9328 5.38891C36.8544 5.36669 36.7648 5.3778 36.6752 5.40002L34.2 6.0778C33.752 6.20002 33.304 6.1778 32.9008 6.03335C32.5088 5.8778 32.1504 5.61113 31.8816 5.23336ZM26.7184 25.9889L25.4528 29.6111L23.8736 26.5222C23.7168 26.2 23.3696 26.0222 23 26.0889L19.6512 26.7111L23.2016 21.5778C23.3024 21.5889 23.392 21.6334 23.4704 21.6889C23.5488 21.7556 23.616 21.8445 23.6384 21.9556L24.2768 24.4222C24.3664 24.7667 24.5344 25.0778 24.7584 25.3222C24.9824 25.5667 25.2736 25.7667 25.6096 25.8889C25.9456 26.0111 26.2928 26.0445 26.6288 26C26.6736 26 26.696 25.9889 26.7184 25.9889ZM36.7872 21.5667L40.3376 26.7L36.9888 26.0778C36.6192 26.0111 36.272 26.2 36.1152 26.5111L34.536 29.6L33.2704 25.9778C33.2928 25.9778 33.3152 25.9889 33.3376 25.9889C33.6736 26.0334 34.0208 26 34.3568 25.8778C34.6928 25.7556 34.984 25.5667 35.208 25.3111C35.432 25.0667 35.6 24.7556 35.6896 24.4111L36.328 21.9445C36.3616 21.8334 36.4176 21.7445 36.496 21.6778C36.5856 21.6222 36.6752 21.5778 36.7872 21.5667ZM34.2 9.75558C35.2752 10.8222 35.936 12.3 35.936 13.9222C35.936 15.5445 35.2752 17.0222 34.2 18.0889C33.1248 19.1556 31.6352 19.8111 30 19.8111C28.3648 19.8111 26.8752 19.1556 25.8 18.0889C24.7248 17.0222 24.064 15.5445 24.064 13.9222C24.064 12.3 24.7248 10.8222 25.8 9.75558C26.8752 8.68891 28.3648 8.03336 30 8.03336C31.6352 8.02224 33.1248 8.68891 34.2 9.75558ZM30 6.42224C32.0832 6.42224 33.976 7.25558 35.3424 8.62224C36.7088 9.9778 37.56 11.8556 37.56 13.9222C37.56 15.9889 36.72 17.8667 35.3424 19.2222C33.976 20.5778 32.0832 21.4222 30 21.4222C27.9168 21.4222 26.024 20.5889 24.6576 19.2222C23.2912 17.8667 22.44 15.9889 22.44 13.9222C22.44 11.8556 23.28 9.9778 24.6576 8.62224C26.024 7.26669 27.9168 6.42224 30 6.42224Z" fill="#2F455C"/>
</g>
</svg>
