<svg width="1440" height="206" viewBox="0 0 1440 206" fill="none" xmlns="http://www.w3.org/2000/svg">
<g opacity="0.15" clip-path="url(#clip0_79_19823)">
<path d="M648.068 56.6917L651.235 70.625L730.041 53.0982L726.874 39.165L648.068 56.6917Z" fill="#2DC84D"/>
<path d="M743.926 114.351L740.763 100.417L661.954 117.93L665.117 131.864L743.926 114.351Z" fill="#2DC84D"/>
<path d="M675.222 20.7596L653.982 25.4834L683.985 157.512L705.224 152.789L675.222 20.7596Z" fill="#21CFB3"/>
<path d="M1455 125.958V131.294C1439.96 134.845 1424.4 139.778 1408.34 146.055C1393.16 152.005 1377.1 155.749 1362.33 158.148C1362.2 158.148 1362.06 158.186 1361.95 158.205C1361.63 158.244 1361.36 158.301 1361.07 158.34C1344.62 160.931 1329.89 161.814 1320.09 162.083C1319.82 162.083 1319.59 162.083 1319.32 162.083C1318.95 162.083 1318.58 162.083 1318.21 162.121C1317.77 162.121 1317.36 162.14 1316.93 162.14C1316.35 162.14 1315.77 162.14 1315.22 162.14C1314.23 162.14 1313.34 162.14 1312.55 162.14C1309.52 162.14 1307.79 162.064 1307.7 162.064C1301.7 161.929 1296.21 160.528 1291.03 158.09C1286.35 155.902 1281.91 152.908 1277.54 149.241C1274.46 146.65 1271.43 143.732 1268.39 140.546C1268.23 140.393 1268.09 140.258 1267.96 140.105C1267.75 139.893 1267.55 139.663 1267.36 139.471C1267.09 139.183 1266.85 138.934 1266.6 138.646C1264.6 136.496 1262.58 134.269 1260.57 131.928C1260.28 131.582 1260 131.256 1259.71 130.91C1256.4 127.052 1253.02 122.983 1249.51 118.721C1226.55 90.9464 1197.97 56.3955 1145.55 33.2081C1129.5 26.1251 1111.92 21.2496 1092.87 18.6007C1092.62 18.5623 1092.37 18.5239 1092.11 18.5048C1089.92 18.1784 1087.73 17.9289 1085.48 17.6986C1084.66 17.6026 1083.81 17.5066 1082.97 17.4298C1082.08 17.3339 1081.19 17.2571 1080.3 17.1803C1079.54 17.1035 1078.76 17.0459 1077.99 16.9884C1041.94 14.2051 1001 18.7735 955.422 30.6743C954.569 30.9047 953.715 31.1158 952.861 31.327C952.376 31.4613 951.911 31.5957 951.426 31.7301C950.3 32.0372 949.155 32.3443 948.03 32.6514C945.915 33.2273 943.82 33.8415 941.705 34.4557C941.453 34.5133 941.22 34.5901 940.967 34.6669C930.024 37.834 918.79 41.4043 907.323 45.3585C904.316 46.395 901.968 47.2204 900.397 47.681C885.884 52.1919 873.738 54.668 864.211 55.9925C862.212 56.2804 860.311 56.4915 858.545 56.6835C856.489 56.8946 854.587 57.0674 852.841 57.1633C844.304 57.7008 839.647 57.1633 839.24 57.125L839.88 51.9615C839.88 51.9615 844.032 52.403 851.657 51.9615C853.365 51.8463 855.286 51.6928 857.381 51.5008C859.127 51.3089 861.029 51.0786 863.047 50.829C872.399 49.5622 884.428 47.1628 898.825 42.6904C900.3 42.2297 902.628 41.4235 905.577 40.387C912.95 37.8341 924.863 33.7071 939.881 29.3499C943.664 28.2558 947.661 27.1425 951.813 26.0484C952.182 25.9332 952.512 25.8372 952.881 25.7604C968.189 21.7103 985.807 17.7945 1004.65 15.0113C1031.5 11.0379 1056.53 10.0014 1079.58 11.9017C1079.85 11.9017 1080.08 11.9017 1080.36 11.9593C1084.57 12.3048 1088.68 12.7463 1092.73 13.3029C1112.7 15.9902 1131.09 21.0193 1147.74 28.3901C1201.33 52.0767 1230.32 87.165 1253.62 115.343C1257.52 120.065 1261.21 124.518 1264.76 128.645C1265.17 129.087 1265.55 129.547 1265.94 130.008C1266.81 131.006 1267.67 131.966 1268.52 132.907C1268.72 133.137 1268.93 133.348 1269.1 133.578C1270.04 134.596 1270.95 135.575 1271.86 136.534C1272.32 137.053 1272.83 137.571 1273.35 138.07C1276.4 141.237 1279.41 144.059 1282.47 146.477C1286.8 149.952 1291.22 152.639 1295.86 154.405C1299.68 155.844 1303.66 156.689 1307.91 156.766C1308.04 156.766 1310.8 156.862 1315.53 156.804C1317.75 156.804 1320.38 156.727 1323.39 156.612C1324.44 156.555 1325.57 156.516 1326.69 156.459C1335.48 156.017 1346.73 155.115 1359.05 153.234C1359.4 153.176 1359.75 153.119 1360.1 153.08C1360.2 153.08 1360.3 153.042 1360.37 153.023C1375.12 150.7 1391.26 146.996 1406.44 141.064C1423.16 134.519 1439.38 129.451 1455.04 125.804L1455 125.958Z" fill="#21CFB3"/>
<path d="M800.9 1.05683L758.913 10.3856L786.736 132.83L828.724 123.501C852.356 118.242 867.218 95.0352 861.902 71.6366L853.326 33.8802C848.01 10.5007 824.552 -4.20258 800.9 1.05683Z" fill="#21CFB3"/>
<path d="M855.656 69.7198L866.731 67.2588L859.565 35.7017L848.491 38.1627L855.656 69.7198Z" fill="#21CFB3"/>
<path d="M631.963 94.1506L631.09 99.8515C630.721 99.7939 591.761 95.2447 530.429 161.083C516.77 175.748 497.309 182.409 472.551 180.873C424.414 177.898 372.279 144.806 356.116 122.386C345.057 107.088 331.999 99.0645 317.253 98.5462C289.624 97.5865 254.583 122.194 213.042 171.775C199.188 188.302 187.101 196.018 176.119 195.27C161.334 194.291 151.283 178.416 141.563 163.06C131.92 147.8 121.947 132.041 107.977 130.986C96.5682 130.16 83.0446 138.894 66.6883 157.743C40.7082 187.688 11.2551 203.85 -20.8562 205.788C-23.0875 205.923 -25.2994 205.999 -27.4919 205.999C-58.2449 205.999 -84.2832 193.235 -99.9993 183.196V176.171C-84.3608 186.613 -55.0435 202.122 -21.1472 200.049C9.29543 198.187 37.371 182.697 62.2645 154C79.9208 133.654 95.016 124.248 108.423 125.246C125.323 126.513 136.091 143.539 146.51 160.008C155.843 174.789 164.671 188.743 176.507 189.511C185.49 190.106 195.987 183.1 208.56 168.109C251.925 116.359 287.509 91.6937 317.467 92.7878C334.095 93.3828 348.705 102.212 360.851 119.046C375.985 140.027 427.169 172.312 472.92 175.134C495.815 176.535 513.743 170.508 526.161 157.168C589.917 88.7376 630.275 93.9011 631.963 94.1506Z" fill="#21CFB3"/>
<path d="M648.434 160.412L690.422 151.083L662.598 28.6387L620.611 37.9674C596.979 43.2268 582.116 66.4335 587.433 89.8321L596.009 127.589C601.325 150.968 624.802 165.671 648.434 160.412Z" fill="#21CFB3"/>
<path d="M593.695 91.7538L582.62 94.2148L589.785 125.772L600.86 123.311L593.695 91.7538Z" fill="#21CFB3"/>
</g>
<defs>
<clipPath id="clip0_79_19823">
<rect width="1555" height="206" fill="white" transform="translate(-100)"/>
</clipPath>
</defs>
</svg>
