<svg width="252" height="58" viewBox="0 0 252 58" fill="none" xmlns="http://www.w3.org/2000/svg">
<path d="M40.4953 55.6692C39.1856 56.3801 37.8032 56.9543 36.3662 57.3326C32.8737 58.2485 29.0675 58.1027 25.5568 57.3554C23.9106 57.0045 22.2963 56.4941 20.741 55.847C10.4728 51.5861 6.0481 42.1849 6.11176 33.8637H17.9762C18.2899 38.4162 20.1135 42.2031 24.0243 44.7414C29.4858 48.2868 37.6122 47.4529 41.905 42.4492C42.3007 41.989 42.6645 41.4968 42.9782 40.9727C43.0555 40.8451 43.6422 39.5327 43.6786 39.5327H30.2089V30.127L55.6475 30.1725L55.6384 57.0181H46.3025C46.3025 57.0181 46.3025 51.1486 46.2661 50.98C46.2661 50.9846 46.2843 50.9709 46.2797 50.9755C45.875 51.5588 45.3839 52.1147 44.8518 52.5841C43.5194 53.7598 42.0551 54.8171 40.4862 55.6738L40.4953 55.6692Z" fill="white"/>
<path d="M14.1427 27.123H16.2482V31.3247C16.2482 31.908 15.7753 32.3819 15.1932 32.3819C14.6111 32.3819 14.1382 31.908 14.1382 31.3247V27.123H14.1427Z" fill="white"/>
<path d="M7.8627 27.123H9.96819V31.3247C9.96819 31.908 9.49525 32.3819 8.91317 32.3819C8.33109 32.3819 7.85815 31.908 7.85815 31.3247V27.123H7.8627Z" fill="white"/>
<path d="M41.082 2.15092C39.6631 1.5266 38.1943 1.02988 36.6982 0.669877C30.4226 -0.838509 23.6151 0.255185 18.0035 3.39955C13.265 6.05632 9.58606 10.3308 7.66247 15.4165C6.62565 18.1644 6.09359 21.1083 6.11178 24.0476H17.9762C18.3354 18.57 21.4868 13.5527 26.862 11.862C28.0489 11.4883 29.2949 11.2878 30.5409 11.2741C37.785 11.1921 43.3421 17.1983 43.7923 24.2663H55.6567C55.7021 18.1735 53.3011 12.0671 49.0537 7.66496C48.9628 7.56926 48.8718 7.47812 48.7809 7.38698C46.5799 5.18136 43.9332 3.41322 41.0865 2.15548L41.082 2.15092Z" fill="white"/>
<path d="M17.7989 24.7998H6.31197C5.77953 24.7998 5.3479 25.2323 5.3479 25.7659V25.7705C5.3479 26.304 5.77953 26.7366 6.31197 26.7366H17.7989C18.3314 26.7366 18.763 26.304 18.763 25.7705V25.7659C18.763 25.2323 18.3314 24.7998 17.7989 24.7998Z" fill="white"/>
<path d="M11.7053 16.1558C11.8508 15.609 11.9963 15.0621 12.1509 14.5153C12.1691 14.4515 12.2464 14.3558 12.301 14.3558C12.9604 14.3284 13.6152 14.3193 14.2973 14.3057C14.079 15.1669 13.8653 16.0009 13.6425 16.8667L15.9663 16.8075C14.6793 18.6759 13.4106 20.5124 12.1464 22.3443C12.1327 22.3398 12.1191 22.3352 12.1054 22.3306C12.4238 21.1504 12.7466 19.9701 13.0786 18.7442C12.3737 18.7625 11.6962 18.7852 10.9958 18.8035C11.2369 17.9012 11.4733 17.0262 11.7053 16.1513V16.1558Z" fill="white"/>
<mask id="mask0_725_146" style="mask-type:luminance" maskUnits="userSpaceOnUse" x="10" y="14" width="6" height="9">
<path d="M11.7053 16.1558C11.8508 15.609 11.9963 15.0621 12.1509 14.5153C12.1691 14.4515 12.2464 14.3558 12.301 14.3558C12.9604 14.3284 13.6152 14.3193 14.2973 14.3057C14.079 15.1669 13.8653 16.0009 13.6425 16.8667L15.9663 16.8075C14.6793 18.6759 13.4106 20.5124 12.1464 22.3443C12.1327 22.3398 12.1191 22.3352 12.1054 22.3306C12.4238 21.1504 12.7466 19.9701 13.0786 18.7442C12.3737 18.7625 11.6962 18.7852 10.9958 18.8035C11.2369 17.9012 11.4733 17.0262 11.7053 16.1513V16.1558Z" fill="white"/>
</mask>
<g mask="url(#mask0_725_146)">
<path d="M15.9142 14.2764L10.9128 14.3691L11.0606 22.37L16.0619 22.2772L15.9142 14.2764Z" fill="white"/>
<path d="M13.4925 21.666C15.3334 21.666 16.8258 20.1705 16.8258 18.3257C16.8258 16.4809 15.3334 14.9854 13.4925 14.9854C11.6516 14.9854 10.1592 16.4809 10.1592 18.3257C10.1592 20.1705 11.6516 21.666 13.4925 21.666Z" fill="white"/>
<path d="M13.4924 21.5609C15.2756 21.5609 16.7211 20.1123 16.7211 18.3254C16.7211 16.5384 15.2756 15.0898 13.4924 15.0898C11.7092 15.0898 10.2637 16.5384 10.2637 18.3254C10.2637 20.1123 11.7092 21.5609 13.4924 21.5609Z" fill="white"/>
<path d="M13.4924 21.46C15.2204 21.46 16.6211 20.0563 16.6211 18.3247C16.6211 16.5932 15.2204 15.1895 13.4924 15.1895C11.7645 15.1895 10.3638 16.5932 10.3638 18.3247C10.3638 20.0563 11.7645 21.46 13.4924 21.46Z" fill="white"/>
<path d="M13.4925 21.361C15.1652 21.361 16.5211 20.0022 16.5211 18.326C16.5211 16.6498 15.1652 15.291 13.4925 15.291C11.8198 15.291 10.4639 16.6498 10.4639 18.326C10.4639 20.0022 11.8198 21.361 13.4925 21.361Z" fill="white"/>
<path d="M13.4925 21.2601C15.11 21.2601 16.4211 19.9462 16.4211 18.3254C16.4211 16.7046 15.11 15.3906 13.4925 15.3906C11.8751 15.3906 10.564 16.7046 10.564 18.3254C10.564 19.9462 11.8751 21.2601 13.4925 21.2601Z" fill="white"/>
<path d="M13.4926 21.1592C15.0548 21.1592 16.3211 19.8902 16.3211 18.3247C16.3211 16.7593 15.0548 15.4902 13.4926 15.4902C11.9304 15.4902 10.6641 16.7593 10.6641 18.3247C10.6641 19.8902 11.9304 21.1592 13.4926 21.1592Z" fill="white"/>
<path d="M13.4925 21.0551C14.9969 21.0551 16.2164 19.8329 16.2164 18.3254C16.2164 16.8178 14.9969 15.5957 13.4925 15.5957C11.9881 15.5957 10.7686 16.8178 10.7686 18.3254C10.7686 19.8329 11.9881 21.0551 13.4925 21.0551Z" fill="white"/>
<path d="M13.4926 20.9551C14.9417 20.9551 16.1165 19.7779 16.1165 18.3257C16.1165 16.8735 14.9417 15.6963 13.4926 15.6963C12.0434 15.6963 10.8687 16.8735 10.8687 18.3257C10.8687 19.7779 12.0434 20.9551 13.4926 20.9551Z" fill="white"/>
<path d="M13.4926 20.8542C14.8865 20.8542 16.0165 19.7219 16.0165 18.3251C16.0165 16.9282 14.8865 15.7959 13.4926 15.7959C12.0987 15.7959 10.9688 16.9282 10.9688 18.3251C10.9688 19.7219 12.0987 20.8542 13.4926 20.8542Z" fill="white"/>
<path d="M13.4924 20.7543C14.831 20.7543 15.9162 19.6668 15.9162 18.3254C15.9162 16.9839 14.831 15.8965 13.4924 15.8965C12.1538 15.8965 11.0686 16.9839 11.0686 18.3254C11.0686 19.6668 12.1538 20.7543 13.4924 20.7543Z" fill="white"/>
<path d="M13.4925 20.6544C14.7758 20.6544 15.8162 19.6118 15.8162 18.3257C15.8162 17.0396 14.7758 15.9971 13.4925 15.9971C12.2091 15.9971 11.1687 17.0396 11.1687 18.3257C11.1687 19.6118 12.2091 20.6544 13.4925 20.6544Z" fill="white"/>
<path d="M13.4924 20.5492C14.718 20.5492 15.7115 19.5536 15.7115 18.3254C15.7115 17.0972 14.718 16.1016 13.4924 16.1016C12.2668 16.1016 11.2732 17.0972 11.2732 18.3254C11.2732 19.5536 12.2668 20.5492 13.4924 20.5492Z" fill="white"/>
<path d="M13.4924 20.4483C14.6628 20.4483 15.6116 19.4976 15.6116 18.3248C15.6116 17.1519 14.6628 16.2012 13.4924 16.2012C12.3221 16.2012 11.3733 17.1519 11.3733 18.3248C11.3733 19.4976 12.3221 20.4483 13.4924 20.4483Z" fill="white"/>
<path d="M13.4925 20.3484C14.6076 20.3484 15.5116 19.4425 15.5116 18.3251C15.5116 17.2076 14.6076 16.3018 13.4925 16.3018C12.3774 16.3018 11.4734 17.2076 11.4734 18.3251C11.4734 19.4425 12.3774 20.3484 13.4925 20.3484Z" fill="white"/>
<path d="M13.4925 20.2485C14.5524 20.2485 15.4116 19.3875 15.4116 18.3254C15.4116 17.2633 14.5524 16.4023 13.4925 16.4023C12.4327 16.4023 11.5735 17.2633 11.5735 18.3254C11.5735 19.3875 12.4327 20.2485 13.4925 20.2485Z" fill="white"/>
<path d="M13.4926 20.1476C14.4972 20.1476 15.3116 19.3315 15.3116 18.3248C15.3116 17.3181 14.4972 16.502 13.4926 16.502C12.488 16.502 11.6736 17.3181 11.6736 18.3248C11.6736 19.3315 12.488 20.1476 13.4926 20.1476Z" fill="white"/>
<path d="M13.4925 20.0434C14.4393 20.0434 15.2069 19.2743 15.2069 18.3254C15.2069 17.3766 14.4393 16.6074 13.4925 16.6074C12.5456 16.6074 11.7781 17.3766 11.7781 18.3254C11.7781 19.2743 12.5456 20.0434 13.4925 20.0434Z" fill="white"/>
<path d="M13.4925 19.9435C14.3841 19.9435 15.1069 19.2192 15.1069 18.3258C15.1069 17.4323 14.3841 16.708 13.4925 16.708C12.6009 16.708 11.8782 17.4323 11.8782 18.3258C11.8782 19.2192 12.6009 19.9435 13.4925 19.9435Z" fill="white"/>
<path d="M13.4926 19.8426C14.3289 19.8426 15.0069 19.1632 15.0069 18.3251C15.0069 17.487 14.3289 16.8076 13.4926 16.8076C12.6563 16.8076 11.9783 17.487 11.9783 18.3251C11.9783 19.1632 12.6563 19.8426 13.4926 19.8426Z" fill="white"/>
<path d="M13.4924 19.7427C14.2735 19.7427 14.9067 19.1082 14.9067 18.3254C14.9067 17.5427 14.2735 16.9082 13.4924 16.9082C12.7113 16.9082 12.0781 17.5427 12.0781 18.3254C12.0781 19.1082 12.7113 19.7427 13.4924 19.7427Z" fill="white"/>
<path d="M13.4924 19.6428C14.2183 19.6428 14.8067 19.0531 14.8067 18.3258C14.8067 17.5984 14.2183 17.0088 13.4924 17.0088C12.7666 17.0088 12.1782 17.5984 12.1782 18.3258C12.1782 19.0531 12.7666 19.6428 13.4924 19.6428Z" fill="white"/>
<path d="M13.4926 19.5376C14.1607 19.5376 14.7022 18.9949 14.7022 18.3255C14.7022 17.656 14.1607 17.1133 13.4926 17.1133C12.8245 17.1133 12.283 17.656 12.283 18.3255C12.283 18.9949 12.8245 19.5376 13.4926 19.5376Z" fill="white"/>
<path d="M13.4924 19.4377C14.1052 19.4377 14.602 18.9399 14.602 18.3258C14.602 17.7117 14.1052 17.2139 13.4924 17.2139C12.8796 17.2139 12.3828 17.7117 12.3828 18.3258C12.3828 18.9399 12.8796 19.4377 13.4924 19.4377Z" fill="white"/>
<path d="M13.4925 19.3368C14.05 19.3368 14.502 18.8839 14.502 18.3251C14.502 17.7664 14.05 17.3135 13.4925 17.3135C12.9349 17.3135 12.4829 17.7664 12.4829 18.3251C12.4829 18.8839 12.9349 19.3368 13.4925 19.3368Z" fill="white"/>
<path d="M13.4925 19.2369C13.9948 19.2369 14.402 18.8288 14.402 18.3255C14.402 17.8221 13.9948 17.4141 13.4925 17.4141C12.9902 17.4141 12.583 17.8221 12.583 18.3255C12.583 18.8288 12.9902 19.2369 13.4925 19.2369Z" fill="white"/>
<path d="M13.4926 19.136C13.9396 19.136 14.302 18.7728 14.302 18.3248C14.302 17.8768 13.9396 17.5137 13.4926 17.5137C13.0455 17.5137 12.6831 17.8768 12.6831 18.3248C12.6831 18.7728 13.0455 19.136 13.4926 19.136Z" fill="white"/>
<path d="M13.4925 19.0318C13.8817 19.0318 14.1973 18.7156 14.1973 18.3255C14.1973 17.9354 13.8817 17.6191 13.4925 17.6191C13.1032 17.6191 12.7876 17.9354 12.7876 18.3255C12.7876 18.7156 13.1032 19.0318 13.4925 19.0318Z" fill="white"/>
<path d="M13.4925 18.9309C13.8265 18.9309 14.0973 18.6596 14.0973 18.3248C14.0973 17.9901 13.8265 17.7188 13.4925 17.7188C13.1585 17.7188 12.8877 17.9901 12.8877 18.3248C12.8877 18.6596 13.1585 18.9309 13.4925 18.9309Z" fill="white"/>
<path d="M13.4926 18.831C13.7713 18.831 13.9973 18.6045 13.9973 18.3252C13.9973 18.0458 13.7713 17.8193 13.4926 17.8193C13.2138 17.8193 12.9878 18.0458 12.9878 18.3252C12.9878 18.6045 13.2138 18.831 13.4926 18.831Z" fill="white"/>
<path d="M13.4924 18.7311C13.7159 18.7311 13.8971 18.5495 13.8971 18.3255C13.8971 18.1015 13.7159 17.9199 13.4924 17.9199C13.2688 17.9199 13.0876 18.1015 13.0876 18.3255C13.0876 18.5495 13.2688 18.7311 13.4924 18.7311Z" fill="white"/>
<path d="M13.4924 18.6302C13.6607 18.6302 13.7971 18.4935 13.7971 18.3249C13.7971 18.1562 13.6607 18.0195 13.4924 18.0195C13.3242 18.0195 13.1877 18.1562 13.1877 18.3249C13.1877 18.4935 13.3242 18.6302 13.4924 18.6302Z" fill="white"/>
<path d="M13.4926 18.5257C13.6031 18.5257 13.6927 18.4358 13.6927 18.3249C13.6927 18.2139 13.6031 18.124 13.4926 18.124C13.3821 18.124 13.2925 18.2139 13.2925 18.3249C13.2925 18.4358 13.3821 18.5257 13.4926 18.5257Z" fill="white"/>
<path d="M13.4924 18.4263C13.5476 18.4263 13.5924 18.3813 13.5924 18.3259C13.5924 18.2705 13.5476 18.2256 13.4924 18.2256C13.4371 18.2256 13.3923 18.2705 13.3923 18.3259C13.3923 18.3813 13.4371 18.4263 13.4924 18.4263Z" fill="white"/>
</g>
<g clip-path="url(#clip0_725_146)">
<path d="M86.999 14.95C86.999 16.6641 86.7049 18.1962 86.1184 19.5446C85.5319 20.8947 84.6215 21.9571 83.3873 22.7353C82.1531 23.5135 80.6212 23.9017 78.79 23.9017C76.9587 23.9017 75.2186 23.4043 73.7462 22.4095C72.2739 21.4146 71.1342 20.0108 70.3289 18.1996C69.5218 16.3885 69.1191 14.3104 69.1191 11.9655C69.1191 9.62052 69.5218 7.5442 70.3289 5.73132C71.1342 3.91844 72.2739 2.51112 73.7462 1.50589C75.2186 0.500661 76.8992 -0.00195312 78.79 -0.00195312C80.7788 -0.00195312 82.4314 0.465999 83.7444 1.4019C85.0575 2.33781 85.9538 3.57354 86.43 5.11085L84.639 5.99649C83.804 3.27891 81.8432 1.91838 78.7585 1.91838C77.2861 1.91838 75.9871 2.3378 74.8632 3.17492C73.7392 4.01203 72.8674 5.18884 72.2511 6.70535C71.6349 8.22186 71.325 9.97582 71.325 11.9655C71.325 13.9551 71.6331 15.7091 72.2511 17.2256C72.8674 18.7421 73.7392 19.9189 74.8632 20.756C75.9871 21.5931 77.2949 22.0126 78.7882 22.0126C80.8383 22.0126 82.3701 21.3869 83.3855 20.1356C84.4009 18.8842 84.9086 17.0973 84.9086 14.7732V13.8269H79.7441V11.9065H86.9972V14.95H86.999Z" fill="white"/>
<path d="M93.4677 2.27402V10.399H103.646V12.3194H93.4677V21.6282H104.332V23.5779H91.2898V0.324219H104.332V2.27402H93.4677Z" fill="white"/>
<path d="M125.758 0.324219V23.5797H124.056L110.654 3.7212V23.5779H108.625V0.324219H111.043L123.728 19.1757V0.324219H125.758Z" fill="white"/>
<path d="M132.645 2.27402V10.399H142.823V12.3194H132.645V21.6282H143.509V23.5779H130.467V0.324219H143.509V2.27402H132.645Z" fill="white"/>
<path d="M154.219 13.5309H149.98V23.5779H147.801V0.324219H156.218C158.187 0.324219 159.744 0.925623 160.889 2.1267C162.032 3.32777 162.604 4.93441 162.604 6.94313C162.604 8.95186 162.083 10.4008 161.038 11.5828C159.992 12.7648 158.555 13.4147 156.724 13.5326L164.185 23.5797H161.5L154.217 13.5326L154.219 13.5309ZM149.98 11.6694H155.92C157.372 11.6694 158.487 11.2518 159.262 10.4129C160.038 9.5758 160.427 8.41805 160.427 6.9414C160.427 5.46475 160.038 4.30701 159.262 3.46989C158.487 2.63278 157.372 2.21336 155.92 2.21336H149.98V11.6694Z" fill="white"/>
<path d="M179.553 16.3386H169.912L167.375 23.5779H165.136L173.642 0.324219H175.971L184.477 23.5797H182.089L179.553 16.3403V16.3386ZM178.866 14.3593L174.747 2.56865L170.628 14.3593H178.866Z" fill="white"/>
<path d="M201.214 2.27402H194.857V23.5779H192.648V2.27402H186.29V0.324219H201.214V2.27402Z" fill="white"/>
<path d="M207.179 0.324219V23.5797H204.969V0.324219H207.179Z" fill="white"/>
<path d="M221.146 23.9032C219.255 23.9032 217.574 23.3902 216.102 22.3659C214.63 21.3416 213.485 19.9239 212.669 18.111C211.853 16.2981 211.445 14.2496 211.445 11.9653C211.445 9.68096 211.853 7.62717 212.669 5.80389C213.485 3.98235 214.628 2.55943 216.102 1.5334C217.574 0.509107 219.255 -0.00390625 221.146 -0.00390625C223.037 -0.00390625 224.717 0.509107 226.19 1.5334C227.662 2.5577 228.81 3.98061 229.637 5.80389C230.461 7.62544 230.876 9.67923 230.876 11.9653C230.876 14.2513 230.463 16.2999 229.637 18.111C228.81 19.9239 227.662 21.3416 226.19 22.3659C224.717 23.3902 223.035 23.9032 221.146 23.9032ZM221.146 22.0124C222.618 22.0124 223.926 21.5895 225.071 20.7419C226.216 19.8944 227.105 18.7124 227.743 17.1959C228.38 15.6794 228.698 13.9359 228.698 11.9653C228.698 9.99466 228.38 8.24764 227.743 6.72073C227.105 5.19382 226.216 4.01181 225.071 3.1747C223.926 2.33758 222.618 1.91816 221.146 1.91816C219.674 1.91816 218.364 2.33758 217.221 3.1747C216.076 4.01181 215.192 5.19382 214.565 6.72073C213.938 8.24764 213.625 9.99639 213.625 11.9653C213.625 13.9341 213.938 15.6794 214.565 17.1959C215.192 18.7124 216.078 19.8944 217.221 20.7419C218.364 21.5895 219.674 22.0124 221.146 22.0124Z" fill="white"/>
<path d="M252 0.324219V23.5797H250.298L236.897 3.72293V23.5797H234.868V0.324219H237.285L249.971 19.1757V0.324219H252Z" fill="white"/>
<path d="M89.9838 48.0398C89.9838 50.0295 89.6162 51.773 88.8791 53.2705C88.1421 54.7679 87.0532 55.9291 85.6106 56.7576C84.168 57.5843 82.4208 57.9985 80.3725 57.9985C78.1631 57.9985 76.1936 57.4664 74.4622 56.4023C72.7307 55.3381 71.3879 53.8459 70.4321 51.9255C69.4762 50.0052 69 47.8128 69 45.35C69 42.8871 69.4779 40.6722 70.4321 38.7605C71.3879 36.8506 72.7307 35.3618 74.4622 34.2994C76.1936 33.2352 78.1736 32.7031 80.4023 32.7031C82.6309 32.7031 84.681 33.2196 86.2531 34.2543C87.8252 35.289 88.8791 36.7223 89.4166 38.5543L85.5668 40.3567C84.7702 37.7761 83.0196 36.4866 80.313 36.4866C79.0192 36.4866 77.8708 36.8558 76.8659 37.5941C75.861 38.3324 75.0802 39.3723 74.5234 40.712C73.9667 42.0518 73.6884 43.5977 73.6884 45.3517C73.6884 47.1056 73.9615 48.7348 74.5094 50.0641C75.0556 51.3935 75.833 52.4178 76.8379 53.137C77.8428 53.8563 79.021 54.215 80.3743 54.215C83.8371 54.215 85.6281 52.2358 85.7471 48.2755H81.0308V44.3759H89.9856V48.0398H89.9838Z" fill="white"/>
<path d="M101.346 48.1577H98.8092V57.5843H94.1226V33.0879H104.061C105.574 33.0879 106.897 33.3981 108.032 34.0186C109.166 34.6391 110.047 35.5212 110.674 36.6634C111.3 37.8055 111.614 39.1262 111.614 40.6236C111.614 42.5145 111.131 44.1055 110.166 45.395C109.201 46.6862 107.883 47.5268 106.211 47.922L113.105 57.5843H107.494L101.346 48.1577ZM98.8092 44.5232H102.988C104.242 44.5232 105.211 44.1887 105.898 43.518C106.584 42.849 106.927 41.8836 106.927 40.6219C106.927 39.3602 106.584 38.3965 105.898 37.7258C105.211 37.0568 104.242 36.7206 102.988 36.7206H98.8092V44.5215V44.5232Z" fill="white"/>
<path d="M120.413 36.9892V42.8109H130.262V46.681H120.413V53.7142H130.978V57.5843H115.726V33.0879H130.978V36.9875H120.413V36.9892Z" fill="white"/>
<path d="M139.896 36.9892V42.8109H149.745V46.681H139.896V53.7142H150.462V57.5843H135.209V33.0879H150.462V36.9875H139.896V36.9892Z" fill="white"/>
<path d="M174.81 33.0879V57.5843H170.572L158.931 40.4451V57.5843H154.693V33.0879H159.647L170.601 49.3102V33.0879H174.81Z" fill="white"/>
</g>
<defs>
<clipPath id="clip0_725_146">
<rect width="183" height="58" fill="white" transform="translate(69 -0.00195312)"/>
</clipPath>
</defs>
</svg>
