<svg width="59" height="59" viewBox="0 0 59 59" fill="none" xmlns="http://www.w3.org/2000/svg">
<g id="Layer_1">
<path id="Vector" d="M28.5708 39.3116C27.6603 40.2178 27.6603 41.6898 28.5708 42.6022C29.4875 43.5085 30.9663 43.5085 31.8768 42.6022C32.7874 41.6898 32.7874 40.2178 31.8768 39.3116C30.9663 38.4053 29.4875 38.4053 28.5708 39.3116Z" fill="#2F455C"/>
<path id="Vector_2" d="M44.5876 20.2729C44.4592 20.5223 44.0315 23.4662 43.2248 25.5586C42.6137 27.213 41.1288 27.9551 39.3994 27.7665C37.0528 27.5232 35.8856 25.2484 35.8184 23.4662C35.7573 23.1012 35.8184 22.6694 35.8184 22.3044C35.8856 15.9726 35.2073 12.7185 32.0541 7.12866C30.6364 4.66526 26.2549 0.121649 25.9432 0C25.8821 0.304124 25.6988 2.33567 25.6377 3.07165C25.2038 6.26495 23.9083 9.0933 22.3072 11.8547C20.3334 15.2366 17.8585 17.9372 15.3286 20.948C10.2076 27.0305 7.42718 34.3416 8.23382 42.3279C9.15656 51.4881 15.7013 57.3212 24.6477 58.7324L26.7926 58.708V55.235C26.7926 54.9673 27.0126 54.7544 27.2815 54.7544C27.5504 54.7544 27.7704 54.9673 27.7704 55.235V58.6959L29.7259 58.6716V55.235C29.7259 54.9673 29.9458 54.7544 30.2147 54.7544C30.4836 54.7544 30.7036 54.9673 30.7036 55.235V58.6594L32.6591 58.629V55.235C32.6591 54.9673 32.8791 54.7544 33.148 54.7544C33.4168 54.7544 33.6368 54.9673 33.6368 55.235V58.6168H34.3396C34.5229 58.6107 34.7124 58.5499 34.8957 58.4891C40.8844 57.011 45.8831 53.4467 48.413 47.9177C52.7334 38.3987 49.7085 28.1375 44.5876 20.2729ZM30.2147 32.4318C31.6386 33.6118 32.8057 34.8708 33.7163 36.1846H26.7071C27.6176 34.8708 28.7909 33.6057 30.2147 32.4318ZM22.3378 52.8324L22.2461 52.6742C20.975 50.4785 21.195 47.5345 23.45 45.4847C23.7494 47.3886 24.4766 49.2255 25.5582 50.9164L25.5949 50.9711L22.3378 52.8324ZM32.9646 52.7472C32.928 52.8445 32.8363 52.9054 32.7385 52.9054H27.7093C27.6054 52.9054 27.5137 52.8445 27.477 52.7472L26.9637 51.3665H33.4779L32.9646 52.7472ZM34.0401 50.3933H26.3832C23.6761 46.166 23.5783 41.4217 26.0838 37.1518H34.3396C36.8512 41.4217 36.7473 46.166 34.0401 50.3933ZM38.1956 52.6742L38.1039 52.8324L34.8346 50.9651L34.8651 50.9164C35.9529 49.2194 36.6801 47.3886 36.9795 45.4787C39.2466 47.5285 39.4727 50.4724 38.1956 52.6742Z" fill="#2F455C"/>
</g>
</svg>
