<svg width="59" height="59" viewBox="0 0 59 59" fill="none" xmlns="http://www.w3.org/2000/svg">
<g id="noun-learn-5743685 1">
<path id="Vector" d="M46.4352 49.4949L48.785 47.137H46.4352V49.4949ZM36.86 24.503C36.8703 24.4718 36.891 24.4511 36.9014 24.4303C37.5432 23.3396 38.0297 22.3009 38.1746 21.3764C39.0648 15.6842 35.4418 10.4801 29.4172 10.4801C23.3926 10.4801 19.7695 15.6946 20.6701 21.3764C21.1566 24.4407 25.3594 28.741 26.5912 32.4389H32.2535C33.1334 29.7901 35.3797 27.0167 36.86 24.503ZM39.748 7.26005C40.3277 6.67836 41.2283 7.56128 40.6383 8.15336L38.392 10.4074C37.8123 10.9891 36.9117 10.1062 37.5018 9.5141L39.748 7.26005ZM45.3379 17.8759C46.166 17.8759 46.166 19.1431 45.3379 19.1431H42.1496C41.3215 19.1431 41.3215 17.8759 42.1496 17.8759H45.3379ZM18.1029 8.02871C17.5232 7.44702 18.4031 6.54332 18.9932 7.1354L21.2498 9.38945C21.8295 9.97114 20.9496 10.8748 20.3596 10.2828L18.1029 8.02871ZM13.6621 19.1328C12.834 19.1328 12.834 17.8759 13.6621 17.8759H16.8504C17.6785 17.8759 17.6785 19.1328 16.8504 19.1328H13.6621ZM28.7961 3.60371C28.7961 2.77272 30.059 2.77272 30.059 3.60371V6.803C30.059 7.63399 28.7961 7.63399 28.7961 6.803V3.60371ZM25.525 38.0585H33.3301C33.8994 38.0585 33.8994 36.5107 33.3301 36.5107H25.525C24.9557 36.5107 24.9557 38.0585 25.525 38.0585ZM33.3301 33.6958H25.525C24.9557 33.6958 24.9557 35.2435 25.525 35.2435H33.3301C33.8994 35.2435 33.8994 33.6958 33.3301 33.6958ZM24.2621 35.8771C24.1275 35.6902 24.0137 35.472 23.9412 35.2331C23.7859 34.7449 23.7859 34.2048 23.9412 33.7166C24.1379 33.0725 24.5727 32.5636 25.2559 32.4597C24.407 30.2472 22.3574 27.588 21.0221 25.3652C16.985 24.9912 12.865 25.8014 9.31445 27.7646V50.2012C15.3908 48.7055 22.1607 48.5393 28.8582 50.2012V42.2757C27.5125 41.9849 26.5084 40.6968 25.8355 39.3153H25.5043C24.6658 39.3153 24.1482 38.7544 23.9309 38.0377C23.7342 37.3313 23.8273 36.4692 24.2621 35.8771ZM33.5889 32.4493C34.2721 32.5532 34.7172 33.0725 34.9139 33.7062C35.0691 34.1944 35.0691 34.7345 34.9139 35.2227C34.8414 35.4616 34.7379 35.6798 34.593 35.8667C34.7275 36.0537 34.8414 36.2718 34.9139 36.5107C35.0691 36.999 35.0691 37.5391 34.9139 38.0377C34.6965 38.7544 34.1686 39.3153 33.3404 39.3153H33.0092C32.357 40.6553 31.4047 41.8914 30.1418 42.2342V50.1909C35.2141 48.9548 40.1311 48.9548 45.1826 50.1909V46.4826C45.1826 46.1294 45.4725 45.849 45.8141 45.849H49.6855V27.7646C46.0832 25.7703 41.9115 24.96 37.8227 25.3755C36.4562 27.6088 34.448 30.1849 33.5889 32.4493ZM31.384 18.9977V21.3556C31.6324 21.3349 32.3053 21.6673 32.9057 21.0233C33.8787 19.9845 32.6572 18.3433 31.384 18.9977ZM31.384 28.7306C31.384 29.5616 30.1211 29.5616 30.1211 28.7306V18.6653C30.1211 18.4472 30.235 18.2498 30.4006 18.146C32.2742 16.7748 34.5102 18.1771 34.5102 20.1507C34.5102 21.7919 32.9781 23.0072 31.384 22.6333V28.7306ZM27.4711 21.3556V18.9977C26.1979 18.3433 24.9764 19.9741 25.9494 21.0233C26.5498 21.6673 27.2227 21.3349 27.4711 21.3556ZM28.734 28.7306C28.734 29.5616 27.4711 29.5616 27.4711 28.7306V22.6229C25.877 22.9968 24.3449 21.7919 24.3449 20.1403C24.3449 18.1667 26.5809 16.7644 28.4441 18.1356C28.6098 18.2498 28.7236 18.4368 28.7236 18.6549V28.7306H28.734ZM12.5959 37.965C11.8092 38.2143 11.4262 37.0093 12.2232 36.76C15.0078 35.8771 17.9062 35.285 20.6287 35.4201C21.4568 35.4616 21.3844 36.7185 20.5666 36.6769C18.0098 36.5523 15.2355 37.134 12.5959 37.965ZM12.5959 43.169C11.8092 43.4183 11.4262 42.2134 12.2232 41.9641C15.0078 41.0916 17.9062 40.4891 20.6287 40.6241C21.4568 40.6657 21.3844 41.9329 20.5666 41.881C18.0098 41.7563 15.2355 42.3277 12.5959 43.169ZM46.7768 36.76C47.5635 37.0093 47.1908 38.2143 46.4041 37.965C43.7541 37.134 41.0109 36.5523 38.4437 36.6873C37.6156 36.7289 37.5535 35.472 38.3816 35.4305C41.073 35.285 44.0025 35.8875 46.7768 36.76ZM46.7768 41.9641C47.5635 42.2134 47.1908 43.4183 46.4041 43.169C43.7541 42.338 41.0109 41.7563 38.4437 41.8914C37.6156 41.9329 37.5535 40.6761 38.3816 40.6345C41.073 40.4891 44.0025 41.0812 46.7768 41.9641ZM46.7768 31.556C47.5635 31.8053 47.1908 33.0102 46.4041 32.7609C43.7541 31.9299 41.0109 31.3482 38.4437 31.4833C37.6156 31.5248 37.5535 30.268 38.3816 30.2264C41.073 30.0914 44.0025 30.6835 46.7768 31.556ZM12.5959 32.7609C11.8092 33.0102 11.4262 31.8053 12.2232 31.556C15.0078 30.6835 17.9062 30.081 20.6287 30.216C21.4568 30.2576 21.3844 31.5248 20.5666 31.4729C18.0098 31.3586 15.2355 31.9299 12.5959 32.7609ZM27.2744 39.3153C28.6201 41.6525 30.235 41.6525 31.5807 39.3153H27.2744Z" fill="#2F455C"/>
</g>
</svg>
