<svg width="79" height="87" viewBox="0 0 79 87" fill="none" xmlns="http://www.w3.org/2000/svg">
<g id="Layer_1" clip-path="url(#clip0_226_133008)">
<g id="Group">
<path id="Vector" d="M7.0533 84.1723C7.0533 85.8828 6.08247 87.0003 4.27295 87.0003C2.31406 87.0003 0.975586 85.5692 0.975586 83.4596C0.975586 81.35 2.30832 79.9189 4.27869 79.9189C5.65738 79.9189 6.59374 80.5518 6.90394 81.6294L5.62866 82.211C5.43334 81.5154 4.97378 81.1505 4.23848 81.1505C3.21595 81.1505 2.51512 82.0798 2.51512 83.4596C2.51512 84.8394 3.17574 85.7687 4.26146 85.7687C5.12888 85.7687 5.57695 85.2841 5.64014 84.3776H4.41656V83.1004H7.04181V84.178L7.0533 84.1723Z" fill="white"/>
<path id="Vector_2" d="M10.4426 81.3159V82.6501H13.1196V83.9272H10.4426V85.6035H13.3149V86.8806H8.8916V80.0273H13.3149V81.3045H10.4426V81.3159Z" fill="white"/>
<path id="Vector_3" d="M21.0241 80.0332V86.8865H19.5879L16.5778 82.4564V86.8865H15.1819V80.0332H16.8133L19.6282 84.1725V80.0332H21.0241Z" fill="white"/>
<path id="Vector_4" d="M24.5339 81.3159V82.6501H27.2109V83.9272H24.5339V85.6035H27.4062V86.8806H22.9829V80.0273H27.4062V81.3045H24.5339V81.3159Z" fill="white"/>
<path id="Vector_5" d="M31.3756 84.3664H30.8184V86.8865H29.2673V80.0332H32.2028C33.5183 80.0332 34.38 80.8941 34.38 82.1941C34.38 83.2318 33.84 83.9844 32.9611 84.2581L34.7821 86.8808H32.9323L31.3756 84.3607V84.3664ZM30.8184 83.1862H31.8122C32.4555 83.1862 32.8347 82.8555 32.8347 82.1998C32.8347 81.5441 32.4613 81.2134 31.8122 81.2134H30.8184V83.1919V83.1862Z" fill="white"/>
<path id="Vector_6" d="M39.9868 85.2843H37.7119L37.2638 86.8865H35.6726L37.9072 80.0332H39.8719L42.1065 86.8865H40.4348L39.9868 85.2843ZM39.6306 84.0072L38.8551 81.2533L38.0738 84.0072H39.6306Z" fill="white"/>
<path id="Vector_7" d="M47.7934 81.3162H45.9724V86.8866H44.4214V81.3162H42.6003V80.0391H47.7934V81.3162Z" fill="white"/>
<path id="Vector_8" d="M51.0737 80.0332V86.8865H49.5227V80.0332H51.0737Z" fill="white"/>
<path id="Vector_9" d="M56.1518 87.0003C54.2102 87.0003 52.8774 85.5806 52.8774 83.4596C52.8774 81.3386 54.2102 79.9189 56.1518 79.9189C58.0935 79.9189 59.4262 81.3386 59.4262 83.4596C59.4262 85.5806 58.105 87.0003 56.1518 87.0003ZM56.1518 85.7687C57.1801 85.7687 57.8752 84.8451 57.8752 83.4596C57.8752 82.0741 57.1801 81.1505 56.1518 81.1505C55.1236 81.1505 54.4285 82.0741 54.4285 83.4596C54.4285 84.8451 55.1293 85.7687 56.1518 85.7687Z" fill="white"/>
<path id="Vector_10" d="M67.0204 80.0332V86.8865H65.5843L62.5741 82.4564V86.8865H61.1782V80.0332H62.8097L65.6245 84.1725V80.0332H67.0204Z" fill="white"/>
<path id="Vector_11" d="M78.0328 84.1723C78.0328 85.8828 77.062 87.0003 75.2524 87.0003C73.2936 87.0003 71.9551 85.5692 71.9551 83.4596C71.9551 81.35 73.2878 79.9189 75.2582 79.9189C76.6369 79.9189 77.5732 80.5518 77.8834 81.6294L76.6082 82.211C76.4128 81.5154 75.9533 81.1505 75.218 81.1505C74.1954 81.1505 73.4946 82.0798 73.4946 83.4596C73.4946 84.8394 74.1552 85.7687 75.241 85.7687C76.1084 85.7687 76.5564 85.2841 76.6196 84.3776H75.3961V83.1004H78.0213V84.178L78.0328 84.1723Z" fill="white"/>
</g>
<g id="Group_2">
<path id="Vector_12" d="M52.1306 69.6506C50.4761 70.54 48.7298 71.2584 46.9145 71.7316C42.5027 72.8776 37.6946 72.6952 33.2598 71.7601C31.1803 71.3211 29.141 70.6825 27.1763 69.8729C14.2052 64.542 8.61574 52.7797 8.69617 42.3686H23.6836C24.08 48.0645 26.3836 52.8025 31.3239 55.9782C38.2231 60.414 48.4885 59.3707 53.9114 53.1104C54.4111 52.5345 54.8707 51.9187 55.2671 51.2631C55.3647 51.1034 56.1058 49.4614 56.1517 49.4614H39.1364V37.6934L71.2713 37.7504L71.2598 71.3382H59.4663C59.4663 71.3382 59.4663 63.9946 59.4204 63.7837C59.4204 63.7894 59.4433 63.7723 59.4376 63.778C58.9263 64.5078 58.3059 65.2034 57.6338 65.7906C55.9507 67.2616 54.1009 68.5844 52.1191 69.6563L52.1306 69.6506Z" fill="white"/>
<g id="Group_3">
<g id="Group_4">
<path id="Vector_13" d="M18.8409 33.9355H21.5007V39.1924C21.5007 39.9222 20.9032 40.5151 20.1679 40.5151C19.4326 40.5151 18.8352 39.9222 18.8352 39.1924V33.9355H18.8409Z" fill="white"/>
<path id="Vector_14" d="M10.9078 33.9355H13.5676V39.1924C13.5676 39.9222 12.9701 40.5151 12.2348 40.5151C11.4995 40.5151 10.9021 39.9222 10.9021 39.1924V33.9355H10.9078Z" fill="white"/>
</g>
<path id="Vector_15" d="M52.8718 2.69112C51.0795 1.91001 49.224 1.28854 47.3341 0.838115C39.4066 -1.0491 30.8071 0.319274 23.7183 4.25335C17.7325 7.57735 13.0852 12.9254 10.6553 19.2883C9.3455 22.7264 8.67339 26.4096 8.69637 30.0871H23.6839C24.1377 23.2338 28.1186 16.9564 34.9087 14.8411C36.408 14.3736 37.982 14.1227 39.556 14.1056C48.707 14.003 55.7268 21.5176 56.2956 30.3608H71.283C71.3405 22.7378 68.3074 15.0977 62.942 9.59C62.8271 9.47027 62.7122 9.35624 62.5973 9.2422C59.817 6.48265 56.4736 4.27045 52.8776 2.69682L52.8718 2.69112Z" fill="white"/>
<path id="Vector_16" d="M23.4597 31.0283H8.94904C8.27645 31.0283 7.7312 31.5695 7.7312 32.2371V32.2428C7.7312 32.9103 8.27645 33.4515 8.94904 33.4515H23.4597C24.1323 33.4515 24.6776 32.9103 24.6776 32.2428V32.2371C24.6776 31.5695 24.1323 31.0283 23.4597 31.0283Z" fill="white"/>
</g>
</g>
</g>
<defs>
<clipPath id="clip0_226_133008">
<rect width="77.0571" height="87" fill="white" transform="translate(0.975586)"/>
</clipPath>
</defs>
</svg>
