<svg width="61" height="70" viewBox="0 0 61 70" fill="none" xmlns="http://www.w3.org/2000/svg">
<g clip-path="url(#clip0_236_196597)">
<path d="M4.81124 67.725C4.81124 69.1012 4.04272 70.0004 2.61026 70.0004C1.05956 70.0004 0 68.8489 0 67.1515C0 65.4542 1.05502 64.3027 2.61481 64.3027C3.7062 64.3027 4.44744 64.8119 4.69301 65.679L3.68347 66.1469C3.52885 65.5872 3.16505 65.2936 2.58297 65.2936C1.77352 65.2936 1.21873 66.0414 1.21873 67.1515C1.21873 68.2617 1.74169 69.0095 2.60116 69.0095C3.28783 69.0095 3.64254 68.6195 3.69256 67.8901H2.72394V66.8625H4.80215V67.7296L4.81124 67.725Z" fill="#4C4C4E"/>
<path d="M7.49418 65.4264V66.4999H9.61331V67.5275H7.49418V68.8762H9.76792V69.9038H6.26636V64.3896H9.76792V65.4172H7.49418V65.4264Z" fill="#4C4C4E"/>
<path d="M15.8708 64.3945V69.9087H14.7339L12.351 66.3442V69.9087H11.246V64.3945H12.5375L14.7657 67.725V64.3945H15.8708Z" fill="#4C4C4E"/>
<path d="M18.6492 65.4264V66.4999H20.7683V67.5275H18.6492V68.8762H20.923V69.9038H17.4214V64.3896H20.923V65.4172H18.6492V65.4264Z" fill="#4C4C4E"/>
<path d="M24.0654 67.881H23.6243V69.9087H22.3965V64.3945H24.7203C25.7616 64.3945 26.4437 65.0872 26.4437 66.1332C26.4437 66.9681 26.0163 67.5736 25.3205 67.7938L26.7621 69.9041H25.2978L24.0654 67.8764V67.881ZM23.6243 66.9314H24.411C24.9203 66.9314 25.2205 66.6653 25.2205 66.1378C25.2205 65.6102 24.9249 65.3441 24.411 65.3441H23.6243V66.936V66.9314Z" fill="#4C4C4E"/>
<path d="M30.882 68.6196H29.0812L28.7264 69.9087H27.4668L29.2358 64.3945H30.791L32.56 69.9087H31.2367L30.882 68.6196ZM30.6 67.592L29.9861 65.3762L29.3676 67.592H30.6Z" fill="#4C4C4E"/>
<path d="M37.0621 65.427H35.6205V69.9089H34.3927V65.427H32.9512V64.3994H37.0621V65.427Z" fill="#4C4C4E"/>
<path d="M39.6587 64.3945V69.9087H38.4309V64.3945H39.6587Z" fill="#4C4C4E"/>
<path d="M43.6787 70.0004C42.1417 70.0004 41.0867 68.8581 41.0867 67.1515C41.0867 65.445 42.1417 64.3027 43.6787 64.3027C45.2158 64.3027 46.2708 65.445 46.2708 67.1515C46.2708 68.8581 45.2249 70.0004 43.6787 70.0004ZM43.6787 69.0095C44.4927 69.0095 45.043 68.2663 45.043 67.1515C45.043 66.0368 44.4927 65.2936 43.6787 65.2936C42.8647 65.2936 42.3145 66.0368 42.3145 67.1515C42.3145 68.2663 42.8693 69.0095 43.6787 69.0095Z" fill="#4C4C4E"/>
<path d="M52.2825 64.3945V69.9087H51.1456L48.7628 66.3442V69.9087H47.6577V64.3945H48.9492L51.1775 67.725V64.3945H52.2825Z" fill="#4C4C4E"/>
<path d="M61 67.725C61 69.1012 60.2314 70.0004 58.799 70.0004C57.2483 70.0004 56.1887 68.8489 56.1887 67.1515C56.1887 65.4542 57.2437 64.3027 58.8035 64.3027C59.8949 64.3027 60.6362 64.8119 60.8817 65.679L59.8722 66.1469C59.7176 65.5872 59.3538 65.2936 58.7717 65.2936C57.9622 65.2936 57.4074 66.0414 57.4074 67.1515C57.4074 68.2617 57.9304 69.0095 58.7899 69.0095C59.4766 69.0095 59.8313 68.6195 59.8813 67.8901H58.9127V66.8625H60.9909V67.7296L61 67.725Z" fill="#4C4C4E"/>
<path d="M40.4953 56.0408C39.1856 56.7565 37.8032 57.3345 36.3662 57.7152C32.8737 58.6373 29.0675 58.4905 25.5568 57.7382C23.9106 57.3849 22.2963 56.8712 20.741 56.2197C10.4728 51.9305 6.0481 42.4665 6.11176 34.0898H17.9762C18.2899 38.6727 20.1135 42.4849 24.0243 45.0401C29.4858 48.6091 37.6122 47.7696 41.905 42.7326C42.3007 42.2693 42.6645 41.7738 42.9782 41.2463C43.0555 41.1178 43.6422 39.7966 43.6786 39.7966H30.2089V30.3281L55.6475 30.374L55.6384 57.3987H46.3025C46.3025 57.3987 46.3025 51.4901 46.2661 51.3203C46.2661 51.3249 46.2843 51.3112 46.2797 51.3157C45.875 51.9029 45.3839 52.4626 44.8518 52.9351C43.5194 54.1187 42.0551 55.183 40.4862 56.0454L40.4953 56.0408Z" fill="#21CFB3"/>
<path d="M14.1427 27.3047H16.2482V31.5343C16.2482 32.1215 15.7753 32.5986 15.1932 32.5986C14.6111 32.5986 14.1382 32.1215 14.1382 31.5343V27.3047H14.1427Z" fill="#1DCDFE"/>
<path d="M7.8627 27.3047H9.96819V31.5343C9.96819 32.1215 9.49525 32.5986 8.91317 32.5986C8.33109 32.5986 7.85815 32.1215 7.85815 31.5343V27.3047H7.8627Z" fill="#1DCDFE"/>
<path d="M41.0821 2.16527C39.6633 1.53679 38.1944 1.03675 36.6983 0.674346C30.4228 -0.844103 23.6152 0.256887 18.0036 3.42223C13.2651 6.09672 9.58618 10.3998 7.6626 15.5194C6.62577 18.2856 6.09371 21.2491 6.1119 24.208H17.9763C18.3355 18.6939 21.487 13.6431 26.8621 11.9411C28.049 11.565 29.295 11.3631 30.541 11.3494C37.7852 11.2668 43.3422 17.3131 43.7924 24.4282H55.6568C55.7023 18.2948 53.3012 12.1476 49.0538 7.71609C48.9629 7.61975 48.8719 7.52801 48.781 7.43626C46.58 5.21593 43.9334 3.43599 41.0866 2.16986L41.0821 2.16527Z" fill="#1DCDFE"/>
<path d="M17.7989 24.9648H6.31197C5.77953 24.9648 5.3479 25.4003 5.3479 25.9374V25.942C5.3479 26.4791 5.77953 26.9145 6.31197 26.9145H17.7989C18.3314 26.9145 18.763 26.4791 18.763 25.942V25.9374C18.763 25.4003 18.3314 24.9648 17.7989 24.9648Z" fill="#1DCDFE"/>
<path d="M11.7053 16.2629C11.8508 15.7124 11.9963 15.1619 12.1509 14.6114C12.1691 14.5472 12.2464 14.4509 12.301 14.4509C12.9604 14.4233 13.6152 14.4142 14.2973 14.4004C14.079 15.2674 13.8653 16.1069 13.6425 16.9785L15.9663 16.9189C14.6793 18.7998 13.4106 20.6485 12.1464 22.4927C12.1327 22.4881 12.1191 22.4835 12.1054 22.4789C12.4238 21.2908 12.7466 20.1026 13.0786 18.8686C12.3737 18.8869 11.6962 18.9099 10.9958 18.9282C11.2369 18.0199 11.4733 17.1391 11.7053 16.2583V16.2629Z" fill="white"/>
<mask id="mask0_236_196597" style="mask-type:luminance" maskUnits="userSpaceOnUse" x="10" y="14" width="6" height="9">
<path d="M11.7053 16.2629C11.8508 15.7124 11.9963 15.1619 12.1509 14.6114C12.1691 14.5472 12.2464 14.4509 12.301 14.4509C12.9604 14.4233 13.6152 14.4142 14.2973 14.4004C14.079 15.2674 13.8653 16.1069 13.6425 16.9785L15.9663 16.9189C14.6793 18.7998 13.4106 20.6485 12.1464 22.4927C12.1327 22.4881 12.1191 22.4835 12.1054 22.4789C12.4238 21.2908 12.7466 20.1026 13.0786 18.8686C12.3737 18.8869 11.6962 18.9099 10.9958 18.9282C11.2369 18.0199 11.4733 17.1391 11.7053 16.2583V16.2629Z" fill="white"/>
</mask>
<g mask="url(#mask0_236_196597)">
<path d="M15.9142 14.3705L10.9128 14.4639L11.0606 22.5181L16.0619 22.4247L15.9142 14.3705Z" fill="white"/>
<path d="M13.4925 21.8092C15.3334 21.8092 16.8258 20.3037 16.8258 18.4466C16.8258 16.5895 15.3334 15.084 13.4925 15.084C11.6516 15.084 10.1592 16.5895 10.1592 18.4466C10.1592 20.3037 11.6516 21.8092 13.4925 21.8092Z" fill="white"/>
<path d="M13.4924 21.7036C15.2756 21.7036 16.7211 20.2454 16.7211 18.4465C16.7211 16.6477 15.2756 15.1895 13.4924 15.1895C11.7092 15.1895 10.2637 16.6477 10.2637 18.4465C10.2637 20.2454 11.7092 21.7036 13.4924 21.7036Z" fill="white"/>
<path d="M13.4924 21.6024C15.2204 21.6024 16.6211 20.1893 16.6211 18.4462C16.6211 16.7031 15.2204 15.29 13.4924 15.29C11.7645 15.29 10.3638 16.7031 10.3638 18.4462C10.3638 20.1893 11.7645 21.6024 13.4924 21.6024Z" fill="white"/>
<path d="M13.4925 21.5021C15.1652 21.5021 16.5211 20.1342 16.5211 18.4468C16.5211 16.7595 15.1652 15.3916 13.4925 15.3916C11.8198 15.3916 10.4639 16.7595 10.4639 18.4468C10.4639 20.1342 11.8198 21.5021 13.4925 21.5021Z" fill="white"/>
<path d="M13.4925 21.4008C15.11 21.4008 16.4211 20.0781 16.4211 18.4465C16.4211 16.8149 15.11 15.4922 13.4925 15.4922C11.8751 15.4922 10.564 16.8149 10.564 18.4465C10.564 20.0781 11.8751 21.4008 13.4925 21.4008Z" fill="white"/>
<path d="M13.4926 21.2996C15.0548 21.2996 16.3211 20.0221 16.3211 18.4462C16.3211 16.8703 15.0548 15.5928 13.4926 15.5928C11.9304 15.5928 10.6641 16.8703 10.6641 18.4462C10.6641 20.0221 11.9304 21.2996 13.4926 21.2996Z" fill="white"/>
<path d="M13.4925 21.194C14.9969 21.194 16.2164 19.9637 16.2164 18.4461C16.2164 16.9285 14.9969 15.6982 13.4925 15.6982C11.9881 15.6982 10.7686 16.9285 10.7686 18.4461C10.7686 19.9637 11.9881 21.194 13.4925 21.194Z" fill="white"/>
<path d="M13.4926 21.0937C14.9417 21.0937 16.1165 19.9086 16.1165 18.4468C16.1165 16.9849 14.9417 15.7998 13.4926 15.7998C12.0434 15.7998 10.8687 16.9849 10.8687 18.4468C10.8687 19.9086 12.0434 21.0937 13.4926 21.0937Z" fill="white"/>
<path d="M13.4926 20.9925C14.8865 20.9925 16.0165 19.8526 16.0165 18.4464C16.0165 17.0403 14.8865 15.9004 13.4926 15.9004C12.0987 15.9004 10.9688 17.0403 10.9688 18.4464C10.9688 19.8526 12.0987 20.9925 13.4926 20.9925Z" fill="white"/>
<path d="M13.4924 20.8912C14.831 20.8912 15.9162 19.7965 15.9162 18.4461C15.9162 17.0957 14.831 16.001 13.4924 16.001C12.1538 16.001 11.0686 17.0957 11.0686 18.4461C11.0686 19.7965 12.1538 20.8912 13.4924 20.8912Z" fill="white"/>
<path d="M13.4925 20.7909C14.7758 20.7909 15.8162 19.7414 15.8162 18.4467C15.8162 17.1521 14.7758 16.1025 13.4925 16.1025C12.2091 16.1025 11.1687 17.1521 11.1687 18.4467C11.1687 19.7414 12.2091 20.7909 13.4925 20.7909Z" fill="white"/>
<path d="M13.4924 20.6854C14.718 20.6854 15.7115 19.6831 15.7115 18.4467C15.7115 17.2103 14.718 16.208 13.4924 16.208C12.2668 16.208 11.2732 17.2103 11.2732 18.4467C11.2732 19.6831 12.2668 20.6854 13.4924 20.6854Z" fill="white"/>
<path d="M13.4924 20.5841C14.6628 20.5841 15.6116 19.627 15.6116 18.4463C15.6116 17.2657 14.6628 16.3086 13.4924 16.3086C12.3221 16.3086 11.3733 17.2657 11.3733 18.4463C11.3733 19.627 12.3221 20.5841 13.4924 20.5841Z" fill="white"/>
<path d="M13.4925 20.4828C14.6076 20.4828 15.5116 19.5709 15.5116 18.446C15.5116 17.3211 14.6076 16.4092 13.4925 16.4092C12.3774 16.4092 11.4734 17.3211 11.4734 18.446C11.4734 19.5709 12.3774 20.4828 13.4925 20.4828Z" fill="white"/>
<path d="M13.4925 20.3826C14.5524 20.3826 15.4116 19.5158 15.4116 18.4466C15.4116 17.3775 14.5524 16.5107 13.4925 16.5107C12.4327 16.5107 11.5735 17.3775 11.5735 18.4466C11.5735 19.5158 12.4327 20.3826 13.4925 20.3826Z" fill="white"/>
<path d="M13.4926 20.2813C14.4972 20.2813 15.3116 19.4597 15.3116 18.4463C15.3116 17.4329 14.4972 16.6113 13.4926 16.6113C12.488 16.6113 11.6736 17.4329 11.6736 18.4463C11.6736 19.4597 12.488 20.2813 13.4926 20.2813Z" fill="white"/>
<path d="M13.4925 20.1757C14.4393 20.1757 15.2069 19.4014 15.2069 18.4463C15.2069 17.4911 14.4393 16.7168 13.4925 16.7168C12.5456 16.7168 11.7781 17.4911 11.7781 18.4463C11.7781 19.4014 12.5456 20.1757 13.4925 20.1757Z" fill="white"/>
<path d="M13.4925 20.0755C14.3841 20.0755 15.1069 19.3463 15.1069 18.4469C15.1069 17.5475 14.3841 16.8184 13.4925 16.8184C12.6009 16.8184 11.8782 17.5475 11.8782 18.4469C11.8782 19.3463 12.6009 20.0755 13.4925 20.0755Z" fill="white"/>
<path d="M13.4926 19.9742C14.3289 19.9742 15.0069 19.2903 15.0069 18.4466C15.0069 17.6029 14.3289 16.9189 13.4926 16.9189C12.6563 16.9189 11.9783 17.6029 11.9783 18.4466C11.9783 19.2903 12.6563 19.9742 13.4926 19.9742Z" fill="white"/>
<path d="M13.4924 19.8729C14.2735 19.8729 14.9067 19.2342 14.9067 18.4462C14.9067 17.6583 14.2735 17.0195 13.4924 17.0195C12.7113 17.0195 12.0781 17.6583 12.0781 18.4462C12.0781 19.2342 12.7113 19.8729 13.4924 19.8729Z" fill="white"/>
<path d="M13.4924 19.7726C14.2183 19.7726 14.8067 19.1791 14.8067 18.4469C14.8067 17.7147 14.2183 17.1211 13.4924 17.1211C12.7666 17.1211 12.1782 17.7147 12.1782 18.4469C12.1782 19.1791 12.7666 19.7726 13.4924 19.7726Z" fill="white"/>
<path d="M13.4926 19.6671C14.1607 19.6671 14.7022 19.1208 14.7022 18.4468C14.7022 17.7729 14.1607 17.2266 13.4926 17.2266C12.8245 17.2266 12.283 17.7729 12.283 18.4468C12.283 19.1208 12.8245 19.6671 13.4926 19.6671Z" fill="white"/>
<path d="M13.4924 19.5658C14.1052 19.5658 14.602 19.0647 14.602 18.4465C14.602 17.8283 14.1052 17.3271 13.4924 17.3271C12.8796 17.3271 12.3828 17.8283 12.3828 18.4465C12.3828 19.0647 12.8796 19.5658 13.4924 19.5658Z" fill="white"/>
<path d="M13.4925 19.4646C14.05 19.4646 14.502 19.0086 14.502 18.4461C14.502 17.8837 14.05 17.4277 13.4925 17.4277C12.9349 17.4277 12.4829 17.8837 12.4829 18.4461C12.4829 19.0086 12.9349 19.4646 13.4925 19.4646Z" fill="white"/>
<path d="M13.4925 19.3643C13.9948 19.3643 14.402 18.9535 14.402 18.4468C14.402 17.9401 13.9948 17.5293 13.4925 17.5293C12.9902 17.5293 12.583 17.9401 12.583 18.4468C12.583 18.9535 12.9902 19.3643 13.4925 19.3643Z" fill="white"/>
<path d="M13.4926 19.263C13.9396 19.263 14.302 18.8974 14.302 18.4464C14.302 17.9955 13.9396 17.6299 13.4926 17.6299C13.0455 17.6299 12.6831 17.9955 12.6831 18.4464C12.6831 18.8974 13.0455 19.263 13.4926 19.263Z" fill="white"/>
<path d="M13.4925 19.1575C13.8817 19.1575 14.1973 18.8391 14.1973 18.4464C14.1973 18.0537 13.8817 17.7354 13.4925 17.7354C13.1032 17.7354 12.7876 18.0537 12.7876 18.4464C12.7876 18.8391 13.1032 19.1575 13.4925 19.1575Z" fill="white"/>
<path d="M13.4925 19.0562C13.8265 19.0562 14.0973 18.783 14.0973 18.4461C14.0973 18.1091 13.8265 17.8359 13.4925 17.8359C13.1585 17.8359 12.8877 18.1091 12.8877 18.4461C12.8877 18.783 13.1585 19.0562 13.4925 19.0562Z" fill="white"/>
<path d="M13.4926 18.9559C13.7713 18.9559 13.9973 18.7279 13.9973 18.4467C13.9973 18.1655 13.7713 17.9375 13.4926 17.9375C13.2138 17.9375 12.9878 18.1655 12.9878 18.4467C12.9878 18.7279 13.2138 18.9559 13.4926 18.9559Z" fill="white"/>
<path d="M13.4924 18.8547C13.7159 18.8547 13.8971 18.6719 13.8971 18.4464C13.8971 18.2209 13.7159 18.0381 13.4924 18.0381C13.2688 18.0381 13.0876 18.2209 13.0876 18.4464C13.0876 18.6719 13.2688 18.8547 13.4924 18.8547Z" fill="white"/>
<path d="M13.4924 18.7534C13.6607 18.7534 13.7971 18.6158 13.7971 18.446C13.7971 18.2763 13.6607 18.1387 13.4924 18.1387C13.3242 18.1387 13.1877 18.2763 13.1877 18.446C13.1877 18.6158 13.3242 18.7534 13.4924 18.7534Z" fill="white"/>
<path d="M13.4926 18.6478C13.6031 18.6478 13.6927 18.5575 13.6927 18.446C13.6927 18.3345 13.6031 18.2441 13.4926 18.2441C13.3821 18.2441 13.2925 18.3345 13.2925 18.446C13.2925 18.5575 13.3821 18.6478 13.4926 18.6478Z" fill="white"/>
<path d="M13.4924 18.5476C13.5476 18.5476 13.5924 18.5024 13.5924 18.4466C13.5924 18.3909 13.5476 18.3457 13.4924 18.3457C13.4371 18.3457 13.3923 18.3909 13.3923 18.4466C13.3923 18.5024 13.4371 18.5476 13.4924 18.5476Z" fill="white"/>
</g>
</g>
<defs>
<clipPath id="clip0_236_196597">
<rect width="61" height="70" fill="white"/>
</clipPath>
</defs>
</svg>
