<svg width="221" height="91" viewBox="0 0 221 91" fill="none" xmlns="http://www.w3.org/2000/svg">
<g id="Layer_1">
<path id="Vector" d="M94.4507 50.133C88.124 50.133 83.9017 47.0444 83.9017 42.4304C83.9017 37.8164 88.124 34.7278 94.4507 34.7278C100.777 34.7278 105 37.8164 105 42.4304C105 47.0444 100.777 50.133 94.4507 50.133ZM94.4507 31C90.2866 31 86.5937 32.0921 83.9017 34.0063V32.0641H79.3575V61H83.9017V50.8561C86.5937 52.7703 90.2866 53.8624 94.4507 53.8624C103.501 53.8624 109.544 49.2748 109.544 42.432C109.544 35.5893 103.501 31 94.4507 31ZM126.808 50.133C120.481 50.133 116.259 47.0444 116.259 42.4304C116.259 37.8164 120.481 34.7278 126.808 34.7278C133.135 34.7278 137.357 37.8164 137.357 42.4304C137.357 47.0444 133.135 50.133 126.808 50.133ZM126.808 31C122.644 31 118.951 32.0921 116.259 34.0063V32.0641H111.715V61H116.259V50.8561C118.95 52.7703 122.644 53.8624 126.808 53.8624C135.859 53.8624 141.901 49.2748 141.901 42.432C141.901 35.5893 135.859 31 126.808 31ZM158.907 50.133C152.58 50.133 148.358 47.0444 148.358 42.4304C148.358 37.8164 152.58 34.7278 158.907 34.7278C165.233 34.7278 169.456 37.8164 169.456 42.4304C169.456 47.0444 165.233 50.133 158.907 50.133ZM158.907 31C149.856 31 143.813 35.5876 143.813 42.4304C143.813 49.2731 149.856 53.8608 158.907 53.8608C167.957 53.8608 174 49.2731 174 42.4304C174 35.5876 167.957 31 158.907 31ZM62.0933 50.133C55.7665 50.133 51.5443 47.0444 51.5443 42.4304C51.5443 37.8164 55.7665 34.7278 62.0933 34.7278C68.42 34.7278 72.6423 37.8164 72.6423 42.4304C72.6423 47.0444 68.42 50.133 62.0933 50.133ZM62.0933 31C53.043 31 47 35.5876 47 42.4304C47 49.2731 53.043 53.8608 62.0933 53.8608C71.1436 53.8608 77.1866 49.2731 77.1866 42.4304C77.1866 35.5876 71.1453 31 62.0933 31Z" fill="black"/>
</g>
</svg>
