<svg width="140" height="140" viewBox="0 0 140 140" fill="none" xmlns="http://www.w3.org/2000/svg">
<path id="Vector" d="M78.3069 22.5385L76.8763 19.6844C71.2651 8.48988 63.3129 3.14319 55.2085 1.89367C47.0473 0.635388 38.4638 3.49041 31.5872 9.23275C24.719 14.9681 19.6434 23.5161 18.4793 33.4693C17.3962 42.73 19.6881 53.3112 27.2463 64.0829C28.9313 60.3429 31.4456 57.2027 34.8246 54.6L34.8251 54.5996L49.5642 43.2573L49.8661 43.025L50.2403 42.9537L51.3656 42.7391L51.3664 42.7389C54.3222 42.1768 57.4615 42.7586 59.8581 44.9362C60.7818 45.7712 61.4894 46.729 62.0077 47.7577C66.7987 43.9943 71.5895 40.2286 76.3781 36.4646C77.522 35.5655 78.6657 34.6665 79.8093 33.7676L79.8102 33.7669C83.2335 31.0802 87.7637 30.4646 91.729 32.5762L78.3069 22.5385ZM78.3069 22.5385L79.7371 19.6842C85.6463 7.89107 94.1579 2.58063 102.73 1.72543C111.374 0.862975 120.366 4.50267 127.189 11.1857C134 17.8558 138.56 27.4772 138.396 38.4124C138.232 49.3274 133.355 61.7201 120.982 73.9162L78.3066 115.98L70.5537 108.338M78.3069 22.5385L70.5537 108.338M70.5537 108.338L106.135 80.3708L70.5537 108.338ZM105.077 56.1922C108.4 52.2746 108.996 46.6169 105.505 42.1712L105.504 42.1701C103.239 39.2905 100.038 37.936 96.7958 38.0055C95.8268 35.7857 94.109 33.841 91.7298 32.5766L105.077 56.1922ZM105.077 56.1922C107.194 58.8011 107.921 62.2562 107.065 65.4458C111.135 69.494 111.154 76.4315 106.136 80.37L105.077 56.1922ZM39.7069 60.9414L39.708 60.9406L53.2072 50.5479C53.9154 50.4797 54.2814 50.6772 54.488 50.8655C54.7786 51.1303 55.0535 51.6554 55.125 52.5093C55.2689 54.227 54.5112 56.4869 53.0281 57.9094L44.8722 64.1688C43.7328 64.9989 42.9148 66.1642 42.6212 67.3386C42.4733 67.9301 42.4344 68.6302 42.6807 69.3072C42.9459 70.0366 43.5034 70.6176 44.2824 70.9011L45.1186 71.2055L45.8183 70.6557C49.7809 67.5415 53.7429 64.4274 57.7047 61.3135C66.7211 54.2267 75.7363 47.1409 84.7541 40.0575L84.7546 40.0572C85.6423 39.3593 86.4617 39.2276 87.135 39.3444C87.8453 39.4676 88.5277 39.8932 89.0254 40.5266C89.5232 41.16 89.7753 41.9235 89.727 42.6424C89.6813 43.3238 89.3598 44.0881 88.4724 44.7847L88.4717 44.7853L61.4012 66.0618L60.1438 67.0501L61.1315 68.3079L62.529 70.0875L63.5176 71.3464L64.7761 70.3572L94.589 46.9246C95.6338 46.1038 96.5758 45.9207 97.3097 46.0134C98.0665 46.1091 98.7442 46.5154 99.2151 47.1151C99.686 47.7148 99.9204 48.4702 99.8341 49.2292C99.7505 49.9652 99.3496 50.8373 98.3062 51.6578L68.4934 75.0852L67.2358 76.0735L68.2237 77.3314L69.6212 79.111L70.6098 80.37L71.8683 79.3807L95.4056 60.8785C95.4057 60.8784 95.4058 60.8783 95.4059 60.8783C96.139 60.3023 96.7977 60.2045 97.3267 60.2963C97.8927 60.3945 98.4469 60.7362 98.8551 61.2555C99.2632 61.7748 99.4642 62.3939 99.4258 62.967C99.39 63.5026 99.1393 64.1194 98.4061 64.6956L98.4058 64.6957L74.8683 83.1982L73.6117 84.186L74.5983 85.4436L75.8178 86.9982L76.8062 88.2581L78.0653 87.2686L98.7712 70.9959L98.7719 70.9954C99.3805 70.5165 99.9096 70.4461 100.322 70.5178C100.772 70.5959 101.223 70.8705 101.56 71.2988C101.896 71.7271 102.056 72.2309 102.026 72.6868C101.998 73.1051 101.804 73.6023 101.196 74.08L101.196 74.0804C93.48 80.1448 85.7986 86.1812 78.1172 92.2176C70.4369 98.2532 62.7566 104.289 55.0418 110.352L55.0408 110.353C52.78 112.133 50.5068 113.177 47.6787 113.73L47.6773 113.73L43.5249 114.546L27.4921 94.1424L30.375 81.0209L33.6416 69.8248L33.6418 69.8242C34.7195 66.1244 36.6539 63.2877 39.7069 60.9414ZM2.24665 115.434L23.0745 99.0656L40.615 121.385L19.7872 137.753L2.24665 115.434Z" stroke="white" stroke-width="3.2"/>
</svg>
