<svg width="150" height="150" viewBox="0 0 150 150" fill="none" xmlns="http://www.w3.org/2000/svg">
<g id="Registration">
<path id="Vector" d="M16.1002 125.5C17.5002 131.9 23.3002 136.5 29.9002 136.5H120.1C126.7 136.5 132.4 131.9 133.9 125.5L135.8 117C135.9 116.5 135.8 115.9 135.4 115.5C135 115.1 134.5 114.8 133.9 114.8H130.2V48.4C130.2 44.7 127.2 41.7 123.5 41.7H105.2V37.9H116.1C117.9 37.9 119.6 37.2 120.8 36C122.1 34.8 122.8 33.1 122.8 31.3V24.1C122.8 18.3 118.1 13.5 112.2 13.5H51.5002C47.8002 13.5 44.9002 16.5 44.9002 20.1V41.6H26.5002C24.7002 41.6 23.0002 42.3 21.8002 43.6C20.5002 44.9 19.8002 46.6 19.8002 48.3V114.7H16.0002C15.4002 114.7 14.9002 114.9 14.5002 115.4C14.2002 115.8 14.0002 116.4 14.1002 116.9L16.1002 125.5ZM119.2 24.1V31.3C119.2 32.1 118.9 32.9 118.3 33.4C117.7 34 117 34.3 116.2 34.3H105.3V24.1C105.5 20.4 108.5 17.5 112.2 17.5C115.9 17.5 119 20.4 119.2 24.1ZM48.4002 20.1C48.4002 18.5 49.7002 17.1 51.4002 17.1H104.3C102.6 19 101.7 21.5 101.7 24V93.5C101.7 94.3 101.4 95 100.8 95.6C100.2 96.2 99.5002 96.5 98.7002 96.5H51.5002C49.9002 96.5 48.5002 95.2 48.5002 93.5L48.4002 20.1ZM51.4002 100.2H98.7002C102.4 100.2 105.3 97.2 105.3 93.6V53.7H118.1V106.3H32.0002V53.7H44.8002V93.5C44.8002 97.2 47.8002 100.2 51.4002 100.2ZM23.4002 48.4C23.4002 46.7 24.8002 45.4 26.4002 45.4H44.7002V50.2H30.2002C29.2002 50.2 28.4002 51 28.4002 52V108.3C28.4002 109.3 29.2002 110.1 30.2002 110.1H120C121 110.1 121.8 109.3 121.8 108.3V51.9C121.8 50.9 121 50.1 120 50.1H105.3V45.3H123.6C124.4 45.3 125.2 45.6 125.8 46.2C126.4 46.8 126.7 47.6 126.7 48.4V114.8H23.4002V48.4ZM92.3002 118.5L91.2002 120.9C90.4002 122.7 88.6002 123.8 86.6002 123.9H63.4002C61.4002 123.9 59.7002 122.7 58.8002 120.9L57.7002 118.5H92.3002ZM21.6002 118.5H53.7002L55.5002 122.4C56.9002 125.5 60.0002 127.5 63.4002 127.5H86.6002C90.0002 127.5 93.1002 125.5 94.5002 122.4L96.3002 118.5H131.8L130.3 124.7C129.2 129.5 125 132.9 120.1 132.9H29.9002C25.0002 132.9 20.7002 129.5 19.7002 124.7L18.2002 118.5H21.6002ZM113.6 127.5H108.1V123.8H113.6V127.5ZM104.3 127.5H98.8002V123.8H104.3V127.5ZM123 127.5H117.5V123.8H123V127.5ZM75.1002 60.4C82.9002 60.4 90.0002 55.7 92.9002 48.5C95.9002 41.3 94.2002 33 88.7002 27.4C83.2002 21.9 74.9002 20.2 67.7002 23.2C60.5002 26.2 55.8002 33.2 55.7002 41C55.7002 51.7 64.4002 60.3 75.1002 60.4ZM75.1002 25.4C81.4002 25.4 87.2002 29.2 89.6002 35.1C92.0002 41 90.7002 47.7 86.2002 52.2C81.7002 56.7 74.9002 57.9 69.0002 55.5C63.1002 53.1 59.3002 47.3 59.4002 41C59.4002 32.4 66.4002 25.4 75.1002 25.4ZM72.9002 47.1L67.5002 41.5L70.1002 39L74.0002 43.1L82.0002 32.8L84.9002 35.1L75.6002 46.9C75.3002 47.3 74.8002 47.6 74.3002 47.6H74.2002C73.8002 47.6 73.3002 47.4 72.9002 47.1ZM61.9002 75.7H88.1002C89.8002 75.8 91.5002 75.2 92.7002 74C93.9002 72.8 94.6002 71.2 94.6002 69.5C94.6002 67.8 94.0002 66.1 92.8002 65C91.6002 63.8 89.9002 63.2 88.2002 63.3H61.9002C58.6002 63.5 56.0002 66.2 56.0002 69.5C56.0002 72.8 58.6002 75.5 61.9002 75.7ZM61.9002 66.9H88.1002C88.8002 66.8 89.5002 67.1 90.0002 67.6C90.5002 68.1 90.8002 68.8 90.8002 69.5C90.8002 70.2 90.5002 70.9 90.0002 71.4C89.5002 71.9 88.8002 72.1 88.1002 72.1H61.9002C60.6002 72 59.5002 70.9 59.5002 69.5C59.5002 68.1 60.6002 67 61.9002 66.9ZM61.9002 92.1H88.1002C91.5002 92.1 94.3002 89.3 94.3002 85.9C94.3002 82.5 91.5002 79.7 88.1002 79.7H61.9002C58.5002 79.7 55.7002 82.5 55.7002 85.9C55.7002 89.3 58.5002 92.1 61.9002 92.1ZM61.9002 83.3H88.1002C89.5002 83.3 90.6002 84.4 90.6002 85.8C90.6002 87.2 89.5002 88.3 88.1002 88.3H61.9002C60.5002 88.3 59.4002 87.2 59.4002 85.8C59.4002 84.4 60.5002 83.3 61.9002 83.3Z" fill="white"/>
</g>
</svg>
